<svg width="83" height="115" viewBox="0 0 83 115" fill="none" xmlns="http://www.w3.org/2000/svg">
<path d="M69.4656 56.8429C78.1081 61.2786 83 69.1643 83 79.5143C83 100.379 66.2043 115 42.2338 115C19.2417 115 2.44597 101.529 0 80.1714L25.4381 75.4072C26.9057 86.25 32.776 92.4929 42.3969 92.4929C51.5285 92.4929 58.0511 87.2357 58.0511 79.1857C58.0511 71.9571 52.6699 67.6857 43.2122 67.6857H28.5363V46.1643H42.0707C51.3654 46.1643 56.7466 42.0571 56.7466 34.9929C56.7466 27.4357 51.0393 22.3429 42.2338 22.3429C33.4283 22.3429 26.9057 27.7643 25.9273 40.0857L1.30452 35.3214C3.75049 13.4714 19.8939 0 42.0707 0C65.389 0 81.2063 14.4572 81.2063 34.6643C81.2063 44.6857 76.9666 52.4072 69.4656 56.8429Z" fill="#171717"/>
</svg>
