<svg width="40" height="40" viewBox="0 0 40 40" fill="none" xmlns="http://www.w3.org/2000/svg">
<rect width="40.0026" height="40.0026" fill="#090909"/>
<circle cx="20" cy="20.0013" r="19.6259" stroke="url(#paint0_linear_17620_3407)" stroke-width="0.750863"/>
<path d="M28.4375 20.4376C28.4366 19.5428 28.0807 18.6849 27.448 18.0522C26.8152 17.4194 25.9573 17.0636 25.0625 17.0626H22.2641C22.0595 17.0507 18.4939 16.7997 15.0985 13.952C14.9346 13.8143 14.7347 13.7262 14.5224 13.6982C14.3102 13.6701 14.0943 13.7032 13.9002 13.7936C13.7061 13.884 13.5418 14.0279 13.4266 14.2084C13.3114 14.3889 13.2502 14.5985 13.25 14.8126V26.0626C13.25 26.2768 13.3112 26.4865 13.4263 26.6671C13.5414 26.8477 13.7057 26.9917 13.8998 27.0822C14.094 27.1727 14.3099 27.2058 14.5222 27.1778C14.7346 27.1498 14.9345 27.0617 15.0985 26.9239C17.7542 24.6964 20.5126 24.058 21.6875 23.8794V26.1097C21.6873 26.2951 21.7328 26.4777 21.8202 26.6412C21.9075 26.8047 22.0339 26.9441 22.1881 27.047L22.9616 27.5624C23.1111 27.6622 23.2823 27.7247 23.4609 27.7447C23.6395 27.7647 23.8203 27.7416 23.9882 27.6774C24.1561 27.6131 24.3061 27.5096 24.4257 27.3755C24.5453 27.2413 24.6311 27.0805 24.6758 26.9064L25.5034 23.7873C26.3153 23.6793 27.0603 23.2801 27.6 22.664C28.1397 22.0478 28.4373 21.2567 28.4375 20.4376ZM14.375 26.0577V14.8126C17.3851 17.3375 20.4662 17.9767 21.6875 18.1342V22.7382C20.4676 22.8986 17.3872 23.5363 14.375 26.0577ZM23.5859 26.6202V26.6279L22.8125 26.1125V23.8126H24.3313L23.5859 26.6202ZM25.0625 22.6876H22.8125V18.1876H25.0625C25.6592 18.1876 26.2315 18.4247 26.6535 18.8466C27.0754 19.2686 27.3125 19.8409 27.3125 20.4376C27.3125 21.0344 27.0754 21.6067 26.6535 22.0286C26.2315 22.4506 25.6592 22.6876 25.0625 22.6876Z" fill="white"/>
<defs>
<linearGradient id="paint0_linear_17620_3407" x1="20" y1="0" x2="20" y2="40.0026" gradientUnits="userSpaceOnUse">
<stop stop-color="#39B6D8"/>
<stop offset="0.5" stop-color="#F7D344"/>
<stop offset="1" stop-color="#E38330"/>
</linearGradient>
</defs>
</svg>
