<svg width="40" height="41" viewBox="0 0 40 41" fill="none" xmlns="http://www.w3.org/2000/svg">
<rect width="40" height="40" transform="translate(0 0.207031)" fill="#090909"/>
<path d="M24.5 30.6618C23.3349 30.6618 22.1638 30.3646 21.2781 29.7701C20.4518 29.2232 20 28.4742 20 27.6598C20 26.8454 20.4518 26.0904 21.2781 25.5376C23.0614 24.3547 25.9505 24.3547 27.7219 25.5376C28.5423 26.0845 29 26.8335 29 27.6479C29 28.4623 28.5482 29.2173 27.7219 29.7701C26.8303 30.3646 25.6651 30.6618 24.5 30.6618ZM21.7715 26.2866C21.2008 26.6671 20.8917 27.1545 20.8917 27.6657C20.8917 28.171 21.2067 28.6585 21.7715 29.033C23.2517 30.0257 25.7483 30.0257 27.2285 29.033C27.7992 28.6525 28.1083 28.1651 28.1083 27.6539C28.1083 27.1486 27.7933 26.6611 27.2285 26.2866C25.7483 25.2998 23.2517 25.2998 21.7715 26.2866Z" fill="white"/>
<path d="M24.4948 24.1645C24.4769 24.1645 24.465 24.1645 24.4472 24.1645C24.4175 24.1585 24.3759 24.1585 24.3402 24.1645C22.6163 24.111 21.3145 22.7556 21.3145 21.0852C21.3145 19.3851 22.6995 18 24.3997 18C26.0998 18 27.4849 19.3851 27.4849 21.0852C27.4789 22.7556 26.1711 24.111 24.5126 24.1645C24.5067 24.1645 24.5007 24.1645 24.4948 24.1645ZM24.3997 18.8917C23.1929 18.8917 22.2061 19.8785 22.2061 21.0852C22.2061 22.2741 23.1335 23.2312 24.3164 23.2728C24.3521 23.2668 24.4294 23.2668 24.5067 23.2728C25.6718 23.2193 26.5872 22.2622 26.5932 21.0852C26.5932 19.8785 25.6064 18.8917 24.3997 18.8917Z" fill="white"/>
<path d="M17 29H11C10.4696 29 9.87507 28.8751 9.5 28.5C9.12493 28.1249 9 27.5304 9 27V15C9 14.4696 9.21071 13.9609 9.58578 13.5858C9.96086 13.2107 10.4696 13 11 13H29C29.5304 13 30.1249 13.1249 30.5 13.5C30.8751 13.8751 31 14.4696 31 15V25C30.7239 25.2761 30.2761 25.2761 30 25V15C30 14.4477 29.5523 14 29 14H11C10.4477 14 10 14.4477 10 15V28H17C17.4805 28.1602 17.4805 28.8398 17 29Z" fill="white"/>
<path d="M24.0098 14H23V11H17V14H16.0098V10H24.0098V14Z" fill="white"/>
<path d="M13 20H12.0098V25H13V20Z" fill="white"/>
<path d="M14.9902 22H14V25H14.9902V22Z" fill="white"/>
<path d="M16.9902 17H16V25H16.9902V17Z" fill="white"/>
<circle cx="20" cy="20.207" r="19.6246" stroke="url(#paint0_linear_2427_6493)" stroke-width="0.750863"/>
<defs>
<linearGradient id="paint0_linear_2427_6493" x1="20" y1="0.207031" x2="20" y2="40.207" gradientUnits="userSpaceOnUse">
<stop stop-color="#39B6D8"/>
<stop offset="0.5" stop-color="#F7D344"/>
<stop offset="1" stop-color="#E38330"/>
</linearGradient>
</defs>
</svg>
