<svg width="1440" height="243" viewBox="0 0 1440 243" fill="none" xmlns="http://www.w3.org/2000/svg">
<path d="M-91 148.885C-75.7847 141.433 -56.2199 137.345 -39.5991 132.088C41.1166 106.556 119.162 77.3761 196.656 47.264C242.955 29.2737 289.309 11.7965 337.184 -3.96617C337.379 -4.03063 364.731 -14.4677 361.941 -8.83724C354.2 6.78637 337.462 23.0342 326.573 37.3539C277.667 101.674 227.351 165.483 176.851 229.173C144.414 270.082 110.352 310.323 78.0571 351.286C67.269 364.969 54.9752 377.47 83.4801 361.532C242.384 272.683 391.901 174.807 546.088 81.8654C578.558 62.2932 611.651 41.3139 648.89 26.2681C667.226 18.8596 654.182 34.7815 650.305 39.8735C636.674 57.7762 621.143 74.9683 605.742 92.1115C598.477 100.197 566.238 130.659 603.148 112.268C673.409 77.2583 735.926 34.8231 806.63 0.233028C825.215 -8.85927 850.522 -21.0606 873.592 -25.1301C923.861 -33.9975 869.651 27.7854 867.698 30.6352C825.105 92.7745 776.71 152.856 734.244 215.064C733.114 216.72 713.059 246.669 711.609 250.673C703.867 272.043 745.458 263.251 758.058 260.919C821.563 249.169 876.102 223.308 931.359 199.275C935.842 197.325 990.639 170.177 975.922 191.548C963.502 209.585 944.54 225.515 928.53 241.939C926.618 243.9 891.577 279.979 911.082 271.501C984.322 239.666 1047.71 192.509 1112.68 153.084C1168.5 119.206 1224.24 84.8869 1283.62 54.1507C1287.02 52.391 1314.83 35.4125 1309.09 50.7914C1300.59 73.5378 1278.46 93.2181 1266.17 114.955C1253.69 137.029 1258.65 148.989 1295.41 149.221C1352.94 149.583 1409.77 138.045 1466.12 131.416C1483.33 129.391 1517.61 123.204 1530.01 136.623C1544.18 151.946 1523.59 174.588 1519.4 189.869C1501.66 254.647 1859.84 151.196 1891 142.838" stroke="#171717" stroke-width="108" stroke-linecap="round"/>
</svg>
