<svg width="1440" height="362" viewBox="0 0 1440 362" fill="none" xmlns="http://www.w3.org/2000/svg">
<path opacity="0.1" d="M-91 193.892C-75.7847 187.761 -56.2199 184.398 -39.5991 180.072C41.1166 159.065 119.162 135.056 196.656 110.281C242.955 95.4784 289.309 81.0984 337.184 68.1291C337.379 68.0761 364.731 59.4886 361.941 64.1213C354.2 76.9761 337.462 90.3446 326.573 102.127C277.667 155.048 227.351 207.549 176.851 259.953C144.414 293.612 110.352 326.722 78.0571 360.425C67.269 371.684 54.9752 381.969 83.4801 368.855C242.384 295.752 391.901 215.221 546.088 138.75C578.558 122.646 611.651 105.385 648.89 93.0054C667.226 86.9098 654.182 100.01 650.305 104.2C636.674 118.93 621.143 133.075 605.742 147.18C598.477 153.833 566.238 178.897 603.148 163.764C673.409 134.959 735.926 100.044 806.63 71.5841C825.215 64.1031 850.522 54.0641 873.592 50.7157C923.861 43.4198 869.651 94.2538 867.698 96.5986C825.105 147.726 776.71 197.16 734.244 248.344C733.114 249.706 713.059 274.348 711.609 277.642C703.867 295.225 745.458 287.991 758.058 286.073C821.563 276.405 876.102 255.127 931.359 235.353C935.842 233.749 990.639 211.412 975.922 228.996C963.502 243.836 944.54 256.943 928.53 270.456C926.618 272.07 891.577 301.755 911.082 294.779C984.322 268.586 1047.71 229.786 1112.68 197.347C1168.5 169.473 1224.24 141.236 1283.62 115.947C1287.02 114.499 1314.83 100.529 1309.09 113.183C1300.59 131.898 1278.46 148.091 1266.17 165.976C1253.69 184.137 1258.65 193.978 1295.41 194.169C1352.94 194.467 1409.77 184.973 1466.12 179.519C1483.33 177.853 1517.61 172.763 1530.01 183.804C1544.18 196.411 1523.59 215.04 1519.4 227.614C1501.66 280.912 1859.84 195.794 1891 188.917" stroke="white" stroke-width="100" stroke-linecap="round"/>
</svg>
