<svg width="1440" height="363" viewBox="0 0 1440 363" fill="none" xmlns="http://www.w3.org/2000/svg">
<path d="M-185 183.49C-169.785 176.038 -150.22 171.951 -133.599 166.693C-52.8834 141.161 25.1622 111.982 102.656 81.8695C148.955 63.8792 195.309 46.402 243.184 30.6393C243.379 30.5748 270.731 20.1378 267.941 25.7682C260.2 41.3918 243.462 57.6397 232.573 71.9594C183.667 136.279 133.351 200.088 82.8506 263.779C50.4138 304.687 16.3522 344.929 -15.9429 385.891C-26.731 399.575 -39.0248 412.076 -10.5199 396.137C148.384 307.289 297.901 209.412 452.088 116.471C484.558 96.8986 517.651 75.9194 554.89 60.8735C573.226 53.4651 560.182 69.3869 556.305 74.4789C542.674 92.3817 527.143 109.574 511.742 126.717C504.477 134.803 472.238 165.264 509.148 146.873C579.409 111.864 641.926 69.4285 712.63 34.8385C731.215 25.7462 756.522 13.5449 779.592 9.47535C829.861 0.607947 775.651 62.3908 773.698 65.2407C731.105 127.38 682.71 187.461 640.244 249.669C639.114 251.325 619.059 281.275 617.609 285.279C609.867 306.649 651.458 297.856 664.058 295.525C727.563 283.774 782.102 257.913 837.359 233.88C841.842 231.931 896.639 204.783 881.922 226.154C869.502 244.191 850.54 260.121 834.53 276.544C832.618 278.506 797.577 314.585 817.082 306.107C890.322 274.271 953.709 227.115 1018.68 187.689C1074.5 153.811 1130.24 119.492 1189.62 88.7562C1193.02 86.9964 1220.83 70.018 1215.09 85.3968C1206.59 108.143 1184.46 127.824 1172.17 149.561C1159.69 171.634 1164.65 183.594 1201.41 183.826C1258.94 184.189 1315.77 172.65 1372.12 166.021C1389.33 163.997 1423.61 157.81 1436.01 171.228C1450.18 186.551 1429.59 209.193 1425.4 224.474C1407.66 289.253 1765.84 185.801 1797 177.443" stroke="#171717" stroke-width="17" stroke-linecap="round"/>
</svg>
