<svg width="117" height="111" viewBox="0 0 117 111" fill="none" xmlns="http://www.w3.org/2000/svg">
<path opacity="0.3" d="M0.419998 105.9L3.05999 85.44C9.51333 85.88 14.5 84.7067 18.02 81.92C21.54 79.1333 23.8867 75.2467 25.06 70.26C26.2333 65.2734 26.4533 59.6267 25.72 53.32H0.419998V0.300007H49.04V57.72C49.04 75.0267 44.9333 88.08 36.72 96.88C28.36 105.827 16.26 108.833 0.419998 105.9ZM68.18 105.9L70.82 85.44C77.2733 85.88 82.26 84.7067 85.78 81.92C89.3 79.1333 91.6467 75.2467 92.82 70.26C93.9933 65.2734 94.2133 59.6267 93.48 53.32H68.18V0.300007H116.8V57.72C116.8 75.0267 112.693 88.08 104.48 96.88C96.12 105.827 84.02 108.833 68.18 105.9Z" fill="#CCCCCC"/>
</svg>
