<svg width="130" height="12" viewBox="0 0 130 12" fill="none" xmlns="http://www.w3.org/2000/svg">
<path d="M2 7.00576C3.86889 6.28851 5.59095 5.53546 7.61491 4.86141C11.3351 3.62243 15.3692 2.397 19.6216 1.353C21.9639 0.777944 18.5139 1.65841 21.1241 1.2312C21.8716 1.10885 22.6452 1 23.4901 1C24.6067 1 22.9613 1.71366 22.7662 1.83231C18.3492 4.5175 17.642 5.48644 13.6536 8.24266C11.7645 9.54817 19.2514 8.72699 20.7164 8.4912C25.449 7.72943 29.7155 6.61044 33.6766 5.48564C35.3471 5.01127 37.6414 4.06473 39.7859 3.80946C40.6677 3.70449 40.2851 4.66376 40.2803 4.74581C40.1757 6.50278 38.931 8.26329 37.7377 9.97085C37.6998 10.025 36.8439 11.1535 37.3669 10.9823C41.9958 9.46709 45.9404 7.72764 50.5566 6.20235C51.7918 5.79422 55.2245 4.38607 57.4075 4.45103C58.9119 4.4958 59.0753 6.05219 59.3674 6.39887C59.8586 6.98176 60.247 7.79937 62.2102 8.04036C64.7824 8.35611 67.3909 7.73515 69.2023 7.20805C70.7328 6.76273 75.0412 4.91666 77.1656 5.89023C80.3735 7.36034 83.7667 7.38073 87.6539 6.01739C90.2261 5.11525 92.6541 4.07946 96.4647 3.7401C100.651 3.36725 104.326 4.20758 107.589 4.96545C111.324 5.83327 116.652 7.78916 121.838 7.64155C123.433 7.59613 126.691 7.01079 128 7.43925" stroke="url(#paint0_linear_564_58907)" stroke-width="2" stroke-linecap="square"/>
<defs>
<linearGradient id="paint0_linear_564_58907" x1="9.98" y1="4.05556" x2="123.702" y2="8.49703" gradientUnits="userSpaceOnUse">
<stop stop-color="#39B6D8"/>
<stop offset="0.5" stop-color="#F7D344"/>
<stop offset="1" stop-color="#E38330"/>
</linearGradient>
</defs>
</svg>
