<svg width="36" height="36" viewBox="0 0 36 36" fill="none" xmlns="http://www.w3.org/2000/svg">
<path d="M25.875 18H18V10.125H21.375C21.375 8.175 19.95 6.75 18 6.75C16.05 6.75 14.625 8.175 14.625 10.125H18V18H10.125V14.625C8.175 14.625 6.75 16.05 6.75 18C6.75 19.95 8.175 21.375 10.125 21.375V18H18V25.875H14.625C14.625 27.825 16.05 29.25 18 29.25C19.95 29.25 21.375 27.825 21.375 25.875H18V18H25.875V21.375C27.825 21.375 29.25 19.95 29.25 18C29.25 16.05 27.825 14.625 25.875 14.625V18Z" fill="#C5B64D"/>
</svg>
