<svg width="156" height="43" viewBox="0 0 156 43" fill="none" xmlns="http://www.w3.org/2000/svg">
<path d="M1.20125 25.0219L0.599586 25.8207L2.19708 27.024L2.79875 26.2253L1.20125 25.0219ZM8.81811 16.8318L8.04138 16.2019L8.81811 16.8318ZM21.1795 2.65323L21.8177 3.4231L21.1795 2.65323ZM25.2221 1.94791L25.7058 2.82315L25.2221 1.94791ZM27.2161 4.41246L28.1151 4.85043L27.2161 4.41246ZM16.1508 30.6949L17.0699 31.0888L16.1508 30.6949ZM24.727 31.7139L25.2045 32.5925L24.727 31.7139ZM40.4644 19.3911L39.7723 18.6693V18.6693L40.4644 19.3911ZM47.8828 12.5188L47.5099 11.5909L47.8828 12.5188ZM48.4832 16.3578L49.483 16.3754L48.4832 16.3578ZM45.3957 37.7805L46.375 37.9832L45.3957 37.7805ZM44.9455 41.9276L45.687 42.5985L44.9455 41.9276ZM60.9616 22.3296L61.7062 22.9971L60.9616 22.3296ZM69.2805 15.1492L69.3805 14.1542L69.2805 15.1492ZM71.6604 23.1353L70.6902 23.3775L71.6604 23.1353ZM75.1124 29.8655L74.7295 30.7893L75.1124 29.8655ZM83.6028 26.453L84.3037 27.1664L83.6028 26.453ZM93.2726 21.05L94.1124 20.5072L93.2726 21.05ZM106.008 21.5713L106.772 22.2165L106.008 21.5713ZM116.707 12.2344L116.995 13.1921L116.707 12.2344ZM130.215 17.2583L130.832 16.4715L130.215 17.2583ZM147.517 28.2303L147.475 29.2295L147.517 28.2303ZM2 25.6236C2.79875 26.2253 2.79876 26.2253 2.79878 26.2252C2.79881 26.2252 2.79885 26.2251 2.79891 26.2251C2.79902 26.2249 2.7992 26.2247 2.79943 26.2244C2.79991 26.2237 2.80063 26.2228 2.8016 26.2215C2.80352 26.2189 2.80642 26.2151 2.81028 26.21C2.81798 26.1998 2.82949 26.1845 2.84464 26.1644C2.87494 26.1243 2.9198 26.0648 2.97791 25.9879C3.09415 25.8341 3.26337 25.6105 3.47507 25.3315C3.89852 24.7734 4.49176 23.9939 5.17077 23.1087C6.53031 21.3362 8.22807 19.1471 9.59483 17.4616L8.04138 16.2019C6.65681 17.9094 4.94552 20.1162 3.58384 21.8914C2.90224 22.78 2.30683 23.5624 1.88177 24.1226C1.66923 24.4027 1.49924 24.6274 1.38232 24.7821C1.32386 24.8594 1.27867 24.9193 1.24805 24.9599C1.23274 24.9802 1.22108 24.9956 1.21323 25.0061C1.2093 25.0113 1.20632 25.0152 1.20432 25.0179C1.20332 25.0192 1.20256 25.0202 1.20205 25.0209C1.20179 25.0212 1.2016 25.0215 1.20147 25.0217C1.2014 25.0217 1.20135 25.0218 1.20131 25.0219C1.20128 25.0219 1.20125 25.0219 2 25.6236ZM9.59483 17.4616C14.2611 11.7072 16.7556 7.61932 21.8177 3.4231L20.5413 1.88335C15.2761 6.24798 12.5453 10.6477 8.04138 16.2019L9.59483 17.4616ZM21.8177 3.4231C22.1541 3.1442 22.3922 2.97354 22.5579 2.87316C22.7337 2.76668 22.7705 2.77506 22.714 2.78356C22.6078 2.79953 22.4489 2.77642 22.3122 2.68392C22.2348 2.63148 22.2032 2.57483 22.2856 2.68216C22.4059 2.83889 22.7728 3.3687 23.5363 3.45864C24.1733 3.53367 24.8835 3.27758 25.7058 2.82315L24.7384 1.07267C23.976 1.49402 23.744 1.46928 23.7703 1.47237C23.9231 1.49037 24.0107 1.64497 23.8721 1.46436C23.825 1.40302 23.669 1.18719 23.4333 1.02767C23.1385 0.828085 22.7876 0.750009 22.4167 0.805786C22.0954 0.854085 21.7949 0.99702 21.5217 1.16252C21.2384 1.33411 20.9159 1.57282 20.5413 1.88335L21.8177 3.4231ZM25.7058 2.82315C26.606 2.32565 27.3476 2 28.0951 2V0C26.7908 0 25.6536 0.566888 24.7384 1.07267L25.7058 2.82315ZM28.0951 2C28.0902 2 27.8969 1.99508 27.7212 1.80463C27.6423 1.71902 27.6013 1.6303 27.5815 1.56579C27.563 1.50522 27.5631 1.46647 27.5631 1.46357C27.5631 1.45975 27.5633 1.47457 27.5564 1.51201C27.5496 1.54848 27.5379 1.59726 27.519 1.6591C27.4807 1.78449 27.4213 1.93654 27.3423 2.1105C27.1839 2.45949 26.9749 2.83578 26.7798 3.17106C26.6133 3.45706 26.3976 3.80926 26.3171 3.9745L28.1151 4.85043C28.1144 4.8518 28.1166 4.84727 28.1233 4.83487C28.1297 4.82305 28.1383 4.80747 28.1497 4.78745C28.1727 4.74691 28.2021 4.69647 28.2388 4.63426C28.3095 4.51446 28.4069 4.35146 28.5084 4.17701C28.7121 3.82685 28.9623 3.38043 29.1635 2.93711C29.3463 2.53438 29.5625 1.98142 29.5631 1.466C29.5634 1.19092 29.5025 0.785962 29.1915 0.448724C28.8665 0.0963542 28.439 0 28.0951 0V2ZM26.3171 3.9745C20.9499 14.9913 20.0216 19.1243 15.2316 30.301L17.0699 31.0888C21.966 19.6645 22.7553 15.8522 28.1151 4.85043L26.3171 3.9745ZM15.2316 30.301C14.9124 31.0459 14.7407 31.7494 14.7907 32.3926C14.8442 33.0804 15.1503 33.6527 15.6694 34.0456C16.1502 34.4094 16.7367 34.5621 17.2836 34.6191C17.8407 34.6771 18.4454 34.6449 19.0433 34.5654C21.395 34.2529 24.2292 33.1226 25.2045 32.5925L24.2495 30.8353C23.446 31.272 20.8451 32.3084 18.7799 32.5829C18.2735 32.6502 17.8377 32.666 17.4909 32.6298C17.1339 32.5926 16.9532 32.5089 16.8764 32.4508C16.838 32.4218 16.7963 32.3864 16.7847 32.2376C16.7697 32.0442 16.8157 31.6821 17.0699 31.0888L15.2316 30.301ZM25.2045 32.5925C31.0767 29.4012 36.3383 24.7326 41.1565 20.1129L39.7723 18.6693C34.9707 23.273 29.871 27.7801 24.2495 30.8353L25.2045 32.5925ZM41.1565 20.1129C41.6941 19.5974 42.2718 18.9638 42.8571 18.3122C43.451 17.651 44.0576 16.9656 44.6832 16.3064C45.9628 14.958 47.178 13.8798 48.2558 13.4467L47.5099 11.5909C45.9837 12.2044 44.5039 13.5898 43.2324 14.9297C42.5824 15.6147 41.9495 16.3296 41.3692 16.9758C40.7802 17.6315 40.2489 18.2123 39.7723 18.6693L41.1565 20.1129ZM48.2558 13.4467C48.1174 13.5023 47.8496 13.5205 47.6181 13.3477C47.4674 13.2352 47.4531 13.1257 47.4828 13.2127C47.5356 13.3676 47.5787 13.6943 47.5869 14.1682C47.5947 14.6126 47.5716 15.09 47.5447 15.4881C47.5219 15.8257 47.4853 16.2273 47.4833 16.3402L49.483 16.3754C49.4828 16.3866 49.4828 16.3787 49.4865 16.3278C49.4896 16.2849 49.4941 16.2296 49.4998 16.1588C49.511 16.02 49.5259 15.8347 49.5402 15.6229C49.5686 15.2024 49.5959 14.6604 49.5866 14.1333C49.578 13.6358 49.5367 13.0389 49.3757 12.5669C49.2984 12.3404 49.1448 11.9916 48.8145 11.745C48.4035 11.4382 47.916 11.4277 47.5099 11.5909L48.2558 13.4467ZM47.4833 16.3402C47.3583 23.4336 45.8694 30.558 44.4165 37.5778L46.375 37.9832C47.8201 31.0011 49.3541 23.6892 49.483 16.3754L47.4833 16.3402ZM44.4165 37.5778C44.4165 37.5778 44.4165 37.578 44.4164 37.5783C44.4163 37.5787 44.4162 37.5792 44.4161 37.5798C44.4158 37.5812 44.4154 37.5829 44.4149 37.5851C44.414 37.5897 44.4127 37.5954 44.4112 37.6027C44.408 37.6172 44.404 37.6358 44.399 37.6589C44.389 37.7048 44.3756 37.7663 44.3596 37.8404C44.3276 37.9887 44.2852 38.1877 44.2374 38.4182C44.1423 38.8776 44.0253 39.468 43.9293 40.0332C43.8363 40.581 43.7527 41.1636 43.7418 41.5808C43.739 41.6891 43.7402 41.8102 43.7528 41.9298C43.7628 42.0238 43.7893 42.2289 43.9007 42.4351C43.9612 42.5473 44.0773 42.7168 44.2854 42.8446C44.5152 42.9858 44.7751 43.0253 45.0123 42.9851C45.3949 42.9203 45.6243 42.6678 45.687 42.5985L44.2039 41.2567C44.215 41.2445 44.2508 41.206 44.3119 41.1627C44.3688 41.1223 44.4939 41.0444 44.6784 41.0132C44.8884 40.9776 45.1239 41.0125 45.3322 41.1404C45.5188 41.255 45.6161 41.4027 45.6606 41.485C45.7062 41.5695 45.7249 41.6382 45.7318 41.6666C45.7396 41.6987 45.7416 41.7184 45.7417 41.7193C45.7417 41.7197 45.7395 41.6941 45.7411 41.6331C45.7479 41.3733 45.8079 40.9169 45.9011 40.3679C46.0833 39.2948 46.3471 38.1177 46.375 37.9832L44.4165 37.5778ZM45.687 42.5985C48.5262 39.4604 51.151 36.0953 53.7484 32.7583C56.3536 29.4114 58.9308 26.0935 61.7062 22.9971L60.217 21.6622C57.3869 24.8195 54.7665 28.1942 52.1702 31.5298C49.5661 34.8753 46.9856 38.1822 44.2039 41.2567L45.687 42.5985ZM61.7062 22.9971C62.0972 22.5609 62.6678 21.8513 63.2899 21.1042C63.9283 20.3375 64.6544 19.4893 65.4094 18.7061C66.1696 17.9175 66.9297 17.2258 67.6319 16.753C68.366 16.2586 68.8759 16.1136 69.1806 16.1442L69.3805 14.1542C68.3598 14.0517 67.3546 14.5285 66.5148 15.094C65.643 15.6811 64.7703 16.4873 63.9695 17.318C63.1636 18.154 62.4008 19.0463 61.7529 19.8244C61.0888 20.6221 60.5759 21.2617 60.217 21.6622L61.7062 22.9971ZM69.1806 16.1442C69.1005 16.1362 69.0929 16.0951 69.16 16.1673C69.2347 16.2477 69.3395 16.4052 69.4561 16.6734C69.6895 17.21 69.8806 17.9763 70.0382 18.8548C70.1936 19.7207 70.3057 20.6304 70.4031 21.434C70.4951 22.194 70.5822 22.9448 70.6902 23.3775L72.6307 22.8932C72.5613 22.6153 72.4905 22.0353 72.3885 21.1934C72.2918 20.395 72.1736 19.4314 72.0068 18.5015C71.8421 17.584 71.6189 16.6318 71.2902 15.8758C71.1258 15.4978 70.9126 15.1155 70.6255 14.8063C70.3307 14.4889 69.9173 14.2082 69.3805 14.1542L69.1806 16.1442ZM70.6902 23.3775C70.9672 24.4874 71.2632 26.0498 71.7842 27.3887C72.3121 28.7452 73.1633 30.1401 74.7295 30.7893L75.4953 28.9417C74.6776 28.6028 74.1011 27.8276 73.6481 26.6634C73.1882 25.4818 72.9501 24.1731 72.6307 22.8932L70.6902 23.3775ZM74.7295 30.7893C76.6576 31.5884 78.5499 31.168 80.1591 30.3456C81.7559 29.5294 83.1856 28.2648 84.3037 27.1664L82.902 25.7397C81.8204 26.8023 80.5666 27.8912 79.2489 28.5647C77.9436 29.2318 76.6906 29.4371 75.4953 28.9417L74.7295 30.7893ZM84.3037 27.1664C84.8037 26.6751 85.5324 25.7975 86.2871 24.9362C87.0739 24.0383 87.946 23.0883 88.8238 22.3242C89.7278 21.5373 90.5166 21.0571 91.1312 20.934C91.4119 20.8777 91.6214 20.9031 91.7932 20.9779C91.968 21.0541 92.1918 21.22 92.4327 21.5927L94.1124 20.5072C93.7084 19.882 93.2045 19.4113 92.5921 19.1444C91.9768 18.8763 91.3398 18.8524 90.7383 18.9729C89.5883 19.2034 88.4694 19.9811 87.5107 20.8157C86.5258 21.673 85.5803 22.7081 84.7829 23.6182C83.9534 24.5648 83.3312 25.3181 82.902 25.7397L84.3037 27.1664ZM92.4327 21.5927C94.4338 24.6892 96.6859 26.5728 99.2952 26.6664C101.881 26.7592 104.361 25.0722 106.772 22.2165L105.244 20.9261C102.936 23.6601 100.995 24.7261 99.3669 24.6677C97.7622 24.6101 96.0066 23.4382 94.1124 20.5072L92.4327 21.5927ZM106.772 22.2165C108.378 20.3154 109.834 18.4037 111.499 16.7463C113.143 15.1098 114.899 13.8222 116.995 13.1921L116.419 11.2768C113.888 12.038 111.856 13.5695 110.088 15.3288C108.342 17.0673 106.762 19.1284 105.244 20.9261L106.772 22.2165ZM116.995 13.1921C119.229 12.5202 121.355 12.9224 123.455 13.9124C125.583 14.9149 127.601 16.4794 129.597 18.0452L130.832 16.4715C128.867 14.93 126.674 13.2181 124.308 12.1033C121.916 10.976 119.269 10.4199 116.419 11.2768L116.995 13.1921ZM129.597 18.0452C130.672 18.8881 131.725 19.948 132.878 21.1222C134.016 22.281 135.243 23.541 136.613 24.7019C139.374 27.0424 142.771 29.031 147.475 29.2295L147.559 27.2312C143.444 27.0576 140.458 25.3393 137.906 23.1763C136.619 22.0855 135.458 20.8946 134.305 19.7207C133.167 18.5622 132.025 17.4076 130.832 16.4715L129.597 18.0452ZM147.475 29.2295C150.525 29.3581 152.385 29.1525 155.264 28.3655L154.736 26.4363C152.062 27.1674 150.408 27.3514 147.559 27.2312L147.475 29.2295Z" fill="url(#paint0_linear_864_72351)"/>
<defs>
<linearGradient id="paint0_linear_864_72351" x1="193.629" y1="-10.9033" x2="43.4337" y2="94.031" gradientUnits="userSpaceOnUse">
<stop stop-color="#39B6D8"/>
<stop offset="0.5" stop-color="#F7D344"/>
<stop offset="1" stop-color="#E38330"/>
</linearGradient>
</defs>
</svg>
