<svg width="107" height="10" viewBox="0 0 107 10" fill="none" xmlns="http://www.w3.org/2000/svg">
<path d="M2 5.80461C4.24737 5.23081 6.31817 4.62837 8.75201 4.08913C13.2256 3.09794 18.0767 2.1176 23.1903 1.2824C26.0069 0.822355 21.8582 1.52673 24.997 1.18496C25.8959 1.08708 26.8262 1 27.8422 1C29.1848 1 27.2063 1.57093 26.9716 1.66585C21.6602 3.814 20.8097 4.58915 16.0136 6.79413C13.7419 7.83853 22.7451 7.18159 24.5067 6.99296C30.1978 6.38354 35.3283 5.48835 40.0915 4.58851C42.1004 4.20901 44.8593 3.45178 47.4381 3.24757C48.4985 3.16359 48.0384 3.93101 48.0326 3.99665C47.9068 5.40222 46.41 6.81063 44.9751 8.17668C44.9295 8.22002 43.9002 9.12284 44.5292 8.98587C50.0955 7.77367 54.8389 6.38211 60.39 5.16188C61.8754 4.83537 66.0032 3.70886 68.6283 3.76083C70.4373 3.79664 70.6338 5.04175 70.9851 5.31909C71.5758 5.7854 72.0429 6.4395 74.4036 6.63229C77.4967 6.88489 80.6335 6.38812 82.8118 5.96644C84.6522 5.61018 89.8331 4.13333 92.3878 4.91219C96.2452 6.08827 100.326 6.10458 105 5.01391" stroke="url(#paint0_linear_136_5113)" stroke-width="2" stroke-linecap="square"/>
<defs>
<linearGradient id="paint0_linear_136_5113" x1="8.52333" y1="3.44445" x2="101.481" y2="7.15416" gradientUnits="userSpaceOnUse">
<stop stop-color="#39B6D8"/>
<stop offset="0.5" stop-color="#F7D344"/>
<stop offset="1" stop-color="#E38330"/>
</linearGradient>
</defs>
</svg>
