<svg width="1440" height="302" viewBox="0 0 1440 302" fill="none" xmlns="http://www.w3.org/2000/svg">
<path d="M-133.845 220.435C-133.845 219.505 -133.432 218.678 -132.605 217.955C-131.778 217.232 -130.538 216.715 -128.885 216.405L-117.725 214.855C-115.865 214.545 -114.263 213.977 -112.92 213.15C-111.577 212.323 -110.388 211.083 -109.355 209.43C-108.322 207.673 -107.34 205.4 -106.41 202.61C-104.963 197.133 -103.207 190.468 -101.14 182.615C-98.97 174.762 -96.5933 166.185 -94.01 156.885C-91.4267 147.585 -88.7917 137.923 -86.105 127.9C-83.315 117.773 -80.5767 107.75 -77.89 97.83C-75.2033 87.8067 -72.6717 78.2483 -70.295 69.155C-67.815 60.0617 -65.645 51.795 -63.785 44.355C-61.8217 36.915 -60.2717 30.715 -59.135 25.755C-58.4117 22.8617 -58.4633 20.7433 -59.29 19.4C-60.0133 17.9533 -61.7183 16.9716 -64.405 16.455L-75.41 14.595C-77.27 14.1817 -78.5617 13.7167 -79.285 13.2C-79.905 12.58 -80.215 11.805 -80.215 10.875C-80.215 9.63499 -79.75 8.70499 -78.82 8.085C-77.89 7.36166 -76.495 6.99999 -74.635 6.99999H2.55501C16.195 6.99999 28.595 9.37665 39.755 14.13C51.0183 18.78 60.4733 25.6517 68.12 34.745C75.7667 43.735 81.0367 54.7917 83.93 67.915C86.8233 80.935 86.875 95.815 84.085 112.555C81.0883 129.605 75.6633 145.002 67.81 158.745C60.06 172.385 50.2434 184.062 38.36 193.775C26.58 203.488 13.1467 210.98 -1.93999 216.25C-16.9233 221.417 -33.1467 224 -50.61 224H-129.195C-130.952 224 -132.192 223.69 -132.915 223.07C-133.535 222.347 -133.845 221.468 -133.845 220.435ZM-48.905 215.94C-37.3317 215.94 -26.3267 213.718 -15.89 209.275C-5.35 204.728 4.26001 198.063 12.94 189.28C21.62 180.393 29.06 169.44 35.26 156.42C41.5633 143.4 46.2133 128.417 49.21 111.47C52.2067 95.04 52.9817 80.78 51.535 68.69C50.1917 56.6 47.1433 46.5767 42.39 38.62C37.74 30.56 31.9017 24.5667 24.875 20.64C17.8483 16.61 10.15 14.595 1.78001 14.595H-13.1C-16.2 14.595 -18.835 15.5767 -21.005 17.54C-23.175 19.4 -24.9317 22.5 -26.275 26.84C-27.6183 32.0067 -29.3233 38.3617 -31.39 45.905C-33.4567 53.4483 -35.73 61.7667 -38.21 70.86C-40.69 79.85 -43.2733 89.2533 -45.96 99.07C-48.6467 108.783 -51.3333 118.548 -54.02 128.365C-56.7067 138.078 -59.2383 147.43 -61.615 156.42C-63.9917 165.41 -66.1617 173.677 -68.125 181.22C-69.985 188.66 -71.4833 194.963 -72.62 200.13C-73.7567 205.503 -73.55 209.482 -72 212.065C-70.45 214.648 -67.5567 215.94 -63.32 215.94H-48.905ZM105.131 112.555C104.408 112.142 104.046 111.47 104.046 110.54C104.149 109.507 104.563 108.215 105.286 106.665C108.386 101.705 112.003 97.4167 116.136 93.8C120.269 90.1833 124.713 87.3933 129.466 85.43C134.323 83.4667 139.231 82.485 144.191 82.485C149.254 82.485 153.129 83.725 155.816 86.205C158.503 88.5817 159.846 92.095 159.846 96.745C159.846 100.568 159.123 104.908 157.676 109.765C156.229 114.622 154.421 119.943 152.251 125.73C150.184 131.413 148.014 137.407 145.741 143.71C143.571 150.013 141.711 156.523 140.161 163.24L138.301 162.93C141.814 151.15 146.051 140.352 151.011 130.535C155.971 120.718 161.396 112.245 167.286 105.115C173.176 97.8817 179.221 92.3017 185.421 88.375C191.724 84.4483 197.976 82.485 204.176 82.485C210.893 82.485 215.904 84.5517 219.211 88.685C222.518 92.8183 224.016 98.0883 223.706 104.495C223.396 109.248 222.311 113.33 220.451 116.74C218.694 120.047 216.421 122.63 213.631 124.49C210.944 126.247 207.948 127.125 204.641 127.125C201.231 127.125 198.596 126.298 196.736 124.645C194.876 122.992 193.946 120.873 193.946 118.29C193.946 116.12 194.204 114.105 194.721 112.245C195.341 110.282 195.651 108.318 195.651 106.355C195.651 103.978 195.186 102.118 194.256 100.775C193.326 99.4317 191.776 98.76 189.606 98.76C185.266 98.76 180.203 101.55 174.416 107.13C168.629 112.607 162.688 120.873 156.591 131.93C150.598 142.883 145.018 156.627 139.851 173.16C137.784 179.877 136.131 185.405 134.891 189.745C133.754 194.085 133.186 197.96 133.186 201.37C133.186 203.643 133.651 205.452 134.581 206.795C135.511 208.035 136.441 209.172 137.371 210.205C138.404 211.238 138.921 212.633 138.921 214.39C138.921 216.353 137.733 218.317 135.356 220.28C133.083 222.243 129.828 223.845 125.591 225.085C121.354 226.325 116.446 226.945 110.866 226.945C106.836 226.945 103.891 226.067 102.031 224.31C100.171 222.553 99.2928 219.918 99.3961 216.405C99.4994 212.788 100.429 208.293 102.186 202.92L127.606 123.56C130.499 114.57 131.584 108.422 130.861 105.115C130.241 101.808 128.484 100.155 125.591 100.155C123.731 100.155 121.613 100.878 119.236 102.325C116.859 103.772 113.811 106.51 110.091 110.54C108.954 111.573 108.024 112.245 107.301 112.555C106.578 112.865 105.854 112.865 105.131 112.555ZM305.764 82.33C317.441 82.7433 327.361 85.7917 335.524 91.475C343.687 97.055 349.526 105.012 353.039 115.345C356.656 125.575 357.276 137.82 354.899 152.08C353.142 162.827 349.784 172.85 344.824 182.15C339.967 191.347 333.871 199.355 326.534 206.175C319.301 212.892 311.086 218.11 301.889 221.83C292.796 225.447 283.082 227.152 272.749 226.945C261.486 226.738 251.721 223.948 243.454 218.575C235.187 213.098 229.142 205.245 225.319 195.015C221.599 184.785 220.927 172.488 223.304 158.125C225.164 146.758 228.574 136.373 233.534 126.97C238.597 117.567 244.797 109.455 252.134 102.635C259.574 95.815 267.841 90.6483 276.934 87.135C286.027 83.6217 295.637 82.02 305.764 82.33ZM273.214 218.575C277.554 218.782 281.842 217.645 286.079 215.165C290.419 212.685 294.604 209.12 298.634 204.47C302.664 199.717 306.332 194.188 309.639 187.885C313.049 181.582 315.994 174.71 318.474 167.27C320.954 159.727 322.866 151.873 324.209 143.71C326.379 131.93 326.947 122.217 325.914 114.57C324.881 106.923 322.607 101.188 319.094 97.365C315.581 93.4383 311.137 91.2683 305.764 90.855C301.321 90.4417 296.929 91.475 292.589 93.955C288.249 96.3317 284.012 99.845 279.879 104.495C275.849 109.145 272.077 114.673 268.564 121.08C265.154 127.487 262.157 134.565 259.574 142.315C257.094 149.962 255.182 157.97 253.839 166.34C251.669 178.327 251.152 188.143 252.289 195.79C253.426 203.333 255.802 208.913 259.419 212.53C263.139 216.147 267.737 218.162 273.214 218.575ZM447.226 65.28L388.016 275.925C386.982 279.645 386.724 282.435 387.241 284.295C387.757 286.155 389.721 287.343 393.131 287.86L404.136 289.41C405.789 289.72 406.926 290.185 407.546 290.805C408.269 291.425 408.631 292.2 408.631 293.13C408.631 294.163 408.166 295.042 407.236 295.765C406.306 296.488 405.066 296.85 403.516 296.85L341.981 298.245C340.637 298.348 339.604 298.09 338.881 297.47C338.054 296.85 337.641 296.075 337.641 295.145C337.641 294.215 338.002 293.388 338.726 292.665C339.346 291.942 340.379 291.322 341.826 290.805C345.442 289.978 348.284 289.048 350.351 288.015C352.314 287.085 353.864 285.845 355.001 284.295C356.137 282.848 357.067 280.885 357.791 278.405L417.621 71.635C418.241 69.8783 419.222 68.1733 420.566 66.52C422.012 64.8667 423.717 63.3167 425.681 61.87C427.747 60.4233 429.866 59.1833 432.036 58.15C434.206 57.0133 436.221 56.135 438.081 55.515C439.941 54.895 441.439 54.585 442.576 54.585C445.056 54.585 446.657 55.4633 447.381 57.22C448.207 58.9767 448.156 61.6633 447.226 65.28ZM387.396 120.615C386.362 121.545 385.226 122.165 383.986 122.475C382.849 122.682 381.867 122.423 381.041 121.7C380.214 120.873 379.956 119.788 380.266 118.445C380.576 116.998 381.402 115.655 382.746 114.415C389.256 107.182 396.386 101.085 404.136 96.125C411.989 91.0617 420.462 87.29 429.556 84.81C438.752 82.33 448.569 81.3483 459.006 81.865C471.406 82.3817 481.687 85.4817 489.851 91.165C498.117 96.8483 504.007 104.753 507.521 114.88C511.034 125.007 511.912 137.148 510.156 151.305C508.192 166.598 503.387 180.032 495.741 191.605C488.094 203.075 478.639 211.91 467.376 218.11C456.216 224.31 444.229 227.203 431.416 226.79C422.012 226.583 414.262 224.568 408.166 220.745C402.069 216.922 397.626 211.652 394.836 204.935L401.191 201.99C403.671 206.847 406.874 210.567 410.801 213.15C414.831 215.63 419.481 217.025 424.751 217.335C432.914 217.645 440.664 215.32 448.001 210.36C455.441 205.297 461.899 197.65 467.376 187.42C472.956 177.087 476.934 164.273 479.311 148.98C481.274 136.27 481.429 125.678 479.776 117.205C478.122 108.628 475.074 102.118 470.631 97.675C466.187 93.1283 460.659 90.545 454.046 89.925C442.679 89.0983 431.364 91.165 420.101 96.125C408.837 100.982 397.936 109.145 387.396 120.615ZM569.853 219.505C576.673 219.505 582.304 217.593 586.748 213.77C591.191 209.947 593.413 205.038 593.413 199.045C593.413 195.945 592.741 192.897 591.398 189.9C590.158 186.8 587.833 183.39 584.423 179.67C581.013 175.847 576.156 171.3 569.853 166.03C562.826 160.243 557.298 155.18 553.268 150.84C549.238 146.5 546.344 142.263 544.588 138.13C542.934 133.997 542.159 129.398 542.263 124.335C542.469 116.792 544.898 109.817 549.548 103.41C554.198 97.0033 560.708 91.8883 569.078 88.065C577.551 84.1383 587.523 82.175 598.993 82.175C608.189 82.175 615.939 83.415 622.243 85.895C628.546 88.375 633.299 91.63 636.503 95.66C639.706 99.5867 641.359 103.823 641.463 108.37C641.463 112.09 640.584 114.983 638.828 117.05C637.071 119.117 634.694 120.15 631.698 120.15C628.701 120.15 626.118 119.168 623.948 117.205C621.778 115.138 619.711 111.47 617.748 106.2C615.371 100.517 612.374 96.28 608.758 93.49C605.141 90.7 600.801 89.305 595.738 89.305C588.194 89.305 582.046 91.475 577.293 95.815C572.539 100.155 570.163 105.683 570.163 112.4C570.163 115.913 570.783 119.323 572.023 122.63C573.263 125.833 575.691 129.502 579.308 133.635C582.924 137.665 588.246 142.677 595.273 148.67C602.299 154.457 607.724 159.52 611.548 163.86C615.474 168.2 618.161 172.333 619.608 176.26C621.158 180.083 621.829 184.372 621.623 189.125C621.416 196.462 618.988 202.972 614.338 208.655C609.688 214.338 603.281 218.833 595.118 222.14C586.954 225.343 577.448 226.945 566.598 226.945C556.988 226.945 548.721 225.498 541.798 222.605C534.978 219.712 529.811 215.992 526.298 211.445C522.784 206.795 521.028 201.938 521.028 196.875C521.028 193.568 521.803 190.882 523.353 188.815C525.006 186.645 527.279 185.56 530.173 185.56C533.376 185.56 536.114 186.697 538.388 188.97C540.661 191.14 542.831 194.808 544.898 199.975C548.308 207.105 552.028 212.168 556.058 215.165C560.191 218.058 564.789 219.505 569.853 219.505ZM691.603 150.53L689.898 149.91C697.648 133.48 706.121 120.357 715.318 110.54C724.618 100.723 733.918 93.5933 743.218 89.15C752.518 84.7067 761.043 82.485 768.793 82.485C776.336 82.485 781.709 84.19 784.913 87.6C788.116 91.01 789.563 95.8667 789.253 102.17C789.046 108.37 787.496 115.707 784.603 124.18L763.523 187.575C760.526 196.358 759.441 202.352 760.268 205.555C761.198 208.758 763.006 210.36 765.693 210.36C767.656 210.36 769.774 209.637 772.048 208.19C774.424 206.743 777.318 204.057 780.728 200.13C781.968 198.993 782.949 198.27 783.673 197.96C784.396 197.65 785.068 197.65 785.688 197.96C786.514 198.27 786.876 198.993 786.773 200.13C786.773 201.163 786.359 202.507 785.533 204.16C781.503 211.187 776.181 216.767 769.568 220.9C762.954 224.93 755.463 226.945 747.093 226.945C741.409 226.945 737.069 225.705 734.073 223.225C731.179 220.745 729.629 217.025 729.423 212.065C729.319 207.105 730.456 201.06 732.833 193.93L754.533 128.365C758.046 117.928 759.183 110.747 757.943 106.82C756.806 102.893 753.654 100.93 748.488 100.93C744.664 100.93 740.118 102.325 734.848 105.115C729.578 107.802 724.049 112.038 718.263 117.825C712.476 123.508 706.844 130.845 701.368 139.835C695.994 148.722 691.138 159.365 686.798 171.765C685.041 176.932 683.646 181.582 682.613 185.715C681.579 189.745 680.856 193.258 680.443 196.255C680.029 199.148 679.823 201.577 679.823 203.54C679.823 205.813 680.184 207.725 680.908 209.275C681.631 210.722 681.993 212.53 681.993 214.7C681.993 218.213 679.668 221.158 675.018 223.535C670.471 225.808 664.323 226.945 656.573 226.945C652.853 226.945 650.166 226.17 648.513 224.62C646.859 223.173 646.033 220.952 646.033 217.955C646.033 214.855 646.704 210.98 648.048 206.33L695.013 38.775C697.286 30.715 698.009 25.2383 697.183 22.345C696.459 19.3483 694.806 17.85 692.223 17.85C690.363 17.85 688.244 18.5217 685.868 19.865C683.594 21.105 680.804 23.43 677.498 26.84C676.361 27.8733 675.431 28.545 674.708 28.855C673.984 29.165 673.261 29.2167 672.538 29.01C671.814 28.5967 671.453 27.8733 671.453 26.84C671.556 25.8067 671.969 24.5667 672.693 23.12C675.586 18.47 678.996 14.44 682.923 11.03C686.953 7.51665 691.293 4.88165 695.943 3.12499C700.696 1.26499 705.553 0.334988 710.513 0.334988C718.469 0.334988 723.636 3.12499 726.013 8.70499C728.493 14.1817 728.131 22.4483 724.928 33.505L691.603 150.53ZM850.555 187.575C847.558 196.152 846.473 202.093 847.3 205.4C848.127 208.603 849.935 210.205 852.725 210.205C854.688 210.205 856.807 209.482 859.08 208.035C861.457 206.588 864.35 203.953 867.76 200.13C868.897 198.993 869.827 198.27 870.55 197.96C871.273 197.65 871.997 197.65 872.72 197.96C873.547 198.27 873.908 198.993 873.805 200.13C873.805 201.163 873.392 202.507 872.565 204.16C868.535 211.187 863.162 216.767 856.445 220.9C849.832 224.93 842.392 226.945 834.125 226.945C828.442 226.945 824.102 225.705 821.105 223.225C818.108 220.642 816.507 216.922 816.3 212.065C816.197 207.105 817.385 201.008 819.865 193.775L844.665 123.56C847.868 114.673 849.108 108.577 848.385 105.27C847.765 101.86 845.957 100.155 842.96 100.155C841.1 100.155 838.982 100.878 836.605 102.325C834.228 103.772 831.18 106.51 827.46 110.54C826.323 111.47 825.393 112.142 824.67 112.555C823.947 112.865 823.223 112.865 822.5 112.555C821.777 112.142 821.415 111.47 821.415 110.54C821.518 109.507 821.932 108.215 822.655 106.665C827.202 99.225 832.833 93.335 839.55 88.995C846.37 84.655 853.552 82.485 861.095 82.485C866.365 82.485 870.498 83.7767 873.495 86.36C876.595 88.84 878.352 92.6633 878.765 97.83C879.178 102.997 877.99 109.455 875.2 117.205L850.555 187.575ZM870.86 55.98C865.59 55.98 861.508 54.5333 858.615 51.64C855.825 48.7467 854.637 45.2333 855.05 41.1C855.257 37.2767 856.497 33.505 858.77 29.785C861.147 25.9617 864.247 22.81 868.07 20.33C871.893 17.7467 876.13 16.455 880.78 16.455C886.67 16.455 890.907 17.9017 893.49 20.795C896.073 23.6883 897.21 27.2533 896.9 31.49C896.693 35.6233 895.402 39.55 893.025 43.27C890.752 46.99 887.703 50.0383 883.88 52.415C880.057 54.7917 875.717 55.98 870.86 55.98ZM971.562 65.28L912.352 275.925C911.318 279.645 911.06 282.435 911.577 284.295C912.093 286.155 914.057 287.343 917.467 287.86L928.472 289.41C930.125 289.72 931.262 290.185 931.882 290.805C932.605 291.425 932.967 292.2 932.967 293.13C932.967 294.163 932.502 295.042 931.572 295.765C930.642 296.488 929.402 296.85 927.852 296.85L866.317 298.245C864.973 298.348 863.94 298.09 863.217 297.47C862.39 296.85 861.977 296.075 861.977 295.145C861.977 294.215 862.338 293.388 863.062 292.665C863.682 291.942 864.715 291.322 866.162 290.805C869.778 289.978 872.62 289.048 874.687 288.015C876.65 287.085 878.2 285.845 879.337 284.295C880.473 282.848 881.403 280.885 882.127 278.405L941.957 71.635C942.577 69.8783 943.558 68.1733 944.902 66.52C946.348 64.8667 948.053 63.3167 950.017 61.87C952.083 60.4233 954.202 59.1833 956.372 58.15C958.542 57.0133 960.557 56.135 962.417 55.515C964.277 54.895 965.775 54.585 966.912 54.585C969.392 54.585 970.993 55.4633 971.717 57.22C972.543 58.9767 972.492 61.6633 971.562 65.28ZM911.732 120.615C910.698 121.545 909.562 122.165 908.322 122.475C907.185 122.682 906.203 122.423 905.377 121.7C904.55 120.873 904.292 119.788 904.602 118.445C904.912 116.998 905.738 115.655 907.082 114.415C913.592 107.182 920.722 101.085 928.472 96.125C936.325 91.0617 944.798 87.29 953.892 84.81C963.088 82.33 972.905 81.3483 983.342 81.865C995.742 82.3817 1006.02 85.4817 1014.19 91.165C1022.45 96.8483 1028.34 104.753 1031.86 114.88C1035.37 125.007 1036.25 137.148 1034.49 151.305C1032.53 166.598 1027.72 180.032 1020.08 191.605C1012.43 203.075 1002.98 211.91 991.712 218.11C980.552 224.31 968.565 227.203 955.752 226.79C946.348 226.583 938.598 224.568 932.502 220.745C926.405 216.922 921.962 211.652 919.172 204.935L925.527 201.99C928.007 206.847 931.21 210.567 935.137 213.15C939.167 215.63 943.817 217.025 949.087 217.335C957.25 217.645 965 215.32 972.337 210.36C979.777 205.297 986.235 197.65 991.712 187.42C997.292 177.087 1001.27 164.273 1003.65 148.98C1005.61 136.27 1005.77 125.678 1004.11 117.205C1002.46 108.628 999.41 102.118 994.967 97.675C990.523 93.1283 984.995 90.545 978.382 89.925C967.015 89.0983 955.7 91.165 944.437 96.125C933.173 100.982 922.272 109.145 911.732 120.615ZM1127.47 65.28L1068.26 275.925C1067.23 279.645 1066.97 282.435 1067.48 284.295C1068 286.155 1069.96 287.343 1073.37 287.86L1084.38 289.41C1086.03 289.72 1087.17 290.185 1087.79 290.805C1088.51 291.425 1088.87 292.2 1088.87 293.13C1088.87 294.163 1088.41 295.042 1087.48 295.765C1086.55 296.488 1085.31 296.85 1083.76 296.85L1022.22 298.245C1020.88 298.348 1019.85 298.09 1019.12 297.47C1018.3 296.85 1017.88 296.075 1017.88 295.145C1017.88 294.215 1018.25 293.388 1018.97 292.665C1019.59 291.942 1020.62 291.322 1022.07 290.805C1025.69 289.978 1028.53 289.048 1030.59 288.015C1032.56 287.085 1034.11 285.845 1035.24 284.295C1036.38 282.848 1037.31 280.885 1038.03 278.405L1097.86 71.635C1098.48 69.8783 1099.47 68.1733 1100.81 66.52C1102.26 64.8667 1103.96 63.3167 1105.92 61.87C1107.99 60.4233 1110.11 59.1833 1112.28 58.15C1114.45 57.0133 1116.46 56.135 1118.32 55.515C1120.18 54.895 1121.68 54.585 1122.82 54.585C1125.3 54.585 1126.9 55.4633 1127.62 57.22C1128.45 58.9767 1128.4 61.6633 1127.47 65.28ZM1067.64 120.615C1066.61 121.545 1065.47 122.165 1064.23 122.475C1063.09 122.682 1062.11 122.423 1061.28 121.7C1060.46 120.873 1060.2 119.788 1060.51 118.445C1060.82 116.998 1061.65 115.655 1062.99 114.415C1069.5 107.182 1076.63 101.085 1084.38 96.125C1092.23 91.0617 1100.71 87.29 1109.8 84.81C1119 82.33 1128.81 81.3483 1139.25 81.865C1151.65 82.3817 1161.93 85.4817 1170.09 91.165C1178.36 96.8483 1184.25 104.753 1187.76 114.88C1191.28 125.007 1192.16 137.148 1190.4 151.305C1188.44 166.598 1183.63 180.032 1175.98 191.605C1168.34 203.075 1158.88 211.91 1147.62 218.11C1136.46 224.31 1124.47 227.203 1111.66 226.79C1102.26 226.583 1094.51 224.568 1088.41 220.745C1082.31 216.922 1077.87 211.652 1075.08 204.935L1081.43 201.99C1083.91 206.847 1087.12 210.567 1091.04 213.15C1095.07 215.63 1099.72 217.025 1104.99 217.335C1113.16 217.645 1120.91 215.32 1128.24 210.36C1135.68 205.297 1142.14 197.65 1147.62 187.42C1153.2 177.087 1157.18 164.273 1159.55 148.98C1161.52 136.27 1161.67 125.678 1160.02 117.205C1158.37 108.628 1155.32 102.118 1150.87 97.675C1146.43 93.1283 1140.9 90.545 1134.29 89.925C1122.92 89.0983 1111.61 91.165 1100.34 96.125C1089.08 100.982 1078.18 109.145 1067.64 120.615ZM1246.23 187.575C1243.23 196.152 1242.15 202.093 1242.97 205.4C1243.8 208.603 1245.61 210.205 1248.4 210.205C1250.36 210.205 1252.48 209.482 1254.75 208.035C1257.13 206.588 1260.02 203.953 1263.43 200.13C1264.57 198.993 1265.5 198.27 1266.22 197.96C1266.95 197.65 1267.67 197.65 1268.39 197.96C1269.22 198.27 1269.58 198.993 1269.48 200.13C1269.48 201.163 1269.07 202.507 1268.24 204.16C1264.21 211.187 1258.84 216.767 1252.12 220.9C1245.51 224.93 1238.07 226.945 1229.8 226.945C1224.12 226.945 1219.78 225.705 1216.78 223.225C1213.78 220.642 1212.18 216.922 1211.97 212.065C1211.87 207.105 1213.06 201.008 1215.54 193.775L1240.34 123.56C1243.54 114.673 1244.78 108.577 1244.06 105.27C1243.44 101.86 1241.63 100.155 1238.63 100.155C1236.77 100.155 1234.66 100.878 1232.28 102.325C1229.9 103.772 1226.85 106.51 1223.13 110.54C1222 111.47 1221.07 112.142 1220.34 112.555C1219.62 112.865 1218.9 112.865 1218.17 112.555C1217.45 112.142 1217.09 111.47 1217.09 110.54C1217.19 109.507 1217.61 108.215 1218.33 106.665C1222.88 99.225 1228.51 93.335 1235.22 88.995C1242.04 84.655 1249.23 82.485 1256.77 82.485C1262.04 82.485 1266.17 83.7767 1269.17 86.36C1272.27 88.84 1274.03 92.6633 1274.44 97.83C1274.85 102.997 1273.66 109.455 1270.87 117.205L1246.23 187.575ZM1266.53 55.98C1261.26 55.98 1257.18 54.5333 1254.29 51.64C1251.5 48.7467 1250.31 45.2333 1250.72 41.1C1250.93 37.2767 1252.17 33.505 1254.44 29.785C1256.82 25.9617 1259.92 22.81 1263.74 20.33C1267.57 17.7467 1271.8 16.455 1276.45 16.455C1282.34 16.455 1286.58 17.9017 1289.16 20.795C1291.75 23.6883 1292.88 27.2533 1292.57 31.49C1292.37 35.6233 1291.08 39.55 1288.7 43.27C1286.43 46.99 1283.38 50.0383 1279.55 52.415C1275.73 54.7917 1271.39 55.98 1266.53 55.98ZM1304.73 112.555C1303.91 112.142 1303.49 111.47 1303.49 110.54C1303.6 109.507 1304.06 108.215 1304.89 106.665C1309.44 99.225 1315.17 93.335 1322.09 88.995C1329.02 84.655 1336.35 82.485 1344.1 82.485C1349.27 82.485 1353.3 83.6733 1356.19 86.05C1359.09 88.4267 1360.53 91.9917 1360.53 96.745C1360.53 99.9483 1359.91 103.772 1358.67 108.215C1357.43 112.555 1355.78 117.412 1353.71 122.785C1351.65 128.055 1349.37 133.738 1346.89 139.835C1344.52 145.828 1342.19 152.132 1339.92 158.745L1339.3 155.18C1345.09 141.54 1351.44 130.07 1358.36 120.77C1365.29 111.47 1372.37 104.03 1379.6 98.45C1386.83 92.87 1393.91 88.84 1400.83 86.36C1407.76 83.7767 1414.01 82.485 1419.59 82.485C1427.24 82.485 1432.66 84.19 1435.86 87.6C1439.07 91.01 1440.51 95.8667 1440.2 102.17C1440 108.37 1438.45 115.707 1435.55 124.18L1414.47 187.575C1411.48 196.358 1410.39 202.352 1411.22 205.555C1412.15 208.758 1413.96 210.36 1416.64 210.36C1418.61 210.36 1420.73 209.637 1423 208.19C1425.38 206.743 1428.27 204.057 1431.68 200.13C1432.82 198.993 1433.75 198.27 1434.47 197.96C1435.19 197.65 1435.92 197.65 1436.64 197.96C1437.47 198.27 1437.83 198.993 1437.72 200.13C1437.72 201.163 1437.31 202.507 1436.48 204.16C1432.45 211.187 1427.13 216.767 1420.52 220.9C1413.91 224.93 1406.41 226.945 1398.04 226.945C1392.36 226.945 1388.02 225.705 1385.02 223.225C1382.13 220.745 1380.58 217.077 1380.37 212.22C1380.17 207.26 1381.25 201.163 1383.63 193.93L1405.48 128.365C1409 118.032 1410.13 110.902 1408.89 106.975C1407.76 102.945 1404.61 100.93 1399.44 100.93C1395.62 100.93 1391.07 102.325 1385.8 105.115C1380.63 107.802 1375.16 112.038 1369.37 117.825C1363.69 123.508 1358.11 130.845 1352.63 139.835C1347.26 148.722 1342.45 159.365 1338.21 171.765C1336.04 178.172 1334.34 183.442 1333.1 187.575C1331.86 191.605 1330.98 194.86 1330.46 197.34C1330.05 199.717 1329.84 201.732 1329.84 203.385C1329.84 205.658 1330.21 207.518 1330.93 208.965C1331.76 210.412 1332.17 212.22 1332.17 214.39C1332.17 218.11 1329.9 221.158 1325.35 223.535C1320.91 225.808 1314.86 226.945 1307.21 226.945C1301.43 226.945 1297.97 225.137 1296.83 221.52C1295.69 217.8 1296.47 212.117 1299.15 204.47L1326.9 123.56C1330 114.57 1331.19 108.422 1330.46 105.115C1329.84 101.808 1328.09 100.155 1325.19 100.155C1323.33 100.155 1321.16 100.878 1318.68 102.325C1316.31 103.772 1313.31 106.51 1309.69 110.54C1308.56 111.47 1307.63 112.142 1306.9 112.555C1306.18 112.865 1305.46 112.865 1304.73 112.555ZM1567.47 222.14C1563.13 240.327 1556.26 255.258 1546.86 266.935C1537.56 278.612 1526.14 287.24 1512.6 292.82C1499.06 298.4 1483.87 301.19 1467.03 301.19C1456.59 301.19 1448.79 299.588 1443.63 296.385C1438.36 293.182 1435.72 289.1 1435.72 284.14C1435.72 280.73 1436.96 277.837 1439.44 275.46C1441.92 273.083 1445.33 271.895 1449.67 271.895C1453.39 271.895 1456.85 272.773 1460.06 274.53C1463.26 276.39 1466.41 278.508 1469.51 280.885C1472.71 283.262 1475.87 285.328 1478.97 287.085C1482.17 288.945 1485.53 289.875 1489.04 289.875C1495.03 289.875 1500.77 288.377 1506.25 285.38C1511.83 282.487 1516.89 277.733 1521.44 271.12C1525.98 264.507 1529.6 255.775 1532.29 244.925L1554.61 158.59L1557.86 160.605C1552.07 175.278 1545.51 187.575 1538.18 197.495C1530.94 207.312 1523.19 214.7 1514.93 219.66C1506.66 224.517 1498.13 226.945 1489.35 226.945C1482.94 226.945 1477.31 225.498 1472.46 222.605C1467.6 219.608 1463.98 215.01 1461.61 208.81C1459.23 202.507 1458.51 194.343 1459.44 184.32C1460.37 173.78 1462.85 163.498 1466.88 153.475C1471.01 143.452 1476.38 134.152 1483 125.575C1489.61 116.998 1497.26 109.507 1505.94 103.1C1514.72 96.59 1524.28 91.5267 1534.61 87.91C1544.94 84.2933 1555.85 82.485 1567.32 82.485C1574.76 82.485 1581.11 83.0017 1586.38 84.035C1591.75 85.0683 1595.84 86.4117 1598.63 88.065C1601.52 89.7183 1602.91 91.475 1602.81 93.335C1602.71 94.9883 1602.14 96.2283 1601.11 97.055C1600.07 97.8817 1598.99 98.76 1597.85 99.69C1596.82 100.517 1596.09 101.808 1595.68 103.565L1567.47 222.14ZM1489.97 182.77C1489.25 190.623 1489.45 196.72 1490.59 201.06C1491.83 205.4 1493.64 208.448 1496.02 210.205C1498.5 211.962 1501.13 212.84 1503.92 212.84C1508.88 212.84 1514.05 210.67 1519.42 206.33C1524.79 201.99 1530.06 196.152 1535.23 188.815C1540.4 181.478 1545.15 173.212 1549.49 164.015C1553.83 154.715 1557.45 145.105 1560.34 135.185C1563.34 125.162 1565.3 115.448 1566.23 106.045C1566.95 101.085 1566.8 97.365 1565.77 94.885C1564.73 92.3017 1562.51 91.01 1559.1 91.01C1552.9 91.01 1546.7 92.715 1540.5 96.125C1534.3 99.4317 1528.31 104.082 1522.52 110.075C1516.84 115.965 1511.67 122.837 1507.02 130.69C1502.47 138.44 1498.7 146.758 1495.71 155.645C1492.71 164.532 1490.8 173.573 1489.97 182.77ZM1835.68 162C1836.71 162.517 1837.28 163.447 1837.38 164.79C1837.49 166.133 1836.92 167.942 1835.68 170.215C1829.68 182.718 1822.3 193.258 1813.51 201.835C1804.73 210.308 1794.81 216.663 1783.75 220.9C1772.8 225.137 1760.92 227.255 1748.1 227.255C1732.19 227.255 1718.45 223.38 1706.87 215.63C1695.3 207.777 1686.98 196.255 1681.92 181.065C1676.85 165.875 1676.18 147.223 1679.9 125.11C1682.69 108.473 1687.81 92.8183 1695.25 78.145C1702.69 63.3683 1711.83 50.4 1722.68 39.24C1733.64 27.9767 1745.83 19.1933 1759.26 12.89C1772.7 6.58665 1786.8 3.43498 1801.58 3.43498C1808.5 3.43498 1814.34 4.26165 1819.09 5.91499C1823.85 7.46499 1827.77 9.32499 1830.87 11.495C1833.97 13.665 1836.4 15.5767 1838.16 17.23C1839.91 18.78 1841.26 19.555 1842.19 19.555C1843.32 19.555 1844.62 18.78 1846.06 17.23C1847.61 15.5767 1849.16 13.7167 1850.71 11.65C1852.37 9.58332 1853.92 7.77498 1855.36 6.22499C1856.91 4.57165 1858.2 3.74498 1859.24 3.74498C1860.58 3.74498 1861.61 4.15832 1862.34 4.98498C1863.06 5.81165 1863.47 7.05165 1863.58 8.70499V63.885C1863.58 65.435 1863.11 66.6233 1862.18 67.45C1861.36 68.1733 1860.32 68.5867 1859.08 68.69C1856.81 68.7933 1855.16 67.3467 1854.12 64.35L1850.09 51.175C1846.06 37.225 1840.28 27.305 1832.73 21.415C1825.29 15.4217 1816.15 12.425 1805.3 12.425C1794.45 12.425 1784.27 15.2667 1774.76 20.95C1765.26 26.53 1756.58 34.3317 1748.72 44.355C1740.97 54.275 1734.36 65.8483 1728.88 79.075C1723.51 92.3017 1719.53 106.51 1716.95 121.7C1713.23 143.4 1712.87 160.967 1715.86 174.4C1718.96 187.833 1724.54 197.65 1732.6 203.85C1740.77 209.947 1750.48 212.995 1761.74 212.995C1769.8 212.995 1777.76 211.445 1785.61 208.345C1793.57 205.245 1801.16 200.233 1808.4 193.31C1815.63 186.387 1822.24 177.242 1828.24 165.875C1829.68 164.222 1830.98 163.033 1832.11 162.31C1833.35 161.587 1834.54 161.483 1835.68 162ZM1904.05 150.53L1902.35 149.91C1910.1 133.48 1918.57 120.357 1927.77 110.54C1937.07 100.723 1946.37 93.5933 1955.67 89.15C1964.97 84.7067 1973.49 82.485 1981.24 82.485C1988.79 82.485 1994.16 84.19 1997.36 87.6C2000.57 91.01 2002.01 95.8667 2001.7 102.17C2001.5 108.37 1999.95 115.707 1997.05 124.18L1975.97 187.575C1972.98 196.358 1971.89 202.352 1972.72 205.555C1973.65 208.758 1975.46 210.36 1978.14 210.36C1980.11 210.36 1982.23 209.637 1984.5 208.19C1986.88 206.743 1989.77 204.057 1993.18 200.13C1994.42 198.993 1995.4 198.27 1996.12 197.96C1996.85 197.65 1997.52 197.65 1998.14 197.96C1998.97 198.27 1999.33 198.993 1999.22 200.13C1999.22 201.163 1998.81 202.507 1997.98 204.16C1993.95 211.187 1988.63 216.767 1982.02 220.9C1975.41 224.93 1967.91 226.945 1959.54 226.945C1953.86 226.945 1949.52 225.705 1946.52 223.225C1943.63 220.745 1942.08 217.025 1941.87 212.065C1941.77 207.105 1942.91 201.06 1945.28 193.93L1966.98 128.365C1970.5 117.928 1971.63 110.747 1970.39 106.82C1969.26 102.893 1966.11 100.93 1960.94 100.93C1957.12 100.93 1952.57 102.325 1947.3 105.115C1942.03 107.802 1936.5 112.038 1930.71 117.825C1924.93 123.508 1919.3 130.845 1913.82 139.835C1908.45 148.722 1903.59 159.365 1899.25 171.765C1897.49 176.932 1896.1 181.582 1895.06 185.715C1894.03 189.745 1893.31 193.258 1892.89 196.255C1892.48 199.148 1892.27 201.577 1892.27 203.54C1892.27 205.813 1892.64 207.725 1893.36 209.275C1894.08 210.722 1894.44 212.53 1894.44 214.7C1894.44 218.213 1892.12 221.158 1887.47 223.535C1882.92 225.808 1876.77 226.945 1869.02 226.945C1865.3 226.945 1862.62 226.17 1860.96 224.62C1859.31 223.173 1858.48 220.952 1858.48 217.955C1858.48 214.855 1859.16 210.98 1860.5 206.33L1907.46 38.775C1909.74 30.715 1910.46 25.2383 1909.63 22.345C1908.91 19.3483 1907.26 17.85 1904.67 17.85C1902.81 17.85 1900.7 18.5217 1898.32 19.865C1896.05 21.105 1893.26 23.43 1889.95 26.84C1888.81 27.8733 1887.88 28.545 1887.16 28.855C1886.44 29.165 1885.71 29.2167 1884.99 29.01C1884.27 28.5967 1883.9 27.8733 1883.9 26.84C1884.01 25.8067 1884.42 24.5667 1885.14 23.12C1888.04 18.47 1891.45 14.44 1895.37 11.03C1899.4 7.51665 1903.74 4.88165 1908.39 3.12499C1913.15 1.26499 1918 0.334988 1922.96 0.334988C1930.92 0.334988 1936.09 3.12499 1938.46 8.70499C1940.94 14.1817 1940.58 22.4483 1937.38 33.505L1904.05 150.53ZM2136.03 186.18C2133.66 195.79 2132.73 202.248 2133.24 205.555C2133.76 208.758 2135.41 210.36 2138.2 210.36C2140.17 210.36 2142.28 209.637 2144.56 208.19C2146.83 206.743 2149.67 204.108 2153.08 200.285C2154.22 199.148 2155.15 198.425 2155.87 198.115C2156.6 197.805 2157.32 197.805 2158.04 198.115C2158.87 198.425 2159.23 199.148 2159.13 200.285C2159.13 201.318 2158.71 202.662 2157.89 204.315C2153.86 211.238 2148.54 216.767 2141.92 220.9C2135.41 224.93 2128.44 226.945 2121 226.945C2115.52 226.945 2111.39 225.602 2108.6 222.915C2105.91 220.228 2104.57 216.25 2104.57 210.98C2104.57 208.81 2104.77 206.227 2105.19 203.23C2105.7 200.13 2106.48 196.358 2107.51 191.915C2108.55 187.472 2109.94 182.15 2111.7 175.95C2113.56 169.647 2115.78 162.207 2118.36 153.63L2120.53 156.73C2115.06 171.3 2108.65 183.855 2101.31 194.395C2094.08 204.832 2086.17 212.892 2077.6 218.575C2069.12 224.155 2060.24 226.945 2050.94 226.945C2040.5 226.945 2032.54 223.225 2027.07 215.785C2021.59 208.345 2019.78 196.617 2021.64 180.6C2022.68 170.577 2025.31 160.76 2029.55 151.15C2033.78 141.54 2039.26 132.602 2045.98 124.335C2052.69 116.068 2060.39 108.835 2069.07 102.635C2077.86 96.3317 2087.26 91.4233 2097.28 87.91C2107.41 84.2933 2117.9 82.485 2128.75 82.485C2136.5 82.485 2143.06 83.0533 2148.43 84.19C2153.81 85.3267 2157.89 86.7733 2160.68 88.53C2163.57 90.1833 2164.97 91.9917 2164.86 93.955C2164.66 95.505 2164.04 96.745 2163 97.675C2161.97 98.5017 2160.88 99.38 2159.75 100.31C2158.61 101.24 2157.84 102.532 2157.42 104.185L2136.03 186.18ZM2051.87 181.84C2050.42 193.103 2051.04 201.163 2053.73 206.02C2056.52 210.773 2060.29 213.15 2065.04 213.15C2069.28 213.15 2073.72 211.497 2078.37 208.19C2083.13 204.883 2087.88 200.078 2092.63 193.775C2097.49 187.472 2102.19 179.928 2106.74 171.145C2111.28 162.362 2115.47 152.493 2119.29 141.54C2123.12 130.587 2126.42 118.807 2129.21 106.2C2130.35 101.033 2130.35 97.21 2129.21 94.73C2128.18 92.1467 2125.85 90.855 2122.24 90.855C2115.83 90.855 2109.42 92.56 2103.02 95.97C2096.71 99.38 2090.72 104.082 2085.04 110.075C2079.35 115.965 2074.19 122.785 2069.54 130.535C2064.99 138.182 2061.17 146.397 2058.07 155.18C2054.97 163.963 2052.9 172.85 2051.87 181.84ZM2259.4 33.66L2214.6 185.87C2211.71 195.583 2210.68 202.042 2211.5 205.245C2212.33 208.448 2214.35 210.05 2217.55 210.05C2220.34 210.05 2223.28 209.12 2226.38 207.26C2229.59 205.4 2232.95 202.352 2236.46 198.115C2237.39 197.082 2238.16 196.41 2238.78 196.1C2239.4 195.79 2240.02 195.738 2240.64 195.945C2241.47 196.255 2241.94 196.927 2242.04 197.96C2242.25 198.993 2241.94 200.337 2241.11 201.99C2238.73 206.847 2235.37 211.135 2231.03 214.855C2226.8 218.575 2221.89 221.52 2216.31 223.69C2210.73 225.86 2204.79 226.945 2198.48 226.945C2192.49 226.945 2188 225.757 2185 223.38C2182.11 220.9 2180.56 217.128 2180.35 212.065C2180.14 207.002 2181.23 200.595 2183.6 192.845L2229.02 38.775C2231.5 30.715 2232.33 25.2383 2231.5 22.345C2230.67 19.3483 2228.92 17.85 2226.23 17.85C2224.37 17.85 2222.3 18.5217 2220.03 19.865C2217.76 21.105 2214.91 23.43 2211.5 26.84C2210.47 27.8733 2209.54 28.545 2208.71 28.855C2207.99 29.165 2207.27 29.2167 2206.54 29.01C2205.82 28.5967 2205.46 27.8733 2205.46 26.84C2205.56 25.8067 2206.03 24.5667 2206.85 23.12C2209.64 18.47 2213.05 14.44 2217.08 11.03C2221.11 7.51665 2225.45 4.88165 2230.1 3.12499C2234.86 1.26499 2239.71 0.334988 2244.67 0.334988C2250.15 0.334988 2254.34 1.57499 2257.23 4.055C2260.12 6.53499 2261.72 10.255 2262.03 15.215C2262.45 20.0717 2261.57 26.22 2259.4 33.66ZM2345.68 33.66L2300.88 185.87C2297.99 195.583 2296.96 202.042 2297.78 205.245C2298.61 208.448 2300.62 210.05 2303.83 210.05C2306.62 210.05 2309.56 209.12 2312.66 207.26C2315.87 205.4 2319.22 202.352 2322.74 198.115C2323.67 197.082 2324.44 196.41 2325.06 196.1C2325.68 195.79 2326.3 195.738 2326.92 195.945C2327.75 196.255 2328.21 196.927 2328.32 197.96C2328.52 198.993 2328.21 200.337 2327.39 201.99C2325.01 206.847 2321.65 211.135 2317.31 214.855C2313.08 218.575 2308.17 221.52 2302.59 223.69C2297.01 225.86 2291.07 226.945 2284.76 226.945C2278.77 226.945 2274.27 225.757 2271.28 223.38C2268.38 220.9 2266.83 217.128 2266.63 212.065C2266.42 207.002 2267.51 200.595 2269.88 192.845L2315.3 38.775C2317.78 30.715 2318.6 25.2383 2317.78 22.345C2316.95 19.3483 2315.19 17.85 2312.51 17.85C2310.65 17.85 2308.58 18.5217 2306.31 19.865C2304.03 21.105 2301.19 23.43 2297.78 26.84C2296.75 27.8733 2295.82 28.545 2294.99 28.855C2294.27 29.165 2293.55 29.2167 2292.82 29.01C2292.1 28.5967 2291.74 27.8733 2291.74 26.84C2291.84 25.8067 2292.31 24.5667 2293.13 23.12C2295.92 18.47 2299.33 14.44 2303.36 11.03C2307.39 7.51665 2311.73 4.88165 2316.38 3.12499C2321.14 1.26499 2325.99 0.334988 2330.95 0.334988C2336.43 0.334988 2340.61 1.57499 2343.51 4.055C2346.4 6.53499 2348 10.255 2348.31 15.215C2348.73 20.0717 2347.85 26.22 2345.68 33.66ZM2367.32 159.365C2367.32 159.365 2369.29 158.642 2373.21 157.195C2377.14 155.645 2382.2 153.733 2388.4 151.46C2394.71 149.083 2401.37 146.603 2408.4 144.02C2415.42 141.333 2422.09 138.802 2428.39 136.425C2434.8 134.048 2440.02 132.137 2444.05 130.69L2440.79 134.565C2441.62 132.292 2442.29 129.553 2442.81 126.35C2443.32 123.043 2443.63 119.065 2443.74 114.415C2443.74 107.285 2442.34 101.447 2439.55 96.9C2436.87 92.3533 2433.25 90.08 2428.7 90.08C2423.85 90.08 2418.94 91.8883 2413.98 95.505C2409.02 99.0183 2404.32 104.03 2399.87 110.54C2395.53 116.947 2391.76 124.593 2388.56 133.48C2385.46 142.367 2383.34 152.132 2382.2 162.775C2380.65 178.378 2382.62 190.21 2388.09 198.27C2393.57 206.33 2401.63 210.36 2412.27 210.36C2418.58 210.36 2424.57 209.12 2430.25 206.64C2435.94 204.057 2441.1 200.337 2445.75 195.48C2450.51 190.52 2454.43 184.372 2457.53 177.035C2458.46 175.485 2459.29 174.452 2460.01 173.935C2460.84 173.418 2461.72 173.16 2462.65 173.16C2463.68 173.263 2464.46 173.78 2464.97 174.71C2465.59 175.64 2465.64 177.138 2465.13 179.205C2462.44 188.195 2458.05 196.307 2451.95 203.54C2445.86 210.773 2438.16 216.508 2428.86 220.745C2419.66 224.878 2408.91 226.945 2396.62 226.945C2385.87 226.945 2376.88 224.723 2369.65 220.28C2362.52 215.837 2357.35 209.378 2354.15 200.905C2351.05 192.432 2350.07 182.202 2351.2 170.215C2352.34 158.332 2355.28 147.12 2360.04 136.58C2364.89 125.937 2371.04 116.533 2378.48 108.37C2386.03 100.207 2394.45 93.8 2403.75 89.15C2413.05 84.5 2422.81 82.175 2433.04 82.175C2440.79 82.175 2447.3 83.7767 2452.57 86.98C2457.84 90.1833 2461.82 94.4717 2464.51 99.845C2467.19 105.115 2468.64 110.953 2468.85 117.36C2468.85 118.703 2469.16 119.788 2469.78 120.615C2470.5 121.442 2471.59 121.803 2473.03 121.7C2474.17 121.7 2475 121.907 2475.51 122.32C2476.03 122.733 2476.34 123.353 2476.44 124.18C2476.44 125.213 2476.03 126.195 2475.2 127.125C2474.38 127.952 2472.77 128.778 2470.4 129.605C2467.61 130.535 2463.16 132.085 2457.07 134.255C2451.07 136.322 2444.2 138.75 2436.45 141.54C2428.81 144.33 2421 147.172 2413.05 150.065C2405.09 152.855 2397.7 155.49 2390.88 157.97C2384.17 160.347 2378.74 162.31 2374.61 163.86C2370.47 165.307 2368.41 166.03 2368.41 166.03L2367.32 159.365ZM2496.3 112.555C2495.47 112.142 2495.06 111.47 2495.06 110.54C2495.16 109.507 2495.63 108.215 2496.45 106.665C2501 99.225 2506.73 93.335 2513.66 88.995C2520.58 84.655 2527.92 82.485 2535.67 82.485C2540.83 82.485 2544.86 83.6733 2547.76 86.05C2550.65 88.4267 2552.1 91.9917 2552.1 96.745C2552.1 99.9483 2551.48 103.772 2550.24 108.215C2549 112.555 2547.34 117.412 2545.28 122.785C2543.21 128.055 2540.94 133.738 2538.46 139.835C2536.08 145.828 2533.76 152.132 2531.48 158.745L2530.86 155.18C2536.65 141.54 2543 130.07 2549.93 120.77C2556.85 111.47 2563.93 104.03 2571.16 98.45C2578.4 92.87 2585.47 88.84 2592.4 86.36C2599.32 83.7767 2605.57 82.485 2611.15 82.485C2618.8 82.485 2624.22 84.19 2627.43 87.6C2630.63 91.01 2632.08 95.8667 2631.77 102.17C2631.56 108.37 2630.01 115.707 2627.12 124.18L2606.04 187.575C2603.04 196.358 2601.96 202.352 2602.78 205.555C2603.71 208.758 2605.52 210.36 2608.21 210.36C2610.17 210.36 2612.29 209.637 2614.56 208.19C2616.94 206.743 2619.83 204.057 2623.24 200.13C2624.38 198.993 2625.31 198.27 2626.03 197.96C2626.76 197.65 2627.48 197.65 2628.2 197.96C2629.03 198.27 2629.39 198.993 2629.29 200.13C2629.29 201.163 2628.87 202.507 2628.05 204.16C2624.02 211.187 2618.7 216.767 2612.08 220.9C2605.47 224.93 2597.98 226.945 2589.61 226.945C2583.92 226.945 2579.58 225.705 2576.59 223.225C2573.69 220.745 2572.14 217.077 2571.94 212.22C2571.73 207.26 2572.82 201.163 2575.19 193.93L2597.05 128.365C2600.56 118.032 2601.7 110.902 2600.46 106.975C2599.32 102.945 2596.17 100.93 2591 100.93C2587.18 100.93 2582.63 102.325 2577.36 105.115C2572.2 107.802 2566.72 112.038 2560.93 117.825C2555.25 123.508 2549.67 130.845 2544.19 139.835C2538.82 148.722 2534.01 159.365 2529.78 171.765C2527.61 178.172 2525.9 183.442 2524.66 187.575C2523.42 191.605 2522.54 194.86 2522.03 197.34C2521.61 199.717 2521.41 201.732 2521.41 203.385C2521.41 205.658 2521.77 207.518 2522.49 208.965C2523.32 210.412 2523.73 212.22 2523.73 214.39C2523.73 218.11 2521.46 221.158 2516.91 223.535C2512.47 225.808 2506.42 226.945 2498.78 226.945C2492.99 226.945 2489.53 225.137 2488.39 221.52C2487.26 217.8 2488.03 212.117 2490.72 204.47L2518.46 123.56C2521.56 114.57 2522.75 108.422 2522.03 105.115C2521.41 101.808 2519.65 100.155 2516.76 100.155C2514.9 100.155 2512.73 100.878 2510.25 102.325C2507.87 103.772 2504.87 106.51 2501.26 110.54C2500.12 111.47 2499.19 112.142 2498.47 112.555C2497.74 112.865 2497.02 112.865 2496.3 112.555ZM2759.03 222.14C2754.69 240.327 2747.82 255.258 2738.42 266.935C2729.12 278.612 2717.7 287.24 2704.16 292.82C2690.63 298.4 2675.44 301.19 2658.59 301.19C2648.16 301.19 2640.36 299.588 2635.19 296.385C2629.92 293.182 2627.28 289.1 2627.28 284.14C2627.28 280.73 2628.52 277.837 2631 275.46C2633.48 273.083 2636.89 271.895 2641.23 271.895C2644.95 271.895 2648.42 272.773 2651.62 274.53C2654.82 276.39 2657.97 278.508 2661.07 280.885C2664.28 283.262 2667.43 285.328 2670.53 287.085C2673.73 288.945 2677.09 289.875 2680.6 289.875C2686.6 289.875 2692.33 288.377 2697.81 285.38C2703.39 282.487 2708.45 277.733 2713 271.12C2717.55 264.507 2721.16 255.775 2723.85 244.925L2746.17 158.59L2749.42 160.605C2743.64 175.278 2737.08 187.575 2729.74 197.495C2722.51 207.312 2714.76 214.7 2706.49 219.66C2698.22 224.517 2689.7 226.945 2680.91 226.945C2674.51 226.945 2668.88 225.498 2664.02 222.605C2659.16 219.608 2655.55 215.01 2653.17 208.81C2650.79 202.507 2650.07 194.343 2651 184.32C2651.93 173.78 2654.41 163.498 2658.44 153.475C2662.57 143.452 2667.95 134.152 2674.56 125.575C2681.17 116.998 2688.82 109.507 2697.5 103.1C2706.28 96.59 2715.84 91.5267 2726.17 87.91C2736.51 84.2933 2747.41 82.485 2758.88 82.485C2766.32 82.485 2772.67 83.0017 2777.94 84.035C2783.32 85.0683 2787.4 86.4117 2790.19 88.065C2793.08 89.7183 2794.48 91.475 2794.37 93.335C2794.27 94.9883 2793.7 96.2283 2792.67 97.055C2791.64 97.8817 2790.55 98.76 2789.41 99.69C2788.38 100.517 2787.66 101.808 2787.24 103.565L2759.03 222.14ZM2681.53 182.77C2680.81 190.623 2681.02 196.72 2682.15 201.06C2683.39 205.4 2685.2 208.448 2687.58 210.205C2690.06 211.962 2692.69 212.84 2695.48 212.84C2700.44 212.84 2705.61 210.67 2710.98 206.33C2716.36 201.99 2721.63 196.152 2726.79 188.815C2731.96 181.478 2736.71 173.212 2741.05 164.015C2745.39 154.715 2749.01 145.105 2751.9 135.185C2754.9 125.162 2756.86 115.448 2757.79 106.045C2758.52 101.085 2758.36 97.365 2757.33 94.885C2756.3 92.3017 2754.07 91.01 2750.66 91.01C2744.46 91.01 2738.26 92.715 2732.06 96.125C2725.86 99.4317 2719.87 104.082 2714.08 110.075C2708.4 115.965 2703.23 122.837 2698.58 130.69C2694.04 138.44 2690.27 146.758 2687.27 155.645C2684.27 164.532 2682.36 173.573 2681.53 182.77ZM2816.88 159.365C2816.88 159.365 2818.85 158.642 2822.77 157.195C2826.7 155.645 2831.76 153.733 2837.96 151.46C2844.27 149.083 2850.93 146.603 2857.96 144.02C2864.98 141.333 2871.65 138.802 2877.95 136.425C2884.36 134.048 2889.58 132.137 2893.61 130.69L2890.35 134.565C2891.18 132.292 2891.85 129.553 2892.37 126.35C2892.88 123.043 2893.19 119.065 2893.3 114.415C2893.3 107.285 2891.9 101.447 2889.11 96.9C2886.43 92.3533 2882.81 90.08 2878.26 90.08C2873.41 90.08 2868.5 91.8883 2863.54 95.505C2858.58 99.0183 2853.88 104.03 2849.43 110.54C2845.09 116.947 2841.32 124.593 2838.12 133.48C2835.02 142.367 2832.9 152.132 2831.76 162.775C2830.21 178.378 2832.18 190.21 2837.65 198.27C2843.13 206.33 2851.19 210.36 2861.83 210.36C2868.14 210.36 2874.13 209.12 2879.81 206.64C2885.5 204.057 2890.66 200.337 2895.31 195.48C2900.07 190.52 2903.99 184.372 2907.09 177.035C2908.02 175.485 2908.85 174.452 2909.57 173.935C2910.4 173.418 2911.28 173.16 2912.21 173.16C2913.24 173.263 2914.02 173.78 2914.53 174.71C2915.15 175.64 2915.2 177.138 2914.69 179.205C2912 188.195 2907.61 196.307 2901.51 203.54C2895.42 210.773 2887.72 216.508 2878.42 220.745C2869.22 224.878 2858.47 226.945 2846.18 226.945C2835.43 226.945 2826.44 224.723 2819.21 220.28C2812.08 215.837 2806.91 209.378 2803.71 200.905C2800.61 192.432 2799.63 182.202 2800.76 170.215C2801.9 158.332 2804.84 147.12 2809.6 136.58C2814.45 125.937 2820.6 116.533 2828.04 108.37C2835.59 100.207 2844.01 93.8 2853.31 89.15C2862.61 84.5 2872.37 82.175 2882.6 82.175C2890.35 82.175 2896.86 83.7767 2902.13 86.98C2907.4 90.1833 2911.38 94.4717 2914.07 99.845C2916.75 105.115 2918.2 110.953 2918.41 117.36C2918.41 118.703 2918.72 119.788 2919.34 120.615C2920.06 121.442 2921.15 121.803 2922.59 121.7C2923.73 121.7 2924.56 121.907 2925.07 122.32C2925.59 122.733 2925.9 123.353 2926 124.18C2926 125.213 2925.59 126.195 2924.76 127.125C2923.94 127.952 2922.33 128.778 2919.96 129.605C2917.17 130.535 2912.72 132.085 2906.63 134.255C2900.63 136.322 2893.76 138.75 2886.01 141.54C2878.37 144.33 2870.56 147.172 2862.61 150.065C2854.65 152.855 2847.26 155.49 2840.44 157.97C2833.73 160.347 2828.3 162.31 2824.17 163.86C2820.03 165.307 2817.97 166.03 2817.97 166.03L2816.88 159.365ZM3243.39 162C3244.43 162.517 3244.99 163.447 3245.1 164.79C3245.2 166.133 3244.63 167.942 3243.39 170.215C3237.4 182.718 3230.01 193.258 3221.23 201.835C3212.44 210.308 3202.52 216.663 3191.47 220.9C3180.51 225.137 3168.63 227.255 3155.82 227.255C3139.9 227.255 3126.16 223.38 3114.59 215.63C3103.01 207.777 3094.7 196.255 3089.63 181.065C3084.57 165.875 3083.9 147.223 3087.62 125.11C3090.41 108.473 3095.52 92.8183 3102.96 78.145C3110.4 63.3683 3119.55 50.4 3130.4 39.24C3141.35 27.9767 3153.54 19.1933 3166.98 12.89C3180.41 6.58665 3194.52 3.43498 3209.29 3.43498C3216.22 3.43498 3222.05 4.26165 3226.81 5.91499C3231.56 7.46499 3235.49 9.32499 3238.59 11.495C3241.69 13.665 3244.12 15.5767 3245.87 17.23C3247.63 18.78 3248.97 19.555 3249.9 19.555C3251.04 19.555 3252.33 18.78 3253.78 17.23C3255.33 15.5767 3256.88 13.7167 3258.43 11.65C3260.08 9.58332 3261.63 7.77498 3263.08 6.22499C3264.63 4.57165 3265.92 3.74498 3266.95 3.74498C3268.3 3.74498 3269.33 4.15832 3270.05 4.98498C3270.78 5.81165 3271.19 7.05165 3271.29 8.70499V63.885C3271.29 65.435 3270.83 66.6233 3269.9 67.45C3269.07 68.1733 3268.04 68.5867 3266.8 68.69C3264.52 68.7933 3262.87 67.3467 3261.84 64.35L3257.81 51.175C3253.78 37.225 3247.99 27.305 3240.45 21.415C3233.01 15.4217 3223.86 12.425 3213.01 12.425C3202.16 12.425 3191.98 15.2667 3182.48 20.95C3172.97 26.53 3164.29 34.3317 3156.44 44.355C3148.69 54.275 3142.07 65.8483 3136.6 79.075C3131.22 92.3017 3127.25 106.51 3124.66 121.7C3120.94 143.4 3120.58 160.967 3123.58 174.4C3126.68 187.833 3132.26 197.65 3140.32 203.85C3148.48 209.947 3158.19 212.995 3169.46 212.995C3177.52 212.995 3185.47 211.445 3193.33 208.345C3201.28 205.245 3208.88 200.233 3216.11 193.31C3223.35 186.387 3229.96 177.242 3235.95 165.875C3237.4 164.222 3238.69 163.033 3239.83 162.31C3241.07 161.587 3242.26 161.483 3243.39 162ZM3311.77 150.53L3310.06 149.91C3317.81 133.48 3326.29 120.357 3335.48 110.54C3344.78 100.723 3354.08 93.5933 3363.38 89.15C3372.68 84.7067 3381.21 82.485 3388.96 82.485C3396.5 82.485 3401.88 84.19 3405.08 87.6C3408.28 91.01 3409.73 95.8667 3409.42 102.17C3409.21 108.37 3407.66 115.707 3404.77 124.18L3383.69 187.575C3380.69 196.358 3379.61 202.352 3380.43 205.555C3381.36 208.758 3383.17 210.36 3385.86 210.36C3387.82 210.36 3389.94 209.637 3392.21 208.19C3394.59 206.743 3397.48 204.057 3400.89 200.13C3402.13 198.993 3403.12 198.27 3403.84 197.96C3404.56 197.65 3405.23 197.65 3405.85 197.96C3406.68 198.27 3407.04 198.993 3406.94 200.13C3406.94 201.163 3406.53 202.507 3405.7 204.16C3401.67 211.187 3396.35 216.767 3389.73 220.9C3383.12 224.93 3375.63 226.945 3367.26 226.945C3361.58 226.945 3357.24 225.705 3354.24 223.225C3351.35 220.745 3349.8 217.025 3349.59 212.065C3349.49 207.105 3350.62 201.06 3353 193.93L3374.7 128.365C3378.21 117.928 3379.35 110.747 3378.11 106.82C3376.97 102.893 3373.82 100.93 3368.65 100.93C3364.83 100.93 3360.28 102.325 3355.01 105.115C3349.74 107.802 3344.22 112.038 3338.43 117.825C3332.64 123.508 3327.01 130.845 3321.53 139.835C3316.16 148.722 3311.3 159.365 3306.96 171.765C3305.21 176.932 3303.81 181.582 3302.78 185.715C3301.75 189.745 3301.02 193.258 3300.61 196.255C3300.2 199.148 3299.99 201.577 3299.99 203.54C3299.99 205.813 3300.35 207.725 3301.07 209.275C3301.8 210.722 3302.16 212.53 3302.16 214.7C3302.16 218.213 3299.83 221.158 3295.18 223.535C3290.64 225.808 3284.49 226.945 3276.74 226.945C3273.02 226.945 3270.33 226.17 3268.68 224.62C3267.03 223.173 3266.2 220.952 3266.2 217.955C3266.2 214.855 3266.87 210.98 3268.21 206.33L3315.18 38.775C3317.45 30.715 3318.18 25.2383 3317.35 22.345C3316.63 19.3483 3314.97 17.85 3312.39 17.85C3310.53 17.85 3308.41 18.5217 3306.03 19.865C3303.76 21.105 3300.97 23.43 3297.66 26.84C3296.53 27.8733 3295.6 28.545 3294.87 28.855C3294.15 29.165 3293.43 29.2167 3292.7 29.01C3291.98 28.5967 3291.62 27.8733 3291.62 26.84C3291.72 25.8067 3292.14 24.5667 3292.86 23.12C3295.75 18.47 3299.16 14.44 3303.09 11.03C3307.12 7.51665 3311.46 4.88165 3316.11 3.12499C3320.86 1.26499 3325.72 0.334988 3330.68 0.334988C3338.64 0.334988 3343.8 3.12499 3346.18 8.70499C3348.66 14.1817 3348.3 22.4483 3345.09 33.505L3311.77 150.53ZM3543.75 186.18C3541.37 195.79 3540.44 202.248 3540.96 205.555C3541.47 208.758 3543.13 210.36 3545.92 210.36C3547.88 210.36 3550 209.637 3552.27 208.19C3554.55 206.743 3557.39 204.108 3560.8 200.285C3561.93 199.148 3562.86 198.425 3563.59 198.115C3564.31 197.805 3565.03 197.805 3565.76 198.115C3566.58 198.425 3566.95 199.148 3566.84 200.285C3566.84 201.318 3566.43 202.662 3565.6 204.315C3561.57 211.238 3556.25 216.767 3549.64 220.9C3543.13 224.93 3536.15 226.945 3528.71 226.945C3523.24 226.945 3519.1 225.602 3516.31 222.915C3513.63 220.228 3512.28 216.25 3512.28 210.98C3512.28 208.81 3512.49 206.227 3512.9 203.23C3513.42 200.13 3514.19 196.358 3515.23 191.915C3516.26 187.472 3517.66 182.15 3519.41 175.95C3521.27 169.647 3523.49 162.207 3526.08 153.63L3528.25 156.73C3522.77 171.3 3516.36 183.855 3509.03 194.395C3501.79 204.832 3493.89 212.892 3485.31 218.575C3476.84 224.155 3467.95 226.945 3458.65 226.945C3448.22 226.945 3440.26 223.225 3434.78 215.785C3429.31 208.345 3427.5 196.617 3429.36 180.6C3430.39 170.577 3433.03 160.76 3437.26 151.15C3441.5 141.54 3446.98 132.602 3453.69 124.335C3460.41 116.068 3468.11 108.835 3476.79 102.635C3485.57 96.3317 3494.97 91.4233 3505 87.91C3515.12 84.2933 3525.61 82.485 3536.46 82.485C3544.21 82.485 3550.77 83.0533 3556.15 84.19C3561.52 85.3267 3565.6 86.7733 3568.39 88.53C3571.29 90.1833 3572.68 91.9917 3572.58 93.955C3572.37 95.505 3571.75 96.745 3570.72 97.675C3569.68 98.5017 3568.6 99.38 3567.46 100.31C3566.33 101.24 3565.55 102.532 3565.14 104.185L3543.75 186.18ZM3459.58 181.84C3458.14 193.103 3458.76 201.163 3461.44 206.02C3464.23 210.773 3468 213.15 3472.76 213.15C3476.99 213.15 3481.44 211.497 3486.09 208.19C3490.84 204.883 3495.59 200.078 3500.35 193.775C3505.2 187.472 3509.91 179.928 3514.45 171.145C3519 162.362 3523.18 152.493 3527.01 141.54C3530.83 130.587 3534.14 118.807 3536.93 106.2C3538.06 101.033 3538.06 97.21 3536.93 94.73C3535.89 92.1467 3533.57 90.855 3529.95 90.855C3523.55 90.855 3517.14 92.56 3510.73 95.97C3504.43 99.38 3498.44 104.082 3492.75 110.075C3487.07 115.965 3481.9 122.785 3477.25 130.535C3472.71 138.182 3468.88 146.397 3465.78 155.18C3462.68 163.963 3460.62 172.85 3459.58 181.84ZM3667.11 33.66L3622.32 185.87C3619.43 195.583 3618.39 202.042 3619.22 205.245C3620.05 208.448 3622.06 210.05 3625.26 210.05C3628.05 210.05 3631 209.12 3634.1 207.26C3637.3 205.4 3640.66 202.352 3644.17 198.115C3645.1 197.082 3645.88 196.41 3646.5 196.1C3647.12 195.79 3647.74 195.738 3648.36 195.945C3649.19 196.255 3649.65 196.927 3649.75 197.96C3649.96 198.993 3649.65 200.337 3648.82 201.99C3646.45 206.847 3643.09 211.135 3638.75 214.855C3634.51 218.575 3629.6 221.52 3624.02 223.69C3618.44 225.86 3612.5 226.945 3606.2 226.945C3600.21 226.945 3595.71 225.757 3592.71 223.38C3589.82 220.9 3588.27 217.128 3588.06 212.065C3587.86 207.002 3588.94 200.595 3591.32 192.845L3636.73 38.775C3639.21 30.715 3640.04 25.2383 3639.21 22.345C3638.39 19.3483 3636.63 17.85 3633.94 17.85C3632.08 17.85 3630.02 18.5217 3627.74 19.865C3625.47 21.105 3622.63 23.43 3619.22 26.84C3618.19 27.8733 3617.26 28.545 3616.43 28.855C3615.71 29.165 3614.98 29.2167 3614.26 29.01C3613.54 28.5967 3613.17 27.8733 3613.17 26.84C3613.28 25.8067 3613.74 24.5667 3614.57 23.12C3617.36 18.47 3620.77 14.44 3624.8 11.03C3628.83 7.51665 3633.17 4.88165 3637.82 3.12499C3642.57 1.26499 3647.43 0.334988 3652.39 0.334988C3657.87 0.334988 3662.05 1.57499 3664.94 4.055C3667.84 6.53499 3669.44 10.255 3669.75 15.215C3670.16 20.0717 3669.28 26.22 3667.11 33.66ZM3753.39 33.66L3708.6 185.87C3705.7 195.583 3704.67 202.042 3705.5 205.245C3706.32 208.448 3708.34 210.05 3711.54 210.05C3714.33 210.05 3717.28 209.12 3720.38 207.26C3723.58 205.4 3726.94 202.352 3730.45 198.115C3731.38 197.082 3732.16 196.41 3732.78 196.1C3733.4 195.79 3734.02 195.738 3734.64 195.945C3735.46 196.255 3735.93 196.927 3736.03 197.96C3736.24 198.993 3735.93 200.337 3735.1 201.99C3732.73 206.847 3729.37 211.135 3725.03 214.855C3720.79 218.575 3715.88 221.52 3710.3 223.69C3704.72 225.86 3698.78 226.945 3692.48 226.945C3686.48 226.945 3681.99 225.757 3678.99 223.38C3676.1 220.9 3674.55 217.128 3674.34 212.065C3674.14 207.002 3675.22 200.595 3677.6 192.845L3723.01 38.775C3725.49 30.715 3726.32 25.2383 3725.49 22.345C3724.67 19.3483 3722.91 17.85 3720.22 17.85C3718.36 17.85 3716.3 18.5217 3714.02 19.865C3711.75 21.105 3708.91 23.43 3705.5 26.84C3704.46 27.8733 3703.53 28.545 3702.71 28.855C3701.98 29.165 3701.26 29.2167 3700.54 29.01C3699.81 28.5967 3699.45 27.8733 3699.45 26.84C3699.56 25.8067 3700.02 24.5667 3700.85 23.12C3703.64 18.47 3707.05 14.44 3711.08 11.03C3715.11 7.51665 3719.45 4.88165 3724.1 3.12499C3728.85 1.26499 3733.71 0.334988 3738.67 0.334988C3744.14 0.334988 3748.33 1.57499 3751.22 4.055C3754.12 6.53499 3755.72 10.255 3756.03 15.215C3756.44 20.0717 3755.56 26.22 3753.39 33.66ZM3775.04 159.365C3775.04 159.365 3777 158.642 3780.93 157.195C3784.85 155.645 3789.92 153.733 3796.12 151.46C3802.42 149.083 3809.09 146.603 3816.11 144.02C3823.14 141.333 3829.8 138.802 3836.11 136.425C3842.51 134.048 3847.73 132.137 3851.76 130.69L3848.51 134.565C3849.33 132.292 3850.01 129.553 3850.52 126.35C3851.04 123.043 3851.35 119.065 3851.45 114.415C3851.45 107.285 3850.06 101.447 3847.27 96.9C3844.58 92.3533 3840.96 90.08 3836.42 90.08C3831.56 90.08 3826.65 91.8883 3821.69 95.505C3816.73 99.0183 3812.03 104.03 3807.59 110.54C3803.25 116.947 3799.48 124.593 3796.27 133.48C3793.17 142.367 3791.05 152.132 3789.92 162.775C3788.37 178.378 3790.33 190.21 3795.81 198.27C3801.28 206.33 3809.34 210.36 3819.99 210.36C3826.29 210.36 3832.28 209.12 3837.97 206.64C3843.65 204.057 3848.82 200.337 3853.47 195.48C3858.22 190.52 3862.15 184.372 3865.25 177.035C3866.18 175.485 3867 174.452 3867.73 173.935C3868.55 173.418 3869.43 173.16 3870.36 173.16C3871.4 173.263 3872.17 173.78 3872.69 174.71C3873.31 175.64 3873.36 177.138 3872.84 179.205C3870.16 188.195 3865.76 196.307 3859.67 203.54C3853.57 210.773 3845.87 216.508 3836.57 220.745C3827.38 224.878 3816.63 226.945 3804.33 226.945C3793.59 226.945 3784.6 224.723 3777.36 220.28C3770.23 215.837 3765.07 209.378 3761.86 200.905C3758.76 192.432 3757.78 182.202 3758.92 170.215C3760.05 158.332 3763 147.12 3767.75 136.58C3772.61 125.937 3778.76 116.533 3786.2 108.37C3793.74 100.207 3802.16 93.8 3811.46 89.15C3820.76 84.5 3830.53 82.175 3840.76 82.175C3848.51 82.175 3855.02 83.7767 3860.29 86.98C3865.56 90.1833 3869.54 94.4717 3872.22 99.845C3874.91 105.115 3876.36 110.953 3876.56 117.36C3876.56 118.703 3876.87 119.788 3877.49 120.615C3878.22 121.442 3879.3 121.803 3880.75 121.7C3881.88 121.7 3882.71 121.907 3883.23 122.32C3883.74 122.733 3884.05 123.353 3884.16 124.18C3884.16 125.213 3883.74 126.195 3882.92 127.125C3882.09 127.952 3880.49 128.778 3878.11 129.605C3875.32 130.535 3870.88 132.085 3864.78 134.255C3858.79 136.322 3851.92 138.75 3844.17 141.54C3836.52 144.33 3828.72 147.172 3820.76 150.065C3812.81 152.855 3805.42 155.49 3798.6 157.97C3791.88 160.347 3786.46 162.31 3782.32 163.86C3778.19 165.307 3776.12 166.03 3776.12 166.03L3775.04 159.365ZM3904.01 112.555C3903.18 112.142 3902.77 111.47 3902.77 110.54C3902.87 109.507 3903.34 108.215 3904.17 106.665C3908.71 99.225 3914.45 93.335 3921.37 88.995C3928.29 84.655 3935.63 82.485 3943.38 82.485C3948.55 82.485 3952.58 83.6733 3955.47 86.05C3958.36 88.4267 3959.81 91.9917 3959.81 96.745C3959.81 99.9483 3959.19 103.772 3957.95 108.215C3956.71 112.555 3955.06 117.412 3952.99 122.785C3950.92 128.055 3948.65 133.738 3946.17 139.835C3943.79 145.828 3941.47 152.132 3939.2 158.745L3938.58 155.18C3944.36 141.54 3950.72 130.07 3957.64 120.77C3964.56 111.47 3971.64 104.03 3978.88 98.45C3986.11 92.87 3993.19 88.84 4000.11 86.36C4007.03 83.7767 4013.29 82.485 4018.87 82.485C4026.51 82.485 4031.94 84.19 4035.14 87.6C4038.34 91.01 4039.79 95.8667 4039.48 102.17C4039.27 108.37 4037.72 115.707 4034.83 124.18L4013.75 187.575C4010.75 196.358 4009.67 202.352 4010.5 205.555C4011.43 208.758 4013.23 210.36 4015.92 210.36C4017.88 210.36 4020 209.637 4022.28 208.19C4024.65 206.743 4027.55 204.057 4030.96 200.13C4032.09 198.993 4033.02 198.27 4033.75 197.96C4034.47 197.65 4035.19 197.65 4035.92 197.96C4036.74 198.27 4037.1 198.993 4037 200.13C4037 201.163 4036.59 202.507 4035.76 204.16C4031.73 211.187 4026.41 216.767 4019.8 220.9C4013.18 224.93 4005.69 226.945 3997.32 226.945C3991.64 226.945 3987.3 225.705 3984.3 223.225C3981.41 220.745 3979.86 217.077 3979.65 212.22C3979.44 207.26 3980.53 201.163 3982.91 193.93L4004.76 128.365C4008.27 118.032 4009.41 110.902 4008.17 106.975C4007.03 102.945 4003.88 100.93 3998.72 100.93C3994.89 100.93 3990.35 102.325 3985.08 105.115C3979.91 107.802 3974.43 112.038 3968.65 117.825C3962.96 123.508 3957.38 130.845 3951.91 139.835C3946.53 148.722 3941.73 159.365 3937.49 171.765C3935.32 178.172 3933.62 183.442 3932.38 187.575C3931.14 191.605 3930.26 194.86 3929.74 197.34C3929.33 199.717 3929.12 201.732 3929.12 203.385C3929.12 205.658 3929.48 207.518 3930.21 208.965C3931.03 210.412 3931.45 212.22 3931.45 214.39C3931.45 218.11 3929.17 221.158 3924.63 223.535C3920.18 225.808 3914.14 226.945 3906.49 226.945C3900.7 226.945 3897.24 225.137 3896.11 221.52C3894.97 217.8 3895.74 212.117 3898.43 204.47L3926.18 123.56C3929.28 114.57 3930.46 108.422 3929.74 105.115C3929.12 101.808 3927.36 100.155 3924.47 100.155C3922.61 100.155 3920.44 100.878 3917.96 102.325C3915.58 103.772 3912.59 106.51 3908.97 110.54C3907.83 111.47 3906.9 112.142 3906.18 112.555C3905.46 112.865 3904.73 112.865 3904.01 112.555ZM4166.75 222.14C4162.41 240.327 4155.54 255.258 4146.13 266.935C4136.83 278.612 4125.42 287.24 4111.88 292.82C4098.34 298.4 4083.15 301.19 4066.31 301.19C4055.87 301.19 4048.07 299.588 4042.9 296.385C4037.63 293.182 4035 289.1 4035 284.14C4035 280.73 4036.24 277.837 4038.72 275.46C4041.2 273.083 4044.61 271.895 4048.95 271.895C4052.67 271.895 4056.13 272.773 4059.33 274.53C4062.54 276.39 4065.69 278.508 4068.79 280.885C4071.99 283.262 4075.14 285.328 4078.24 287.085C4081.45 288.945 4084.81 289.875 4088.32 289.875C4094.31 289.875 4100.05 288.377 4105.52 285.38C4111.1 282.487 4116.17 277.733 4120.71 271.12C4125.26 264.507 4128.88 255.775 4131.56 244.925L4153.88 158.59L4157.14 160.605C4151.35 175.278 4144.79 187.575 4137.45 197.495C4130.22 207.312 4122.47 214.7 4114.2 219.66C4105.94 224.517 4097.41 226.945 4088.63 226.945C4082.22 226.945 4076.59 225.498 4071.73 222.605C4066.88 219.608 4063.26 215.01 4060.88 208.81C4058.51 202.507 4057.78 194.343 4058.71 184.32C4059.64 173.78 4062.12 163.498 4066.15 153.475C4070.29 143.452 4075.66 134.152 4082.27 125.575C4088.89 116.998 4096.53 109.507 4105.21 103.1C4114 96.59 4123.56 91.5267 4133.89 87.91C4144.22 84.2933 4155.12 82.485 4166.59 82.485C4174.03 82.485 4180.39 83.0017 4185.66 84.035C4191.03 85.0683 4195.11 86.4117 4197.9 88.065C4200.8 89.7183 4202.19 91.475 4202.09 93.335C4201.99 94.9883 4201.42 96.2283 4200.38 97.055C4199.35 97.8817 4198.27 98.76 4197.13 99.69C4196.1 100.517 4195.37 101.808 4194.96 103.565L4166.75 222.14ZM4089.25 182.77C4088.53 190.623 4088.73 196.72 4089.87 201.06C4091.11 205.4 4092.92 208.448 4095.29 210.205C4097.77 211.962 4100.41 212.84 4103.2 212.84C4108.16 212.84 4113.33 210.67 4118.7 206.33C4124.07 201.99 4129.34 196.152 4134.51 188.815C4139.68 181.478 4144.43 173.212 4148.77 164.015C4153.11 154.715 4156.73 145.105 4159.62 135.185C4162.62 125.162 4164.58 115.448 4165.51 106.045C4166.23 101.085 4166.08 97.365 4165.04 94.885C4164.01 92.3017 4161.79 91.01 4158.38 91.01C4152.18 91.01 4145.98 92.715 4139.78 96.125C4133.58 99.4317 4127.59 104.082 4121.8 110.075C4116.12 115.965 4110.95 122.837 4106.3 130.69C4101.75 138.44 4097.98 146.758 4094.98 155.645C4091.99 164.532 4090.08 173.573 4089.25 182.77ZM4224.6 159.365C4224.6 159.365 4226.56 158.642 4230.49 157.195C4234.41 155.645 4239.48 153.733 4245.68 151.46C4251.98 149.083 4258.65 146.603 4265.67 144.02C4272.7 141.333 4279.36 138.802 4285.67 136.425C4292.07 134.048 4297.29 132.137 4301.32 130.69L4298.07 134.565C4298.89 132.292 4299.57 129.553 4300.08 126.35C4300.6 123.043 4300.91 119.065 4301.01 114.415C4301.01 107.285 4299.62 101.447 4296.83 96.9C4294.14 92.3533 4290.52 90.08 4285.98 90.08C4281.12 90.08 4276.21 91.8883 4271.25 95.505C4266.29 99.0183 4261.59 104.03 4257.15 110.54C4252.81 116.947 4249.04 124.593 4245.83 133.48C4242.73 142.367 4240.61 152.132 4239.48 162.775C4237.93 178.378 4239.89 190.21 4245.37 198.27C4250.84 206.33 4258.9 210.36 4269.55 210.36C4275.85 210.36 4281.84 209.12 4287.53 206.64C4293.21 204.057 4298.38 200.337 4303.03 195.48C4307.78 190.52 4311.71 184.372 4314.81 177.035C4315.74 175.485 4316.56 174.452 4317.29 173.935C4318.11 173.418 4318.99 173.16 4319.92 173.16C4320.96 173.263 4321.73 173.78 4322.25 174.71C4322.87 175.64 4322.92 177.138 4322.4 179.205C4319.72 188.195 4315.32 196.307 4309.23 203.54C4303.13 210.773 4295.43 216.508 4286.13 220.745C4276.94 224.878 4266.19 226.945 4253.89 226.945C4243.15 226.945 4234.16 224.723 4226.92 220.28C4219.79 215.837 4214.63 209.378 4211.42 200.905C4208.32 192.432 4207.34 182.202 4208.48 170.215C4209.61 158.332 4212.56 147.12 4217.31 136.58C4222.17 125.937 4228.32 116.533 4235.76 108.37C4243.3 100.207 4251.72 93.8 4261.02 89.15C4270.32 84.5 4280.09 82.175 4290.32 82.175C4298.07 82.175 4304.58 83.7767 4309.85 86.98C4315.12 90.1833 4319.1 94.4717 4321.78 99.845C4324.47 105.115 4325.92 110.953 4326.12 117.36C4326.12 118.703 4326.43 119.788 4327.05 120.615C4327.78 121.442 4328.86 121.803 4330.31 121.7C4331.44 121.7 4332.27 121.907 4332.79 122.32C4333.3 122.733 4333.61 123.353 4333.72 124.18C4333.72 125.213 4333.3 126.195 4332.48 127.125C4331.65 127.952 4330.05 128.778 4327.67 129.605C4324.88 130.535 4320.44 132.085 4314.34 134.255C4308.35 136.322 4301.48 138.75 4293.73 141.54C4286.08 144.33 4278.28 147.172 4270.32 150.065C4262.37 152.855 4254.98 155.49 4248.16 157.97C4241.44 160.347 4236.02 162.31 4231.88 163.86C4227.75 165.307 4225.68 166.03 4225.68 166.03L4224.6 159.365Z" fill="#F5F5F5"/>
</svg>
