<svg width="40" height="41" viewBox="0 0 40 41" fill="none" xmlns="http://www.w3.org/2000/svg">
<rect width="40" height="40" transform="translate(0 0.614258)" fill="#090909"/>
<circle cx="20" cy="20.6143" r="19.6246" stroke="url(#paint0_linear_4119_4055)" stroke-width="0.750863"/>
<path fill-rule="evenodd" clip-rule="evenodd" d="M11.875 14.3334C11.875 13.0677 12.901 12.0417 14.1667 12.0417H25.8333C27.099 12.0417 28.125 13.0677 28.125 14.3334V26C28.125 27.2657 27.099 28.2917 25.8333 28.2917H24.7467L23.1026 29.9358C22.8585 30.1798 22.4628 30.1798 22.2188 29.9358L20.0089 27.7261L17.7992 29.9358C17.5551 30.1798 17.1594 30.1798 16.9153 29.9358L15.2712 28.2917H14.1667C12.901 28.2917 11.875 27.2657 11.875 26V14.3334ZM15.8841 27.1368L17.3572 28.6099L18.7631 27.204C18.1057 26.9204 17.5651 26.4176 17.2333 25.7876L15.8841 27.1368ZM16.8753 24.3778L14.5583 26.6949C14.4637 26.7894 14.4026 26.9111 14.3825 27.0417H14.1667C13.5914 27.0417 13.125 26.5753 13.125 26V14.3334C13.125 13.7581 13.5914 13.2917 14.1667 13.2917H25.8333C26.4086 13.2917 26.875 13.7581 26.875 14.3334V26C26.875 26.5753 26.4086 27.0417 25.8333 27.0417H25.6354C25.6153 26.9111 25.5542 26.7894 25.4596 26.6949L23.1249 24.3601C23.125 24.3512 23.125 24.3423 23.125 24.3334C23.125 22.6075 21.7259 21.2084 20 21.2084C18.2741 21.2084 16.875 22.6075 16.875 24.3334C16.875 24.3482 16.8751 24.363 16.8753 24.3778ZM18.1377 24.5531C18.1375 24.5504 18.1371 24.5477 18.1368 24.5451C18.129 24.4756 18.125 24.4049 18.125 24.3334C18.125 23.2978 18.9645 22.4584 20 22.4584C21.0355 22.4584 21.875 23.2978 21.875 24.3334C21.875 25.361 21.0483 26.1955 20.0237 26.2082C20.0198 26.2082 20.0158 26.2082 20.0118 26.2082L19.9971 26.2084C19.0372 26.2069 18.2464 25.4842 18.1377 24.5531ZM21.2492 27.1987C21.9051 26.9123 22.4437 26.4073 22.7729 25.7759L24.1338 27.1368L22.6607 28.61L21.2492 27.1987ZM16.875 16C16.875 15.6548 17.1548 15.375 17.5 15.375H22.5C22.8452 15.375 23.125 15.6548 23.125 16C23.125 16.3452 22.8452 16.625 22.5 16.625H17.5C17.1548 16.625 16.875 16.3452 16.875 16ZM15.2083 18.9167C15.2083 18.5715 15.4882 18.2917 15.8333 18.2917H24.1667C24.5118 18.2917 24.7917 18.5715 24.7917 18.9167C24.7917 19.2619 24.5118 19.5417 24.1667 19.5417H15.8333C15.4882 19.5417 15.2083 19.2619 15.2083 18.9167Z" fill="white"/>
<defs>
<linearGradient id="paint0_linear_4119_4055" x1="9.9686e-08" y1="34.3643" x2="40.0137" y2="35.2382" gradientUnits="userSpaceOnUse">
<stop stop-color="#39B5D7"/>
<stop offset="0.502211" stop-color="#F7D544"/>
<stop offset="1" stop-color="#E38330"/>
</linearGradient>
</defs>
</svg>
