<svg width="40" height="40" viewBox="0 0 40 40" fill="none" xmlns="http://www.w3.org/2000/svg">
<rect width="40" height="40" fill="#090909"/>
<circle cx="20" cy="20" r="19.6246" stroke="url(#paint0_linear_4109_2787)" stroke-width="0.750863"/>
<path fill-rule="evenodd" clip-rule="evenodd" d="M19.9035 11.875C19.9352 11.875 19.9673 11.875 20 11.875C20.0326 11.875 20.0648 11.875 20.0965 11.875C20.7781 11.8748 21.2432 11.8746 21.6421 11.9815C22.7205 12.2705 23.5629 13.1128 23.8518 14.1912C23.9285 14.4776 23.9501 14.7981 23.9561 15.2084L25.692 15.2084C26.1371 15.2084 26.5087 15.2084 26.8122 15.2332C27.1288 15.259 27.426 15.3149 27.707 15.4582C28.1382 15.6779 28.4888 16.0284 28.7085 16.4596C28.8517 16.7407 28.9076 17.0379 28.9335 17.3545C28.9583 17.658 28.9583 18.0295 28.9583 18.4747V24.8588C28.9583 25.3039 28.9583 25.6754 28.9335 25.9789C28.9076 26.2955 28.8517 26.5927 28.7085 26.8738C28.4888 27.305 28.1382 27.6556 27.707 27.8753C27.426 28.0185 27.1288 28.0744 26.8122 28.1003C26.5087 28.1251 26.1371 28.1251 25.692 28.125H14.3079C13.8628 28.1251 13.4913 28.1251 13.1877 28.1003C12.8712 28.0744 12.574 28.0185 12.2929 27.8753C11.8617 27.6556 11.5111 27.305 11.2914 26.8738C11.1482 26.5927 11.0923 26.2955 11.0664 25.9789C11.0416 25.6754 11.0416 25.3039 11.0416 24.8587V18.4747C11.0416 18.0296 11.0416 17.658 11.0664 17.3545C11.0923 17.0379 11.1482 16.7407 11.2914 16.4596C11.5111 16.0284 11.8617 15.6779 12.2929 15.4582C12.574 15.3149 12.8712 15.259 13.1877 15.2332C13.4913 15.2084 13.8628 15.2084 14.3079 15.2084L16.0438 15.2084C16.0498 14.7981 16.0714 14.4776 16.1481 14.1912C16.4371 13.1128 17.2794 12.2705 18.3578 11.9815C18.7567 11.8746 19.2218 11.8748 19.9035 11.875ZM14.3333 16.4584C13.8563 16.4584 13.5361 16.4589 13.2895 16.479C13.0503 16.4986 12.9359 16.5335 12.8604 16.5719C12.6644 16.6718 12.505 16.8311 12.4052 17.0271C12.3667 17.1026 12.3318 17.217 12.3123 17.4563C12.2921 17.7028 12.2916 18.023 12.2916 18.5V24.8334C12.2916 25.3104 12.2921 25.6306 12.3123 25.8771C12.3318 26.1164 12.3667 26.2308 12.4052 26.3063C12.505 26.5023 12.6644 26.6616 12.8604 26.7615C12.9359 26.8 13.0503 26.8349 13.2895 26.8544C13.5361 26.8746 13.8563 26.875 14.3333 26.875H25.6666C26.1436 26.875 26.4638 26.8746 26.7104 26.8544C26.9497 26.8349 27.0641 26.8 27.1395 26.7615C27.3355 26.6616 27.4949 26.5023 27.5948 26.3063C27.6332 26.2308 27.6681 26.1164 27.6877 25.8771C27.7078 25.6306 27.7083 25.3104 27.7083 24.8334V18.5C27.7083 18.023 27.7078 17.7028 27.6877 17.4563C27.6681 17.217 27.6332 17.1026 27.5948 17.0271C27.4949 16.8311 27.3355 16.6718 27.1395 16.5719C27.0641 16.5335 26.9497 16.4986 26.7104 16.479C26.4638 16.4589 26.1436 16.4584 25.6666 16.4584H14.3333ZM22.7052 15.2084H17.2947C17.3002 14.8459 17.3154 14.6646 17.3555 14.5148C17.5289 13.8677 18.0343 13.3623 18.6813 13.1889C18.8997 13.1304 19.1847 13.125 20 13.125C20.8152 13.125 21.1002 13.1304 21.3186 13.1889C21.9656 13.3623 22.471 13.8677 22.6444 14.5148C22.6846 14.6646 22.6997 14.8459 22.7052 15.2084Z" fill="white"/>
<defs>
<linearGradient id="paint0_linear_4109_2787" x1="9.9686e-08" y1="33.75" x2="40.0137" y2="34.624" gradientUnits="userSpaceOnUse">
<stop stop-color="#39B5D7"/>
<stop offset="0.502211" stop-color="#F7D544"/>
<stop offset="1" stop-color="#E38330"/>
</linearGradient>
</defs>
</svg>
