<svg width="24" height="24" viewBox="0 0 24 24" fill="none" xmlns="http://www.w3.org/2000/svg">
<path d="M17.1808 16.0057C17.1979 16.0057 17.5259 15.8085 17.9094 15.5675C18.2931 15.3265 18.5994 15.115 18.5903 15.0976C18.5812 15.0802 18.3982 14.8325 18.1836 14.5473C17.7527 13.9744 17.3386 13.2166 17.1557 12.6664C16.586 10.9518 16.8568 9.16854 17.9059 7.72632L18.173 7.35905L17.6684 6.8545L17.1639 6.34992L16.8284 6.5895C14.6309 8.15918 12.0039 7.98815 9.68048 6.1242C9.52877 6.00247 9.39903 5.90858 9.39213 5.91548C9.3286 5.97901 8.52798 7.28362 8.52804 7.32349C8.52808 7.35232 8.66695 7.46977 8.83663 7.58441C10.7154 8.85403 12.8686 9.26287 14.5359 8.66671L14.9359 8.52371L9.36326 14.1165L5.83951 17.653L6.86065 18.6741L10.4063 15.1413L15.9859 9.58187L15.8156 10.0971C15.374 11.4338 15.5478 13.0155 16.3115 14.6083C16.529 15.0621 17.116 16.0056 17.1808 16.0057Z" fill="white"/>
</svg>
