<svg width="20" height="21" viewBox="0 0 20 21" fill="none" xmlns="http://www.w3.org/2000/svg">
<path d="M11.0363 15.7248C11.0469 15.7341 11.3718 15.8053 11.7582 15.8828C12.1447 15.9604 12.4651 16.012 12.4702 15.9976C12.4753 15.9831 12.5153 15.7489 12.5591 15.477C12.6469 14.931 12.8596 14.2935 13.0868 13.8949C13.7952 12.6524 15.0661 11.8297 16.6075 11.6158L17 11.5614V11.0125V10.4636L16.6442 10.4114C14.3134 10.0699 12.7938 8.54799 12.5096 6.27037C12.491 6.12164 12.4688 6 12.4603 6C12.3817 6 11.0791 6.27413 11.0545 6.29585C11.0367 6.31155 11.0499 6.45098 11.084 6.60563C11.4609 8.31815 12.5401 9.71167 13.9406 10.2943L14.2766 10.4341L7.36832 10.445L3 10.452V11.5628L7.37956 11.5698L14.2715 11.5808L13.8474 11.7684C12.7471 12.2552 11.876 13.2102 11.363 14.4919C11.2168 14.857 10.9962 15.6895 11.0363 15.7248Z" fill="url(#paint0_linear_17620_14661)"/>
<defs>
<linearGradient id="paint0_linear_17620_14661" x1="1.53077e-07" y1="13" x2="16.7644" y2="17.696" gradientUnits="userSpaceOnUse">
<stop stop-color="#39B5D7"/>
<stop offset="0.502211" stop-color="#F7D544"/>
<stop offset="1" stop-color="#E38330"/>
</linearGradient>
</defs>
</svg>
