<svg width="179" height="13" viewBox="0 0 179 13" fill="none" xmlns="http://www.w3.org/2000/svg">
<path d="M2 7.40518C4.59568 6.75966 6.98744 6.08192 9.79849 5.47527C14.9655 4.36019 20.5684 3.2573 26.4745 2.3177C29.7277 1.80015 24.936 2.59257 28.5612 2.20808C29.5995 2.09796 30.6739 2 31.8474 2C33.3982 2 31.113 2.64229 30.8419 2.74908C24.7072 5.16575 23.725 6.03779 18.1855 8.51839C15.5617 9.69335 25.9603 8.95429 27.995 8.74208C34.5681 8.05648 40.4937 7.04939 45.9952 6.03707C48.3154 5.61014 51.5019 4.75826 54.4804 4.52852C55.7052 4.43404 55.1738 5.29738 55.167 5.37123C55.0218 6.9525 53.293 8.53696 51.6356 10.0738C51.5831 10.1225 50.3942 11.1382 51.1207 10.9841C57.5497 9.62038 63.0283 8.05488 69.4397 6.68211C71.1553 6.31479 75.9229 5.04746 78.9549 5.10593C81.0443 5.14622 81.2712 6.54697 81.677 6.85898C82.3592 7.38358 82.8986 8.11943 85.6253 8.33632C89.1978 8.6205 92.8207 8.06163 95.3366 7.58725C97.4622 7.18646 103.446 5.52499 106.397 6.40121C110.852 7.7243 115.565 7.74266 120.964 6.51565C124.536 5.70372 127.908 4.77152 133.201 4.46609C139.016 4.13052 144.12 4.88682 148.651 5.5689C153.839 6.34994 161.239 8.11024 168.441 7.97739C170.657 7.93652 175.182 7.40971 177 7.79532" stroke="url(#paint0_linear_859_38872)" stroke-width="3" stroke-linecap="square"/>
<defs>
<linearGradient id="paint0_linear_859_38872" x1="13.0833" y1="4.75001" x2="170.7" y2="14.2496" gradientUnits="userSpaceOnUse">
<stop stop-color="#39B6D8"/>
<stop offset="0.5" stop-color="#F7D344"/>
<stop offset="1" stop-color="#E38330"/>
</linearGradient>
</defs>
</svg>
