<svg xmlns="http://www.w3.org/2000/svg" width="1440" height="503" viewBox="0 0 1440 503" fill="none">
  <path opacity="0.2" d="M-115 228.885C-99.7847 221.433 -80.2199 217.345 -63.5991 212.088C17.1166 186.556 95.1622 157.376 172.656 127.264C218.955 109.274 265.309 91.7965 313.184 76.0338C313.379 75.9694 340.731 65.5323 337.941 71.1628C330.2 86.7864 313.462 103.034 302.573 117.354C253.667 181.674 203.351 245.483 152.851 309.173C120.414 350.082 86.3522 390.323 54.0571 431.286C43.269 444.969 30.9752 457.47 59.4801 441.532C218.384 352.683 367.901 254.807 522.088 161.865C554.558 142.293 587.651 121.314 624.89 106.268C643.226 98.8596 630.182 114.781 626.305 119.873C612.675 137.776 597.143 154.968 581.742 172.111C574.477 180.197 542.238 210.659 579.148 192.268C649.409 157.258 711.926 114.823 782.63 80.233C801.215 71.1407 826.522 58.9394 849.592 54.8699C899.861 46.0025 845.651 107.785 843.698 110.635C801.105 172.774 752.71 232.856 710.244 295.064C709.114 296.72 689.059 326.669 687.609 330.673C679.867 352.043 721.458 343.251 734.058 340.919C797.563 329.169 852.102 303.308 907.359 279.275C911.842 277.325 966.639 250.178 951.922 271.548C939.502 289.585 920.54 305.515 904.53 321.939C902.618 323.9 867.577 359.979 887.082 351.501C960.322 319.666 1023.71 272.509 1088.68 233.084C1144.5 199.206 1200.24 164.887 1259.62 134.151C1263.02 132.391 1290.83 115.413 1285.09 130.791C1276.59 153.538 1254.46 173.218 1242.17 194.955C1229.69 217.029 1234.65 228.989 1271.41 229.221C1328.94 229.583 1385.77 218.045 1442.12 211.416C1459.33 209.391 1493.61 203.204 1506.01 216.623C1520.18 231.946 1499.59 254.588 1495.4 269.869C1477.66 334.647 1835.84 231.196 1867 222.838" stroke="white" stroke-width="108" stroke-linecap="round"/>
</svg>