<svg width="120" height="10" viewBox="0 0 120 10" fill="none" xmlns="http://www.w3.org/2000/svg">
<path d="M2 5.8046C4.53102 5.2308 6.86319 4.62837 9.60421 4.08913C14.6425 3.09794 20.1058 2.1176 25.8648 1.2824C29.0369 0.822355 24.3646 1.52673 27.8995 1.18496C28.9119 1.08708 29.9596 1 31.1038 1C32.6159 1 30.3877 1.57093 30.1234 1.66585C24.1415 3.814 23.1837 4.58915 17.7823 6.79413C15.2239 7.83853 25.3634 7.18159 27.3473 6.99296C33.7567 6.38354 39.5347 5.48835 44.8992 4.58851C47.1616 4.20901 50.2687 3.45178 53.173 3.24757C54.3672 3.16359 53.8491 3.93101 53.8425 3.99665C53.7009 5.40222 52.0151 6.81063 50.3991 8.17668C50.3478 8.22002 49.1886 9.12284 49.8969 8.98587C56.1658 7.77367 61.5079 6.38211 67.7596 5.16188C69.4324 4.83537 74.0813 3.70886 77.0377 3.76083C79.075 3.79664 79.2964 5.04175 79.692 5.31909C80.3573 5.7854 80.8832 6.4395 83.542 6.63229C87.0254 6.88489 90.5581 6.38812 93.0113 5.96644C95.084 5.61018 100.919 4.13333 103.796 4.91219C108.14 6.08827 112.736 6.10458 118 5.01391" stroke="url(#paint0_linear_1082_4774)" stroke-width="2" stroke-linecap="square"/>
<defs>
<linearGradient id="paint0_linear_1082_4774" x1="9.34667" y1="3.44445" x2="113.992" y2="8.14769" gradientUnits="userSpaceOnUse">
<stop stop-color="#39B6D8"/>
<stop offset="0.5" stop-color="#F7D344"/>
<stop offset="1" stop-color="#E38330"/>
</linearGradient>
</defs>
</svg>
