<svg width="254" height="25" viewBox="0 0 254 25" fill="none" xmlns="http://www.w3.org/2000/svg">
<path d="M3 14.6121C6.67845 13.1059 10.0679 11.5245 14.0516 10.109C21.3739 7.5071 29.314 4.93371 37.6839 2.7413C42.2941 1.53368 35.5036 3.38266 40.641 2.48551C42.1124 2.22858 43.6351 2 45.298 2C47.4957 2 44.2573 3.49868 43.8731 3.74785C35.1794 9.38675 33.7874 11.4215 25.9372 17.2096C22.2189 19.9511 36.9552 18.2267 39.8386 17.7315C49.1537 16.1318 57.5511 13.7819 65.3475 11.4198C68.6356 10.4237 73.1513 8.43593 77.3722 7.89987C79.1079 7.67943 78.3549 9.6939 78.3453 9.8662C78.1395 13.5558 75.6895 17.2529 73.3408 20.8388C73.2663 20.9525 71.5816 23.3224 72.611 22.9629C81.7218 19.7809 89.4858 16.128 98.5717 12.9249C101.003 12.0679 107.759 9.11075 112.056 9.24717C115.017 9.34118 115.339 12.6096 115.914 13.3376C116.88 14.5617 117.645 16.2787 121.509 16.7848C126.572 17.4478 131.706 16.1438 135.271 15.0369C138.284 14.1017 146.764 10.225 150.945 12.2695C157.259 15.3567 163.938 15.3995 171.589 12.5365C176.651 10.642 181.43 8.46687 188.93 7.75422C197.171 6.97122 204.404 8.73591 210.825 10.3274C218.178 12.1499 228.664 16.2572 238.871 15.9472C242.011 15.8519 248.424 14.6227 251 15.5224" stroke="url(#paint0_linear_630_98093)" stroke-width="4" stroke-linecap="square"/>
<defs>
<linearGradient id="paint0_linear_630_98093" x1="18.7067" y1="8.41669" x2="242.583" y2="16.6117" gradientUnits="userSpaceOnUse">
<stop stop-color="#39B6D8"/>
<stop offset="0.5" stop-color="#F7D344"/>
<stop offset="1" stop-color="#E38330"/>
</linearGradient>
</defs>
</svg>
