<svg width="316" height="446" viewBox="0 0 316 446" fill="none" xmlns="http://www.w3.org/2000/svg">
<path opacity="0.85" d="M801.562 647.675C791.745 647.336 781.885 643.507 772.611 641.356C727.573 630.913 681.766 623.591 635.709 617.023C608.193 613.099 580.913 608.84 553.888 603.029C553.778 603.005 537.619 600.569 541.563 597.997C552.508 590.86 567.357 586.26 578.902 580.951C630.759 557.103 682.922 534.029 735.099 511.088C768.612 496.353 802.438 482.558 835.922 467.743C847.107 462.794 858.298 459.065 838.912 459.653C730.841 462.928 621.974 474.827 513.726 482.162C490.93 483.707 467.178 485.918 444.757 483.118C433.717 481.739 446.928 476.14 451.035 474.254C465.476 467.622 480.318 462.047 495.083 456.459C502.048 453.824 530.228 445.478 506.255 444.851C460.621 443.657 414.341 449.566 368.742 447.97C356.755 447.55 340.524 446.868 329.275 441.889C304.763 431.04 357.46 410.483 359.672 409.357C407.914 384.805 457.436 363.41 505.662 338.775C506.946 338.12 530.008 326.132 532.601 324.13C546.436 313.444 525.424 305.368 519.225 302.716C487.984 289.349 453.222 287.611 419.093 284.51C416.324 284.258 380.813 283.231 397.431 274.81C411.457 267.702 427.033 264.02 441.679 259.075C443.428 258.484 475.551 247.578 463.507 246.481C418.281 242.359 369.28 250.902 323.536 254.155C284.228 256.951 244.734 260.048 205.59 259.749C203.349 259.732 183.718 261.189 193.743 253.554C208.571 242.261 227.296 237.292 243.131 227.856C259.211 218.274 263.249 209.276 248.702 197.194C225.937 178.287 197.463 166.956 171.653 152.751C163.769 148.411 146.983 141.1 148.784 128.782C150.84 114.716 170.44 107.417 179.795 99.3371C219.453 65.0851 24.5499 12.662 7.91486 7.70333" stroke="#F5F5F5" stroke-width="14" stroke-linecap="round"/>
</svg>
