<svg width="215" height="22" viewBox="0 0 215 22" fill="none" xmlns="http://www.w3.org/2000/svg">
<g style="mix-blend-mode:lighten">
<path d="M2 12.8104C5.13028 11.5193 8.01464 10.1638 11.4046 8.95053C17.6358 6.72037 24.3926 4.51461 31.5152 2.6354C35.4384 1.6003 29.6598 3.18514 34.0317 2.41615C35.2838 2.19592 36.5796 2 37.9947 2C39.8648 2 37.109 3.28458 36.7821 3.49815C29.384 8.3315 28.1994 10.0756 21.5191 15.0368C18.3549 17.3867 30.8951 15.9086 33.3488 15.4842C41.2758 14.113 48.4218 12.0988 55.0564 10.0741C57.8545 9.22028 61.6972 7.51651 65.2891 7.05703C66.7662 6.86808 66.1254 8.59477 66.1172 8.74246C65.9421 11.905 63.8572 15.0739 61.8585 18.1475C61.7951 18.245 60.3614 20.2764 61.2374 19.9682C68.9906 17.2408 75.5975 14.1098 83.3295 11.3642C85.3983 10.6296 91.1479 8.09493 94.8043 8.21186C97.324 8.29244 97.5977 11.0939 98.0871 11.718C98.9098 12.7672 99.5603 14.2389 102.849 14.6726C107.157 15.241 111.526 14.1233 114.56 13.1745C117.123 12.3729 124.34 9.04999 127.898 10.8024C133.271 13.4486 138.954 13.4853 145.465 11.0313C149.773 9.40745 153.84 7.54303 160.223 6.93219C167.235 6.26104 173.39 7.77364 178.855 9.1378C185.112 10.6999 194.035 14.2205 202.721 13.9548C205.393 13.873 210.85 12.8194 213.043 13.5906" stroke="url(#paint0_linear_3024_487)" stroke-width="3" stroke-linecap="square"/>
</g>
<defs>
<linearGradient id="paint0_linear_3024_487" x1="10.9593" y1="13.3695" x2="224.689" y2="44.4395" gradientUnits="userSpaceOnUse">
<stop stop-color="#39B6D8"/>
<stop offset="0.526042" stop-color="#F1D24B"/>
<stop offset="1" stop-color="#E38330"/>
</linearGradient>
</defs>
</svg>
