<svg width="403" height="126" viewBox="0 0 403 126" fill="none" xmlns="http://www.w3.org/2000/svg">
<path fill-rule="evenodd" clip-rule="evenodd" d="M297.91 18.9408C317.178 21.3803 332.115 26.888 347.002 32.8727C395.822 52.5187 410.304 76.5083 373.499 94.6738C316.275 122.829 188.993 131.736 93.1987 111.249C71.9823 106.723 43.1459 101.659 23.0216 88.4028C4.30076 76.0761 6.41447 64.0043 16.6845 53.7093C27.1498 43.1469 46.0997 34.4132 61.0166 29.089C126.228 5.87334 253.372 -8.03373 364.251 18.151C366.532 18.6709 368.893 18.4428 369.644 17.6543C370.395 16.8659 369.337 15.8228 367.22 15.3204C253.085 -11.6302 121.919 2.43851 54.7995 26.33C36.2381 32.9731 11.6278 44.7378 3.46784 58.7439C-2.05332 68.3227 -0.00701511 78.9293 16.2099 89.686C37.5785 103.8 68.1979 109.365 90.719 114.178C189.614 135.333 321.254 126.233 380.245 97.1427C419.865 77.6245 404.573 51.8459 352.07 30.7263C336.067 24.2488 319.666 18.3784 298.751 15.7313C296.445 15.4401 294.392 15.9234 294.297 16.8237C294.036 17.7064 295.77 18.6671 297.91 18.9408Z" fill="url(#paint0_linear_2_24293)"/>
<defs>
<linearGradient id="paint0_linear_2_24293" x1="209.688" y1="-5.47614" x2="195.553" y2="127.913" gradientUnits="userSpaceOnUse">
<stop stop-color="#39B6D8"/>
<stop offset="0.5" stop-color="#F7D344"/>
<stop offset="1" stop-color="#E38330"/>
</linearGradient>
</defs>
</svg>
