<?xml version="1.0" encoding="UTF-8"?>
<svg width="24px" height="24px" viewBox="0 0 24 24" version="1.1" xmlns="http://www.w3.org/2000/svg">
    <title>Instagram</title>
    <g stroke="none" stroke-width="1" fill="none" fill-rule="evenodd">
        <path d="M12,2.163c3.204,0,3.584,0.012,4.85,0.07c3.252,0.148,4.771,1.691,4.919,4.919c0.058,1.265,0.069,1.645,0.069,4.849c0,3.205-0.012,3.584-0.069,4.849c-0.149,3.225-1.664,4.771-4.919,4.919c-1.266,0.058-1.644,0.07-4.85,0.07c-3.204,0-3.584-0.012-4.849-0.07c-3.26-0.149-4.771-1.699-4.919-4.92c-0.058-1.265-0.07-1.644-0.07-4.849c0-3.204,0.013-3.583,0.07-4.849C2.381,3.924,3.896,2.38,7.151,2.232C8.417,2.175,8.796,2.163,12,2.163 M12,0C8.741,0,8.332,0.014,7.052,0.072c-4.146,0.189-6.729,2.782-6.919,6.919C0.076,8.272,0.062,8.68,0.062,11.94c0,3.259,0.014,3.668,0.072,4.948c0.19,4.135,2.772,6.729,6.919,6.919c1.28,0.058,1.689,0.072,4.948,0.072c3.259,0,3.668-0.014,4.948-0.072c4.134-0.19,6.731-2.783,6.919-6.919c0.058-1.28,0.072-1.689,0.072-4.948c0-3.26-0.014-3.669-0.072-4.949c-0.188-4.129-2.776-6.729-6.919-6.919C15.668,0.014,15.259,0,12,0" fill="#FFFFFF"/>
        <path d="M12,5.836c-3.403,0-6.164,2.761-6.164,6.164c0,3.403,2.761,6.164,6.164,6.164c3.403,0,6.164-2.761,6.164-6.164C18.164,8.597,15.403,5.836,12,5.836 M12,16c-2.209,0-4-1.791-4-4c0-2.209,1.791-4,4-4c2.209,0,4,1.791,4,4C16,14.209,14.209,16,12,16" fill="#FFFFFF"/>
        <circle fill="#FFFFFF" cx="18.406" cy="5.594" r="1.44"/>
    </g>
</svg>
