<svg width="131" height="19" viewBox="0 0 131 19" fill="none" xmlns="http://www.w3.org/2000/svg">
<path d="M7 9.56282C8.86611 8.83356 14.0521 6.31745 17.3502 6.43352C19.623 6.51352 19.8698 9.29452 20.3112 9.91396C21.0533 10.9555 21.6401 12.4164 24.606 12.847C28.492 13.4112 32.4329 12.3017 35.1696 11.3598C37.4818 10.5641 43.9909 7.26552 47.2004 9.00512C52.0468 11.6319 57.1732 11.6684 63.0458 9.23233C66.9319 7.62036 70.6001 5.76959 76.357 5.16321C82.6823 4.49698 88.2341 5.99851 93.1628 7.35269C98.8065 8.90334 106.856 12.3982 114.69 12.1344C117.101 12.0533 122.023 11.0074 124 11.773" stroke="#E5E5E5" stroke-width="10" stroke-linecap="square"/>
</svg>
