<svg width="176" height="26" viewBox="0 0 176 26" fill="none" xmlns="http://www.w3.org/2000/svg">
<path d="M6 14.8104C9.57833 13.5193 12.8755 12.1638 16.7508 10.9505C23.8738 8.72037 31.5978 6.51461 39.7398 4.6354C44.2246 3.6003 37.6189 5.18514 42.6165 4.41615C44.0478 4.19592 45.5291 4 47.1468 4C49.2846 4 46.1343 5.28458 45.7606 5.49815C37.3036 10.3315 35.9494 12.0756 28.3129 17.0368C24.6958 19.3867 39.031 17.9086 41.8359 17.4842C50.8975 16.113 59.0664 14.0988 66.6506 12.0741C69.8492 11.2203 74.242 9.51651 78.348 9.05703C80.0365 8.86808 79.3039 10.5948 79.2946 10.7425C79.0944 13.905 76.7111 17.0739 74.4263 20.1475C74.3538 20.245 72.7149 22.2764 73.7163 21.9682C82.5792 19.2408 90.1319 16.1098 98.9705 13.3642C101.336 12.6296 107.908 10.0949 112.088 10.2119C114.968 10.2924 115.281 13.0939 115.84 13.718C116.781 14.7672 117.525 16.2389 121.283 16.6726C126.208 17.241 131.203 16.1233 134.671 15.1745C137.602 14.3729 145.851 11.05 149.918 12.8024C156.06 15.4486 162.557 15.4853 170 13.0313" stroke="#262626" stroke-width="8" stroke-linecap="square"/>
</svg>
