<svg width="180" height="13" viewBox="0 0 180 13" fill="none" xmlns="http://www.w3.org/2000/svg">
<path d="M2 7.40518C4.61051 6.75966 7.01594 6.08192 9.84305 5.47527C15.0396 4.36019 20.6745 3.2573 26.6143 2.3177C29.8861 1.80015 25.067 2.59257 28.713 2.20808C29.7572 2.09796 30.8378 2 32.0179 2C33.5776 2 31.2793 2.64229 31.0067 2.74908C24.837 5.16575 23.8491 6.03779 18.278 8.51839C15.6392 9.69335 26.0972 8.95429 28.1435 8.74208C34.7542 8.05648 40.7137 7.04939 46.2466 6.03707C48.5801 5.61014 51.7848 4.75826 54.7803 4.52852C56.0121 4.43404 55.4777 5.29738 55.4708 5.37123C55.3248 6.9525 53.5861 8.53696 51.9193 10.0738C51.8664 10.1225 50.6708 11.1382 51.4013 10.9841C57.8671 9.62038 63.377 8.05488 69.8251 6.68211C71.5505 6.31479 76.3453 5.04746 79.3946 5.10593C81.4959 5.14622 81.7242 6.54697 82.1323 6.85898C82.8184 7.38358 83.3609 8.11943 86.1031 8.33632C89.696 8.6205 93.3396 8.06163 95.8699 7.58725C98.0077 7.18646 104.026 5.52499 106.993 6.40121C111.474 7.7243 116.214 7.74266 121.644 6.51565C125.236 5.70372 128.628 4.77152 133.951 4.46609C139.799 4.13052 144.932 4.88682 149.489 5.5689C154.707 6.34994 162.149 8.11024 169.392 7.97739C171.621 7.93652 176.172 7.40971 178 7.79532" stroke="#E5E5E5" stroke-width="3" stroke-linecap="square"/>
</svg>
