<svg width="105" height="12" viewBox="0 0 105 12" fill="none" xmlns="http://www.w3.org/2000/svg">
<path d="M2 7.00576C3.49808 6.28851 4.87846 5.53546 6.50084 4.86141C9.48293 3.62243 12.7166 2.397 16.1253 1.353C18.0028 0.777944 15.2373 1.65841 17.3296 1.2312C17.9288 1.10885 18.549 1 19.2262 1C20.1212 1 18.8024 1.71366 18.6459 1.83231C15.1053 4.5175 14.5384 5.48644 11.3414 8.24266C9.82706 9.54817 15.8285 8.72699 17.0028 8.4912C20.7965 7.72943 24.2164 6.61044 27.3915 5.48564C28.7306 5.01127 30.5697 4.06473 32.2887 3.80946C32.9956 3.70449 32.6889 4.66376 32.685 4.74581C32.6012 6.50278 31.6034 8.26329 30.6469 9.97085C30.6165 10.025 29.9304 11.1535 30.3496 10.9823C34.0601 9.46709 37.222 7.72764 40.9224 6.20235C41.9125 5.79422 44.6641 4.38607 46.414 4.45103C47.6198 4.4958 47.7508 6.05219 47.985 6.39887C48.3788 6.98176 48.6901 7.79937 50.2637 8.04036C52.3256 8.35611 54.4165 7.73515 55.8685 7.20805C57.0953 6.76273 60.5489 4.91666 62.2518 5.89023C64.8232 7.36034 67.5431 7.38073 70.6591 6.01739C72.7209 5.11525 74.6672 4.07946 77.7217 3.7401C81.0777 3.36725 84.0234 4.20758 86.6384 4.96545C89.6329 5.83327 93.9036 7.78916 98.0604 7.64155C99.3393 7.59613 101.951 7.01079 103 7.43925" stroke="#525252" stroke-width="2" stroke-linecap="square"/>
</svg>
