<svg width="275" height="28" viewBox="0 0 275 28" fill="none" xmlns="http://www.w3.org/2000/svg">
<path d="M7 15.8104C10.8719 14.5193 14.4396 13.1638 18.6328 11.9505C26.3402 9.72037 34.6979 7.51461 43.5079 5.6354C48.3606 4.6003 41.213 6.18514 46.6206 5.41615C48.1693 5.19592 49.7721 5 51.5225 5C53.8357 5 50.427 6.28458 50.0227 6.49815C40.8717 11.3315 39.4065 13.0756 31.1435 18.0368C27.2297 20.3867 42.7409 18.9086 45.7759 18.4842C55.5809 17.113 64.42 15.0988 72.6264 13.0741C76.0874 12.2203 80.8406 10.5165 85.2835 10.057C87.1105 9.86808 86.3179 11.5948 86.3078 11.7425C86.0911 14.905 83.5123 18.0739 81.0401 21.1475C80.9617 21.245 79.1883 23.2764 80.2719 22.9682C89.8619 20.2408 98.0342 17.1098 107.598 14.3642C110.157 13.6296 117.269 11.0949 121.791 11.2119C124.908 11.2924 125.247 14.0939 125.852 14.718C126.87 15.7672 127.674 17.2389 131.741 17.6726C137.07 18.241 142.475 17.1233 146.228 16.1745C149.398 15.3729 158.324 12.05 162.726 13.8024C169.372 16.4486 176.401 16.4853 184.455 14.0313C189.784 12.4074 194.814 10.543 202.709 9.93219C211.383 9.26104 218.996 10.7736 225.755 12.1378C233.494 13.6999 244.532 17.2205 255.276 16.9548C258.581 16.873 265.331 15.8194 268.043 16.5906" stroke="#404040" stroke-width="10" stroke-linecap="square"/>
</svg>
