<svg width="1440" height="376" viewBox="0 0 1440 376" fill="none" xmlns="http://www.w3.org/2000/svg">
<path opacity="0.6" d="M-198 155.885C-182.785 148.433 -163.22 144.345 -146.599 139.088C-65.8834 113.556 12.1622 84.3761 89.6564 54.264C135.955 36.2737 182.309 18.7965 230.184 3.03383C230.379 2.96937 257.731 -7.46768 254.941 -1.83724C247.2 13.7864 230.462 30.0342 219.573 44.3539C170.667 108.674 120.351 172.483 69.8506 236.173C37.4138 277.082 3.35216 317.323 -28.9429 358.286C-39.731 371.969 -52.0248 384.47 -23.5199 368.532C135.384 279.683 284.901 181.807 439.088 88.8654C471.558 69.2932 504.651 48.3139 541.89 33.2681C560.226 25.8596 547.182 41.7815 543.305 46.8735C529.674 64.7762 514.143 81.9683 498.742 99.1115C491.477 107.197 459.238 137.659 496.148 119.268C566.409 84.2583 628.926 41.8231 699.63 7.23303C718.215 -1.85927 743.522 -14.0606 766.592 -18.1301C816.861 -26.9975 762.651 34.7854 760.698 37.6352C718.105 99.7745 669.71 159.856 627.244 222.064C626.114 223.72 606.059 253.669 604.609 257.673C596.867 279.043 638.458 270.251 651.058 267.919C714.563 256.169 769.102 230.308 824.359 206.275C828.842 204.325 883.639 177.177 868.922 198.548C856.502 216.585 837.54 232.515 821.53 248.939C819.618 250.9 784.577 286.979 804.082 278.501C877.322 246.666 940.709 199.509 1005.68 160.084C1061.5 126.206 1117.24 91.8869 1176.62 61.1507C1180.02 59.391 1207.83 42.4125 1202.09 57.7914C1193.59 80.5378 1171.46 100.218 1159.17 121.955C1146.69 144.029 1151.65 155.989 1188.41 156.221C1245.94 156.583 1302.77 145.045 1359.12 138.416C1376.33 136.391 1410.61 130.204 1423.01 143.623C1437.18 158.946 1416.59 181.588 1412.4 196.869C1394.66 261.647 1752.84 158.196 1784 149.838" stroke="#262626" stroke-width="68" stroke-linecap="round"/>
</svg>
