<svg width="406" height="27" viewBox="0 0 406 27" fill="none" xmlns="http://www.w3.org/2000/svg">
<path d="M0 15.8128C5.99231 14.1631 11.5139 12.4311 18.0034 10.8807C29.9317 8.0311 42.8664 5.21262 56.5011 2.81141C64.0113 1.48878 52.9493 3.51386 61.3185 2.53126C63.7153 2.24986 66.1959 1.99951 68.9048 1.99951C72.4849 1.99951 67.2094 3.64092 66.5836 3.91382C52.4213 10.0898 50.1536 12.3183 37.3655 18.6576C31.3082 21.6603 55.3141 19.7716 60.0112 19.2293C75.1858 17.4772 88.8655 14.9035 101.566 12.3165C106.923 11.2254 114.279 9.04839 121.155 8.46128C123.982 8.21984 122.756 10.4262 122.74 10.6149C122.405 14.6559 118.414 18.7051 114.587 22.6325C114.466 22.7571 111.722 25.3527 113.399 24.9589C128.24 21.4738 140.888 17.4731 155.689 13.9649C159.65 13.0262 170.656 9.78747 177.656 9.93689C182.479 10.0399 183.003 13.6196 183.94 14.4169C185.515 15.7576 186.76 17.6381 193.055 18.1923C201.302 18.9186 209.666 17.4903 215.474 16.278C220.381 15.2538 234.196 11.0078 241.007 13.247C251.293 16.6283 262.173 16.6752 274.636 13.5395C282.884 11.4646 290.669 9.08228 302.887 8.30175C316.311 7.44418 328.094 9.37694 338.554 11.12C350.532 13.116 367.614 17.6146 384.242 17.2751C389.357 17.1706 399.803 15.8243 404 16.8098" stroke="url(#paint0_linear_844_7576)" stroke-width="3" stroke-linecap="square"/>
<defs>
<linearGradient id="paint0_linear_844_7576" x1="25.5867" y1="9.02731" x2="389.697" y2="28.8515" gradientUnits="userSpaceOnUse">
<stop stop-color="#39B6D8"/>
<stop offset="0.5" stop-color="#F7D344"/>
<stop offset="1" stop-color="#E38330"/>
</linearGradient>
</defs>
</svg>
