<svg width="136" height="28" viewBox="0 0 136 28" fill="none" xmlns="http://www.w3.org/2000/svg">
<path d="M7 15.8104C9.66193 14.5193 12.1147 13.1638 14.9975 11.9505C20.2964 9.72037 26.0423 7.51461 32.0991 5.6354C35.4354 4.6003 30.5214 6.18514 34.2391 5.41615C35.3039 5.19592 36.4058 5 37.6092 5C39.1995 5 36.856 6.28458 36.578 6.49815C30.2868 11.3315 29.2794 13.0756 23.5986 18.0368C20.9079 20.3867 31.5718 18.9086 33.6584 18.4842C40.3993 17.113 46.4762 15.0988 52.1181 13.0741C54.4975 12.2203 57.7654 10.5165 60.8198 10.057C62.0759 9.86808 61.531 11.5948 61.524 11.7425C61.3751 14.905 59.6021 18.0739 57.9025 21.1475C57.8486 21.245 56.6294 23.2764 57.3743 22.9682C63.9675 20.2408 69.5859 17.1098 76.161 14.3642C77.9203 13.6296 82.8096 11.0949 85.919 11.2119C88.0617 11.2924 88.2944 14.0939 88.7106 14.718C89.4102 15.7672 89.9634 17.2389 92.7596 17.6726C96.4233 18.241 100.139 17.1233 102.719 16.1745C104.899 15.3729 111.035 12.05 114.061 13.8024C118.63 16.4486 123.463 16.4853 129 14.0313" stroke="#E5E5E5" stroke-width="10" stroke-linecap="square"/>
</svg>
