<svg width="184" height="18" viewBox="0 0 184 18" fill="none" xmlns="http://www.w3.org/2000/svg">
<path d="M4 10.2069C6.61051 9.34621 9.01594 8.44255 11.843 7.63369C17.0396 6.14692 22.6745 4.67641 28.6143 3.4236C31.8861 2.73353 27.067 3.79009 30.713 3.27744C31.7572 3.13061 32.8378 3 34.0179 3C35.5776 3 33.2793 3.85639 33.0067 3.99877C26.837 7.221 25.8491 8.38373 20.278 11.6912C17.6392 13.2578 28.0972 12.2724 30.1435 11.9894C36.7542 11.0753 42.7137 9.73252 48.2466 8.38277C50.5801 7.81352 53.7848 6.67768 56.7803 6.37136C58.0121 6.24539 57.4777 7.39651 57.4708 7.49497C57.3248 9.60334 55.5861 11.716 53.9193 13.765C53.8664 13.83 52.6708 15.1843 53.4013 14.9788C59.8671 13.1605 65.377 11.0732 71.8251 9.24282C73.5505 8.75306 78.3453 7.06328 81.3946 7.14124C83.4959 7.19496 83.7242 9.06263 84.1323 9.47864C84.8184 10.1781 85.3609 11.1592 88.1031 11.4484C91.696 11.8273 95.3396 11.0822 97.8699 10.4497C100.008 9.91528 106.026 7.69999 108.993 8.86828C113.474 10.6324 118.214 10.6569 123.644 9.02087C127.236 7.9383 130.628 6.69536 135.951 6.28812C141.799 5.84069 146.932 6.84909 151.489 7.75854C156.707 8.79992 164.149 11.147 171.392 10.9699C173.621 10.9154 178.172 10.213 180 10.7271" stroke="#262626" stroke-width="6" stroke-linecap="square"/>
</svg>
