<svg width="186" height="88" viewBox="0 0 186 88" fill="none" xmlns="http://www.w3.org/2000/svg">
<path fill-rule="evenodd" clip-rule="evenodd" d="M138.404 12.1657C147.188 13.3687 153.911 16.7672 160.6 20.4921C182.534 32.7211 188.607 48.7322 171.282 61.9976C144.35 82.562 85.7269 91.6765 42.2561 79.9964C32.628 77.4172 19.5159 74.6537 10.5976 66.0959C2.30109 58.1383 3.55951 49.8568 8.51844 42.5918C13.5733 35.1399 22.4782 28.7321 29.4508 24.7454C59.9312 7.35788 118.61 -5.16244 168.867 10.0421C169.901 10.3421 170.99 10.1302 171.354 9.5746C171.717 9.01904 171.256 8.33316 170.297 8.04117C118.564 -7.60784 58.0356 5.11884 26.6637 23.0128C17.9871 27.9858 6.41224 36.5955 2.33298 46.3404C-0.429557 53.0036 0.256068 60.1867 7.44102 67.1335C16.9099 76.2462 30.8282 79.3094 41.0482 82.0526C85.9258 94.1142 146.553 84.764 174.319 63.5198C192.967 49.2648 186.565 32.0533 162.977 18.9075C155.788 14.8732 148.401 11.2625 138.867 9.9573C137.816 9.81381 136.862 10.1924 136.796 10.8085C136.656 11.4167 137.428 12.0302 138.404 12.1657Z" fill="url(#paint0_linear_4_49180)"/>
<defs>
<linearGradient id="paint0_linear_4_49180" x1="98.5024" y1="-2.37482" x2="88.8285" y2="88.9134" gradientUnits="userSpaceOnUse">
<stop stop-color="#39B6D8"/>
<stop offset="0.5" stop-color="#F7D344"/>
<stop offset="1" stop-color="#E38330"/>
</linearGradient>
</defs>
</svg>
