<svg width="227" height="20" viewBox="0 0 227 20" fill="none" xmlns="http://www.w3.org/2000/svg">
<path d="M2 11.8104C6.86566 10.5193 11.3491 9.16383 16.6184 7.95053C26.304 5.72037 36.8068 3.51461 47.8779 1.6354C53.9761 0.600299 44.994 2.18514 51.7896 1.41615C53.7358 1.19592 55.7499 1 57.9495 1C60.8565 1 56.5729 2.28458 56.0648 2.49815C44.5652 7.3315 42.7239 9.07559 32.3401 14.0368C27.4218 16.3867 46.9141 14.9086 50.7281 14.4842C63.0496 13.113 74.1573 11.0988 84.47 9.07415C88.8193 8.22028 94.7924 6.51651 100.376 6.05703C102.672 5.86808 101.675 7.59477 101.663 7.74246C101.391 10.905 98.1498 14.0739 95.0431 17.1475C94.9445 17.245 92.716 19.2764 94.0777 18.9682C106.129 16.2408 116.399 13.1098 128.417 10.3642C131.633 9.62959 140.57 7.09493 146.254 7.21186C150.17 7.29244 150.596 10.0939 151.356 10.718C152.635 11.7672 153.646 13.2389 158.757 13.6726C165.454 14.241 172.245 13.1233 176.961 12.1745C180.946 11.3729 192.163 8.04999 197.694 9.80242C206.046 12.4486 214.88 12.4853 225 10.0313" stroke="url(#paint0_linear_193_22247)" stroke-width="2" stroke-linecap="square"/>
<defs>
<linearGradient id="paint0_linear_193_22247" x1="16.1233" y1="6.50002" x2="217.404" y2="14.2294" gradientUnits="userSpaceOnUse">
<stop stop-color="#39B6D8"/>
<stop offset="0.5" stop-color="#F7D344"/>
<stop offset="1" stop-color="#E38330"/>
</linearGradient>
</defs>
</svg>
