<svg width="1320" height="736" viewBox="0 0 1320 736" fill="none" xmlns="http://www.w3.org/2000/svg">
<path opacity="0.5" d="M-1389.59 1106.89C-1374.16 1074.56 -1347.78 1049.88 -1327.5 1023.42C-1228.99 894.95 -1139.1 756.915 -1051.2 616.357C-998.684 532.381 -945.468 449.947 -887.781 371.844C-887.545 371.525 -856.293 322.502 -854.039 341.539C-847.785 394.365 -855.16 454.681 -855.487 505.447C-856.956 733.471 -861.285 960.798 -866.052 1187.87C-869.113 1333.73 -875.565 1478.53 -878.335 1624.46C-879.261 1673.21 -884.001 1719.26 -857.462 1652.61C-709.52 1281.06 -587.329 887.576 -451.798 506.37C-423.257 426.093 -395.397 341.104 -353.844 271.79C-333.384 237.66 -335.246 294.687 -335.371 312.742C-335.808 376.221 -340.129 438.693 -344.3 500.933C-346.268 530.29 -361.463 643.902 -324.423 564.506C-253.913 413.371 -204.622 244.199 -132.905 94.0785C-114.053 54.6179 -88.1688 1.4364 -56.1676 -25.3594C13.5623 -83.7469 0.597475 139.762 0.873474 149.733C6.89142 367.144 1.18693 581.82 7.48873 799.366C7.65648 805.157 11.314 909.65 13.7685 922.857C26.8698 993.349 82.8266 940.565 100.175 925.596C187.611 850.149 243.911 736.874 303.536 628.773C308.373 620.003 363.55 502.612 365.511 577.426C367.166 640.568 355.861 701.284 349.86 761.689C349.143 768.902 336.167 901.52 357.219 863.378C436.27 720.155 481.325 535.931 538.117 374.495C586.919 235.775 635.054 95.754 693.274 -35.5065C696.607 -43.0216 720.79 -112.437 729.946 -61.6018C743.489 13.5871 731.592 87.7944 737.865 162.231C744.235 237.821 766.407 271.521 825.402 249.472C917.724 214.968 994.76 144.302 1076.86 89.0345C1101.95 72.1522 1149.33 31.9046 1185.14 65.4782C1226.02 103.816 1220.12 186.173 1231.64 235.745C1280.5 445.883 1729.34 -93.9405 1769.16 -138.933" stroke="#262626" stroke-width="64" stroke-linecap="round"/>
</svg>
