<svg width="40" height="40" viewBox="0 0 40 40" fill="none" xmlns="http://www.w3.org/2000/svg">
<rect width="40" height="40" fill="#090909"/>
<circle cx="20" cy="20" r="19.6246" stroke="url(#paint0_linear_2427_6470)" stroke-width="0.750863"/>
<path d="M17.8699 19.715C17.8474 19.715 17.8324 19.715 17.8099 19.715C17.7724 19.7075 17.7199 19.7075 17.6749 19.715C15.4999 19.6475 13.8574 17.9375 13.8574 15.83C13.8574 13.685 15.6049 11.9375 17.7499 11.9375C19.8949 11.9375 21.6424 13.685 21.6424 15.83C21.6349 17.9375 19.9849 19.6475 17.8924 19.715C17.8849 19.715 17.8774 19.715 17.8699 19.715ZM17.7499 13.0625C16.2274 13.0625 14.9824 14.3075 14.9824 15.83C14.9824 17.33 16.1524 18.5375 17.6449 18.59C17.6899 18.5825 17.7874 18.5825 17.8849 18.59C19.3549 18.5225 20.5099 17.315 20.5174 15.83C20.5174 14.3075 19.2724 13.0625 17.7499 13.0625Z" fill="white"/>
<path d="M23.4048 19.8125C23.3823 19.8125 23.3598 19.8125 23.3373 19.805C23.0298 19.835 22.7148 19.6175 22.6848 19.31C22.6548 19.0025 22.8423 18.725 23.1498 18.6875C23.2398 18.68 23.3373 18.68 23.4198 18.68C24.5148 18.62 25.3698 17.72 25.3698 16.6175C25.3698 15.4775 24.4473 14.555 23.3073 14.555C22.9998 14.5625 22.7448 14.3075 22.7448 14C22.7448 13.6925 22.9998 13.4375 23.3073 13.4375C25.0623 13.4375 26.4948 14.87 26.4948 16.625C26.4948 18.35 25.1448 19.745 23.4273 19.8125C23.4198 19.8125 23.4123 19.8125 23.4048 19.8125Z" fill="white"/>
<path d="M17.8767 27.9125C16.4067 27.9125 14.9292 27.5375 13.8117 26.7875C12.7692 26.0975 12.1992 25.1525 12.1992 24.125C12.1992 23.0975 12.7692 22.145 13.8117 21.4475C16.0617 19.955 19.7067 19.955 21.9417 21.4475C22.9767 22.1375 23.5542 23.0825 23.5542 24.11C23.5542 25.1375 22.9842 26.09 21.9417 26.7875C20.8167 27.5375 19.3467 27.9125 17.8767 27.9125ZM14.4342 22.3925C13.7142 22.8725 13.3242 23.4875 13.3242 24.1325C13.3242 24.77 13.7217 25.385 14.4342 25.8575C16.3017 27.11 19.4517 27.11 21.3192 25.8575C22.0392 25.3775 22.4292 24.7625 22.4292 24.1175C22.4292 23.48 22.0317 22.865 21.3192 22.3925C19.4517 21.1475 16.3017 21.1475 14.4342 22.3925Z" fill="white"/>
<path d="M24.7556 26.5625C24.4931 26.5625 24.2606 26.3825 24.2081 26.1125C24.1481 25.805 24.3431 25.5125 24.6431 25.445C25.1156 25.3475 25.5506 25.16 25.8881 24.8975C26.3156 24.575 26.5481 24.17 26.5481 23.7425C26.5481 23.315 26.3156 22.91 25.8956 22.595C25.5656 22.34 25.1531 22.16 24.6656 22.0475C24.3656 21.98 24.1706 21.68 24.2381 21.3725C24.3056 21.0725 24.6056 20.8775 24.9131 20.945C25.5581 21.0875 26.1206 21.3425 26.5781 21.695C27.2756 22.22 27.6731 22.9625 27.6731 23.7425C27.6731 24.5225 27.2681 25.265 26.5706 25.7975C26.1056 26.1575 25.5206 26.42 24.8756 26.5475C24.8306 26.5625 24.7931 26.5625 24.7556 26.5625Z" fill="white"/>
<defs>
<linearGradient id="paint0_linear_2427_6470" x1="20" y1="0" x2="20" y2="40" gradientUnits="userSpaceOnUse">
<stop stop-color="#39B6D8"/>
<stop offset="0.5" stop-color="#F7D344"/>
<stop offset="1" stop-color="#E38330"/>
</linearGradient>
</defs>
</svg>
