<svg width="561" height="624" viewBox="0 0 561 624" fill="none" xmlns="http://www.w3.org/2000/svg">
<path opacity="0.85" d="M1748.01 849.428C1728.93 855.932 1708.84 854.931 1690.34 857.122C1600.46 867.766 1509.92 885.714 1419.09 905.475C1364.83 917.281 1310.94 928.19 1257.13 935.558C1256.91 935.589 1225.01 942.238 1231.96 933.779C1251.24 910.305 1278.74 889.432 1299.66 869.462C1393.65 779.764 1488.43 691.51 1583.28 603.534C1644.2 547.026 1705.97 492.317 1766.81 435.66C1787.14 416.734 1807.8 400.436 1770.45 415.991C1562.29 502.7 1354.87 608.616 1147.44 704.221C1103.75 724.354 1058.4 746.631 1014.29 757.108C992.568 762.267 1016.64 740.445 1024.08 733.346C1050.26 708.387 1077.49 685.413 1104.57 662.469C1117.34 651.647 1169.64 612.863 1123.1 629.175C1034.52 660.228 946.572 707.088 857.949 737.246C834.654 745.173 803.078 755.661 780.001 753.202C729.717 747.844 826.2 664.629 830.181 660.568C916.989 572.015 1007.11 489.332 1093.87 400.61C1096.17 398.248 1137.61 355.375 1142.09 349.142C1166.02 315.876 1123.24 313.925 1110.55 312.767C1046.58 306.933 978.885 328.797 912.051 347.253C906.629 348.75 837.669 372.701 867.583 342.274C892.83 316.594 921.981 297.167 949.001 275.698C952.227 273.134 1011.47 225.917 987.885 232.423C899.317 256.853 806.799 311.405 719.182 352.139C643.894 387.141 553.181 397.927 451.955 411.424C399.455 418.424 414.749 376.031 432.117 352.161C457.806 316.854 492.71 292.327 520.839 260.288C549.403 227.753 554.83 205.351 523.493 189.988C474.455 165.945 416.378 162.466 362.694 150.819C346.296 147.261 311.891 143.845 312.112 115.926C312.364 84.045 348.343 53.8435 364.297 29.506C431.932 -73.6635 41.0638 -43.2106 7.57482 -41.6571" stroke="#F5F5F5" stroke-width="14" stroke-linecap="round"/>
</svg>
