<svg width="307" height="57" viewBox="0 0 307 57" fill="none" xmlns="http://www.w3.org/2000/svg">
<path d="M5 33.4282C9.64256 29.9137 13.9204 26.2238 18.9482 22.9209C28.1897 16.8499 38.2108 10.8453 48.7744 5.72969C54.5929 2.91193 46.0226 7.22621 52.5066 5.13286C54.3636 4.53334 56.2854 4 58.3842 4C61.1578 4 57.0707 7.49692 56.5858 8.07831C45.6135 21.2357 43.8566 25.9835 33.949 39.489C29.2561 45.886 47.8547 41.8623 51.4938 40.7069C63.2504 36.9742 73.8488 31.4911 83.6886 25.9796C87.8385 23.6552 93.5378 19.0172 98.8649 17.7664C101.056 17.252 100.105 21.9524 100.093 22.3545C99.8333 30.9636 96.7412 39.5901 93.7769 47.9572C93.6829 48.2226 91.5566 53.7524 92.8558 52.9135C104.355 45.4887 114.153 36.9654 125.621 29.4915C128.689 27.4917 137.216 20.5917 142.639 20.9101C146.376 21.1294 146.782 28.7557 147.508 30.4544C148.728 33.3106 149.693 37.3169 154.57 38.4978C160.959 40.0449 167.439 37.0022 171.939 34.4195C175.741 32.2374 186.444 23.1916 191.721 27.9621C199.69 35.1657 208.119 35.2656 217.775 28.5852C224.165 24.1647 230.196 19.0894 239.662 17.4265C250.063 15.5995 259.191 19.7171 267.295 23.4307C276.575 27.683 289.81 37.2669 302.692 36.5436" stroke="url(#paint0_linear_3969_1848)" stroke-width="7" stroke-linecap="square"/>
<defs>
<linearGradient id="paint0_linear_3969_1848" x1="23.8538" y1="18.9723" x2="292.853" y2="24.0379" gradientUnits="userSpaceOnUse">
<stop stop-color="#39B6D8"/>
<stop offset="0.5" stop-color="#F7D344"/>
<stop offset="1" stop-color="#E38330"/>
</linearGradient>
</defs>
</svg>
