<svg width="1429" height="433" viewBox="0 0 1429 433" fill="none" xmlns="http://www.w3.org/2000/svg">
<path opacity="0.53" d="M35.7864 381.035C27.3896 400.844 17.7631 418.965 40.3276 395.727C166.116 266.182 284.207 123.74 406.136 -11.6473C431.812 -40.1581 457.963 -70.7006 487.549 -92.7457C502.117 -103.601 491.952 -80.5466 488.938 -73.1768C478.34 -47.2654 466.205 -22.3571 454.172 2.47932C448.497 14.1939 423.209 58.3765 452.469 31.5193C508.168 -19.6055 557.516 -81.3385 613.578 -131.864C628.314 -145.146 648.384 -162.972 666.811 -169.07C706.964 -182.358 664.64 -92.862 663.126 -88.7396C630.127 1.14789 592.435 88.1333 559.538 178.119C558.662 180.514 543.137 223.833 542.049 229.611C536.239 260.452 569.433 247.362 579.496 243.875C630.21 226.3 673.47 188.507 717.34 153.338C720.899 150.485 764.342 110.838 752.938 141.752C743.313 167.844 728.402 190.972 715.869 214.778C714.372 217.621 686.942 269.919 702.427 257.512C760.574 210.925 810.533 142.387 861.904 84.9611C906.046 35.6152 950.109 -14.3645 997.16 -59.2251C999.853 -61.7935 1021.84 -86.5222 1017.52 -64.3259C1011.14 -31.496 993.753 -2.93747 984.302 28.479C974.705 60.3816 978.905 77.5457 1008.39 77.4963C1054.54 77.4189 1099.91 60.2177 1144.98 50.0894C1158.74 46.9955 1186.12 37.7326 1196.32 56.9186C1207.97 78.8271 1191.88 111.632 1188.81 133.672C1175.79 227.099 1461.13 74.4582 1485.97 62.1028" stroke="#262626" stroke-width="51" stroke-linecap="round"/>
</svg>
