<svg width="836" height="94" viewBox="0 0 836 94" fill="none" xmlns="http://www.w3.org/2000/svg">
<path d="M-22 44.1222C-15.0756 41.1607 -6.17171 39.5363 1.39234 37.4469C38.1257 27.3001 73.644 15.7035 108.911 3.73642C129.982 -3.41324 151.077 -10.359 172.865 -16.6234C172.954 -16.649 185.401 -20.7969 184.132 -18.5592C180.609 -12.3501 172.991 -5.89294 168.036 -0.202026C145.779 25.3598 122.88 50.7187 99.8977 76.0304C85.1358 92.2882 69.6345 108.281 54.9372 124.56C50.0275 129.998 44.4327 134.966 57.4052 128.632C129.722 93.322 197.766 54.4242 267.936 17.4876C282.713 9.70927 297.774 1.37173 314.721 -4.60775C323.066 -7.552 317.129 -1.22438 315.365 0.799274C309.162 7.91414 302.093 14.7466 295.084 21.5596C291.778 24.7731 277.106 36.879 293.904 29.57C325.879 15.6567 354.331 -1.20784 386.507 -14.9545C394.965 -18.568 406.483 -23.417 416.982 -25.0343C439.859 -28.5584 415.188 -4.00475 414.299 -2.87216C394.916 21.8231 372.891 45.7004 353.565 70.4231C353.051 71.0812 343.924 82.9837 343.264 84.5748C339.741 93.0676 358.669 89.5733 364.403 88.6468C393.303 83.9769 418.124 73.6994 443.271 64.1483C445.312 63.3734 470.249 52.5844 463.552 61.0776C457.899 68.2457 449.27 74.5767 441.984 81.1036C441.114 81.8831 425.167 96.2216 434.043 92.8522C467.375 80.2003 496.222 61.4594 525.788 45.7911C551.195 32.3274 576.561 18.6884 603.584 6.47331C605.131 5.77396 617.786 -0.973588 615.173 5.13825C611.308 14.1781 601.237 21.9994 595.644 30.6381C589.964 39.4104 592.22 44.1636 608.949 44.2557C635.129 44.3999 660.995 39.8142 686.638 37.1799C694.471 36.3752 710.072 33.9163 715.717 39.2492C722.163 45.3389 712.793 54.3371 710.888 60.4101C702.814 86.1542 865.817 45.0408 880 41.7191" stroke="white" stroke-opacity="0.08" stroke-width="20" stroke-linecap="round"/>
</svg>
