<svg width="440" height="299" viewBox="0 0 440 299" fill="none" xmlns="http://www.w3.org/2000/svg">
<path opacity="0.85" d="M1099.4 119.554C1090.24 126.513 1078.46 130.33 1068.45 135.24C1019.85 159.083 972.86 186.333 926.199 214.453C898.322 231.253 870.411 247.574 841.585 262.294C841.467 262.354 824.998 272.101 826.678 266.843C831.339 252.253 841.418 237.08 847.974 223.707C877.421 163.642 907.717 104.054 938.125 44.577C957.656 6.3746 978.165 -31.2049 997.61 -69.4577C1004.11 -82.2361 1011.51 -93.9097 994.345 -79.026C898.666 3.94525 808.638 95.347 715.799 182.14C696.248 200.418 676.322 220.009 653.9 234.06C642.86 240.978 650.714 226.109 653.048 221.354C661.255 204.636 670.607 188.581 679.881 172.572C684.255 165.021 703.667 136.574 681.442 153.749C639.137 186.443 601.494 226.071 558.922 258.372C547.731 266.863 532.493 278.258 518.602 282.058C488.334 290.339 520.975 232.643 522.152 229.981C547.797 171.953 576.937 115.846 602.507 57.753C603.187 56.2066 615.263 28.2382 616.136 24.4994C620.797 4.54307 595.755 12.7539 588.168 14.9311C549.93 25.9043 517.091 50.0543 483.82 72.4975C481.12 74.3183 448.126 99.6701 456.987 79.7129C464.466 62.8693 475.883 47.993 485.523 32.6559C486.674 30.8245 507.773 -2.86814 496.029 5.04919C451.93 34.7786 413.763 78.8157 374.644 115.633C341.03 147.27 307.469 179.319 271.716 208.022C269.669 209.665 252.926 225.52 256.383 211.159C261.496 189.917 274.821 171.539 282.222 151.24C289.736 130.626 286.751 119.457 264.617 119.241C229.979 118.902 195.758 129.677 161.831 135.868C151.467 137.758 130.826 143.536 123.357 131.005C114.828 116.696 127.225 95.5518 129.745 81.2815C140.429 20.7882 -75.2351 117.396 -94.0001 125.201" stroke="#F5F5F5" stroke-width="32" stroke-linecap="round"/>
</svg>
