<svg width="265" height="29" viewBox="0 0 265 29" fill="none" xmlns="http://www.w3.org/2000/svg">
<path d="M6.5 16.6756C11.9984 15.3845 17.0649 14.0291 23.0195 12.8158C33.9647 10.5856 45.8332 8.37984 58.3441 6.50063C65.2354 5.46553 55.0851 7.05037 62.7645 6.28139C64.9638 6.06116 67.2398 5.86523 69.7255 5.86523C73.0105 5.86523 68.1698 7.14982 67.5956 7.36339C54.6006 12.1967 52.5198 13.9408 40.7857 18.902C35.2277 21.2519 57.2549 19.7738 61.5649 19.3494C75.4888 17.9782 88.041 15.964 99.6948 13.9394C104.61 13.0855 111.36 11.3817 117.669 10.9223C120.263 10.7333 119.138 12.46 119.123 12.6077C118.816 15.7702 115.154 18.9392 111.643 22.0128C111.531 22.1103 109.013 24.1416 110.552 23.8334C124.171 21.106 135.776 17.975 149.357 15.2295C152.991 14.4948 163.09 11.9602 169.513 12.0771C173.939 12.1577 174.42 14.9592 175.279 15.5832C176.724 16.6324 177.867 18.1041 183.643 18.5379C191.21 19.1062 198.885 17.9885 204.214 17.0397C208.717 16.2381 221.393 12.9152 227.643 14.6677C237.081 17.3138 247.064 17.3505 258.5 14.8965" stroke="#E5E5E5" stroke-width="10" stroke-linecap="square"/>
</svg>
