<svg width="1440" height="561" viewBox="0 0 1440 561" fill="none" xmlns="http://www.w3.org/2000/svg">
<path opacity="0.53" d="M-342.271 597.933C-353.96 618.429 -367.34 637.188 -336.064 613.085C-161.712 478.724 2.06647 331.079 171.114 190.702C206.713 161.14 242.976 129.478 283.946 106.576C304.12 95.2999 289.974 119.155 285.777 126.781C271.02 153.589 254.142 179.369 237.409 205.074C229.516 217.198 194.382 262.943 234.924 235.073C312.098 182.021 380.549 118.041 458.222 65.6048C478.639 51.8216 506.445 33.32 531.928 26.9385C587.456 13.0335 528.583 105.654 526.474 109.919C480.481 202.902 428.018 292.909 382.166 385.993C380.945 388.471 359.303 433.28 357.773 439.252C349.608 471.13 395.522 457.461 409.438 453.814C479.575 435.433 539.506 396.206 600.269 359.685C605.198 356.722 665.39 315.578 649.496 347.558C636.082 374.549 615.38 398.502 597.958 423.146C595.877 426.089 557.748 480.225 579.196 467.341C659.732 418.964 729.056 347.953 800.28 288.412C861.483 237.249 922.579 185.431 987.778 138.887C991.511 136.222 1021.99 110.584 1015.93 133.527C1006.96 167.462 982.817 197.035 969.619 229.524C956.217 262.516 961.941 280.224 1002.68 280.039C1066.42 279.75 1129.18 261.779 1191.48 251.115C1210.51 247.857 1248.38 238.167 1262.38 257.935C1278.37 280.509 1255.99 314.462 1251.65 337.238C1233.24 433.787 1628.11 274.85 1662.48 261.977" stroke="#262626" stroke-width="51" stroke-linecap="round"/>
</svg>
