<svg width="836" height="239" viewBox="0 0 836 239" fill="none" xmlns="http://www.w3.org/2000/svg">
<path d="M20 108.106C26.5943 104.352 35.0737 102.293 42.2772 99.6443C77.2594 86.7814 111.084 72.0806 144.67 56.9102C164.736 47.8468 184.826 39.0418 205.575 31.1006C205.66 31.0681 217.514 25.81 216.305 28.6466C212.95 36.5177 205.696 44.7033 200.977 51.9176C179.781 84.3217 157.974 116.469 136.087 148.556C122.028 169.165 107.266 189.439 93.2694 210.076C88.5939 216.969 83.2657 223.267 95.6198 215.238C164.489 170.476 229.29 121.166 296.114 74.3423C310.187 64.4819 324.53 53.9126 340.669 46.3325C348.616 42.6002 342.962 50.6215 341.282 53.1869C335.375 62.2062 328.643 70.8676 321.968 79.5043C318.82 83.5779 304.847 98.9244 320.844 89.6589C351.295 72.0213 378.39 50.6425 409.033 33.2161C417.088 28.6355 428.056 22.4885 438.055 20.4382C459.841 15.9709 436.347 47.0969 435.5 48.5327C417.041 79.8383 396.066 110.107 377.661 141.447C377.171 142.282 368.48 157.37 367.851 159.387C364.496 170.153 382.521 165.724 387.982 164.549C415.505 158.629 439.142 145.601 463.091 133.493C465.034 132.511 488.783 118.834 482.405 129.6C477.022 138.687 468.804 146.713 461.865 154.987C461.036 155.975 445.85 174.152 454.303 169.88C486.045 153.842 513.517 130.084 541.674 110.222C565.87 93.1543 590.027 75.8645 615.761 60.3797C617.235 59.4932 629.286 50.9395 626.798 58.6873C623.117 70.1469 613.526 80.0618 608.199 91.0128C602.79 102.133 604.939 108.159 620.871 108.276C645.803 108.458 670.435 102.645 694.856 99.3058C702.315 98.2857 717.173 95.1686 722.549 101.929C728.688 109.649 719.764 121.056 717.95 128.754C710.26 161.389 865.493 109.271 879 105.06" stroke="#171717" stroke-width="40" stroke-linecap="round"/>
</svg>
