<svg width="546" height="652" viewBox="0 0 546 652" fill="none" xmlns="http://www.w3.org/2000/svg">
<path opacity="0.85" d="M1167.47 460.081C1162.67 447.148 1153.45 436.927 1146.61 426.162C1113.37 373.883 1083.72 318.093 1054.91 261.37C1037.7 227.481 1020.17 194.174 1000.8 162.444C1000.72 162.315 990.449 142.517 988.968 149.862C984.858 170.244 985.684 193.862 984.143 213.6C977.225 302.258 971.417 390.713 965.783 479.081C962.164 535.841 959.869 592.275 956.137 649.057C954.89 668.025 955.183 686.034 947.279 659.497C903.217 511.569 869.665 355.727 830.639 204.339C822.421 172.459 814.616 138.764 801.091 110.834C794.432 97.082 793.27 119.29 792.725 126.31C790.81 150.992 790.404 175.375 789.949 199.665C789.735 211.121 791.786 255.639 780.308 223.899C758.457 163.479 745.265 96.5552 722.922 36.5008C717.049 20.715 708.952 -0.571162 697.665 -11.7481C673.069 -36.1024 670.669 51.0746 670.238 54.9434C660.821 139.298 655.95 222.869 646.421 307.269C646.167 309.516 641.35 350.041 639.984 355.115C632.692 382.2 613.149 360.352 607.044 354.121C576.277 322.714 558.587 277.348 539.464 233.913C537.912 230.389 520.784 183.449 517.586 212.48C514.886 236.981 517.193 260.848 517.494 284.467C517.53 287.288 518.115 339.14 511.362 323.814C486.005 266.266 474.917 193.592 458.619 129.496C444.614 74.4189 430.906 18.8518 413.076 -33.5507C412.055 -36.5509 405.137 -64.1059 399.989 -44.5667C392.375 -15.6668 394.465 13.4578 389.639 42.2387C384.739 71.4651 375.205 84.0347 353.499 74.0594C319.531 58.449 292.561 29.1485 263.159 5.71207C254.178 -1.44699 237.482 -18.2187 222.769 -6.02331C205.967 7.90254 205.512 40.052 199.505 59.0435C174.04 139.551 21.1003 -80.9505 7.4367 -99.3861" stroke="#171717" stroke-width="14" stroke-linecap="round"/>
</svg>
