<svg width="263" height="273" viewBox="0 0 263 273" fill="none" xmlns="http://www.w3.org/2000/svg">
<path d="M41.5152 158.405C39.5152 154.765 37.5052 151.395 35.7752 147.875C34.5652 145.415 33.4252 142.825 32.8452 140.165C32.2852 137.585 33.3952 135.105 35.6352 133.635C45.0752 127.415 54.4952 121.165 64.1052 115.225C79.1152 105.935 94.2852 96.8949 109.355 87.7149C125.665 77.7749 141.945 67.7849 158.235 57.8049C158.525 57.6249 158.755 57.3349 158.785 56.6049C155.605 58.0549 152.375 59.4049 149.245 60.9549C114.095 78.4749 78.9652 96.0449 43.8152 113.565C40.5352 115.205 37.1852 116.755 33.7652 118.085C29.7252 119.655 26.7752 118.755 24.4652 115.185C22.8152 112.635 21.4752 109.845 20.2252 107.075C18.6752 103.645 20.5052 101.145 23.0552 99.1849C33.3052 91.2849 43.4052 83.1549 53.9752 75.7149C66.6852 66.7749 79.7352 58.3249 92.8152 49.9249C97.0052 47.2349 101.645 45.1849 106.255 43.2649C107.885 42.5849 110.035 43.1649 111.955 43.1749C111.575 45.1949 111.545 47.3749 110.705 49.1949C109.895 50.9349 108.255 52.2949 107.165 54.1749C111.345 52.0349 115.515 49.8749 119.715 47.7749C148.245 33.4749 176.865 19.3249 206.855 8.28494C215.115 5.24494 223.695 2.95494 232.255 0.834944C235.985 -0.0850561 240.085 -0.185056 243.925 0.244944C246.455 0.524944 249.025 2.11494 251.195 3.66494C253.885 5.58494 253.265 8.88494 252.805 11.4949C251.635 18.1549 247.475 28.7649 242.265 34.0649C244.595 35.6549 246.525 37.8749 249.785 37.9149C250.475 37.9149 251.675 39.7449 251.745 40.7849C252.105 46.2749 251.705 51.6249 248.645 56.5349C247.515 58.3449 247.075 60.6049 246.405 62.6949C244.345 69.1849 239.345 73.1349 234.115 76.8649C230.335 79.5649 226.495 82.1849 222.725 84.8049C229.035 83.7349 235.335 82.6149 241.645 81.5949C245.935 80.9049 250.065 80.9749 253.505 84.3149C254.205 84.9949 255.365 85.2649 256.365 85.5549C259.825 86.5649 262.005 88.8949 262.125 92.4049C262.215 95.0049 262.155 97.6849 261.605 100.205C258.585 114.085 253.185 126.865 242.775 136.895C233.235 146.095 223.475 155.095 213.585 163.925C205.245 171.375 196.625 178.515 188.045 185.695C180.305 192.165 172.435 198.475 164.655 204.895C161.955 207.125 159.325 209.445 156.805 212.175C159.495 211.605 162.155 210.885 164.875 210.475C173.625 209.165 182.385 207.855 191.165 206.765C194.915 206.295 198.755 206.015 202.515 206.245C210.585 206.735 218.635 207.505 226.675 208.365C231.465 208.875 236.225 209.715 240.965 210.575C242.265 210.805 243.455 211.625 244.695 212.175C243.795 213.735 243.275 215.885 241.925 216.735C235.945 220.535 229.785 224.035 223.595 227.495C212.415 233.745 201.185 239.905 189.955 246.065C179.115 252.015 167.205 255.045 155.445 258.445C141.375 262.515 127.245 266.355 113.115 270.175C109.755 271.085 106.275 271.755 102.815 272.045C100.855 272.205 98.4552 271.915 96.8852 270.875C93.3852 268.565 89.4552 266.215 87.1952 262.875C82.1252 255.375 76.8452 247.785 75.2952 238.515C74.6252 234.535 76.3652 231.065 78.3952 227.895C83.2152 220.335 89.9252 214.465 96.4852 208.505C101.175 204.255 105.945 200.095 110.775 196.005C117.375 190.425 124.035 184.905 130.735 179.445C136.785 174.505 142.955 169.705 149.025 164.785C155.045 159.915 161.025 154.975 167.005 150.055C167.485 149.665 167.875 149.155 168.775 148.205C167.435 148.585 166.675 148.685 166.015 149.005C133.175 164.995 100.315 180.935 67.5152 197.025C54.0852 203.615 40.8152 210.515 27.4252 217.195C25.2052 218.305 22.7252 218.865 20.4552 219.885C18.6252 220.705 17.5652 219.755 16.1152 218.875C10.3952 215.385 7.26524 209.875 4.44524 204.185C2.68524 200.625 1.06524 196.885 0.185242 193.045C-0.674758 189.285 1.57524 186.175 4.54524 184.085C16.4452 175.695 28.4552 167.455 40.4252 159.165C40.7152 158.965 41.0152 158.765 41.5052 158.425L41.5152 158.405Z" fill="white" fill-opacity="0.07"/>
</svg>
