<svg width="1440" height="471" viewBox="0 0 1440 471" fill="none" xmlns="http://www.w3.org/2000/svg">
<path d="M-91 228.885C-75.7847 221.433 -56.2199 217.345 -39.5991 212.088C41.1166 186.556 119.162 157.376 196.656 127.264C242.955 109.274 289.309 91.7965 337.184 76.0338C337.379 75.9694 364.731 65.5323 361.941 71.1628C354.2 86.7864 337.462 103.034 326.573 117.354C277.667 181.674 227.351 245.483 176.851 309.173C144.414 350.082 110.352 390.323 78.0571 431.286C67.269 444.969 54.9752 457.47 83.4801 441.532C242.384 352.683 391.901 254.807 546.088 161.865C578.558 142.293 611.651 121.314 648.89 106.268C667.226 98.8596 654.182 114.781 650.305 119.873C636.674 137.776 621.143 154.968 605.742 172.111C598.477 180.197 566.238 210.659 603.148 192.268C673.409 157.258 735.926 114.823 806.63 80.233C825.215 71.1407 850.522 58.9394 873.592 54.8699C923.861 46.0025 869.651 107.785 867.698 110.635C825.105 172.774 776.71 232.856 734.244 295.064C733.114 296.72 713.059 326.669 711.609 330.673C703.867 352.043 745.458 343.251 758.058 340.919C821.563 329.169 876.102 303.308 931.359 279.275C935.842 277.325 990.639 250.177 975.922 271.548C963.502 289.585 944.54 305.515 928.53 321.939C926.618 323.9 891.577 359.979 911.082 351.501C984.322 319.666 1047.71 272.509 1112.68 233.084C1168.5 199.206 1224.24 164.887 1283.62 134.151C1287.02 132.391 1314.83 115.412 1309.09 130.791C1300.59 153.538 1278.46 173.218 1266.17 194.955C1253.69 217.029 1258.65 228.989 1295.41 229.221C1352.94 229.583 1409.77 218.045 1466.12 211.416C1483.33 209.391 1517.61 203.204 1530.01 216.623C1544.18 231.946 1523.59 254.588 1519.4 269.869C1501.66 334.647 1859.84 231.196 1891 222.838" stroke="#171717" stroke-width="108" stroke-linecap="round"/>
</svg>
