<svg width="155" height="11" viewBox="0 0 155 11" fill="none" xmlns="http://www.w3.org/2000/svg">
<path d="M2 6.40518C5.29468 5.75966 8.33053 5.08192 11.8986 4.47527C18.457 3.36019 25.5687 2.2573 33.0653 1.3177C37.1946 0.80015 31.1125 1.59257 35.714 1.20808C37.0319 1.09796 38.3957 1 39.8851 1C41.8535 1 38.953 1.64229 38.6089 1.74908C30.8222 4.16575 29.5754 5.03779 22.5442 7.51839C19.2138 8.69335 32.4127 7.95429 34.9953 7.74208C43.3385 7.05648 50.8599 6.04939 57.8429 5.03707C60.7879 4.61014 64.8325 3.75826 68.6131 3.52852C70.1677 3.43404 69.4932 4.29738 69.4846 4.37123C69.3003 5.9525 67.1059 7.53696 65.0023 9.07377C64.9355 9.12252 63.4266 10.1382 64.3486 9.9841C72.5089 8.62038 79.4629 7.05488 87.6009 5.68211C89.7784 5.31479 95.8299 4.04746 99.6784 4.10593C102.33 4.14622 102.619 5.54697 103.134 5.85898C104 6.38358 104.684 7.11943 108.145 7.33632C112.68 7.6205 117.278 7.06163 120.472 6.58725C123.17 6.18646 130.765 4.52499 134.51 5.40121C140.165 6.7243 146.147 6.74266 153 5.51565" stroke="url(#paint0_linear_3654_2092)" stroke-width="2" stroke-linecap="square"/>
<defs>
<linearGradient id="paint0_linear_3654_2092" x1="11.5633" y1="3.75001" x2="147.69" y2="10.8292" gradientUnits="userSpaceOnUse">
<stop stop-color="#39B6D8"/>
<stop offset="0.5" stop-color="#F7D344"/>
<stop offset="1" stop-color="#E38330"/>
</linearGradient>
</defs>
</svg>
