<svg width="17" height="17" viewBox="0 0 17 17" fill="none" xmlns="http://www.w3.org/2000/svg">
<path d="M13.8125 2.125H12.2188V1.59375C12.2188 1.45285 12.1628 1.31773 12.0632 1.2181C11.9635 1.11847 11.8284 1.0625 11.6875 1.0625C11.5466 1.0625 11.4115 1.11847 11.3118 1.2181C11.2122 1.31773 11.1562 1.45285 11.1562 1.59375V2.125H5.84375V1.59375C5.84375 1.45285 5.78778 1.31773 5.68815 1.2181C5.58852 1.11847 5.4534 1.0625 5.3125 1.0625C5.1716 1.0625 5.03648 1.11847 4.93685 1.2181C4.83722 1.31773 4.78125 1.45285 4.78125 1.59375V2.125H3.1875C2.90571 2.125 2.63546 2.23694 2.4362 2.4362C2.23694 2.63546 2.125 2.90571 2.125 3.1875V13.8125C2.125 14.0943 2.23694 14.3645 2.4362 14.5638C2.63546 14.7631 2.90571 14.875 3.1875 14.875H13.8125C14.0943 14.875 14.3645 14.7631 14.5638 14.5638C14.7631 14.3645 14.875 14.0943 14.875 13.8125V3.1875C14.875 2.90571 14.7631 2.63546 14.5638 2.4362C14.3645 2.23694 14.0943 2.125 13.8125 2.125ZM4.78125 3.1875V3.71875C4.78125 3.85965 4.83722 3.99477 4.93685 4.0944C5.03648 4.19403 5.1716 4.25 5.3125 4.25C5.4534 4.25 5.58852 4.19403 5.68815 4.0944C5.78778 3.99477 5.84375 3.85965 5.84375 3.71875V3.1875H11.1562V3.71875C11.1562 3.85965 11.2122 3.99477 11.3118 4.0944C11.4115 4.19403 11.5466 4.25 11.6875 4.25C11.8284 4.25 11.9635 4.19403 12.0632 4.0944C12.1628 3.99477 12.2188 3.85965 12.2188 3.71875V3.1875H13.8125V5.3125H3.1875V3.1875H4.78125ZM13.8125 13.8125H3.1875V6.375H13.8125V13.8125ZM7.4375 7.96875V12.2188C7.4375 12.3596 7.38153 12.4948 7.2819 12.5944C7.18227 12.694 7.04715 12.75 6.90625 12.75C6.76535 12.75 6.63023 12.694 6.5306 12.5944C6.43097 12.4948 6.375 12.3596 6.375 12.2188V8.82805L6.08148 8.97547C5.95538 9.03852 5.8094 9.04889 5.67565 9.00431C5.54189 8.95973 5.43133 8.86384 5.36828 8.73773C5.30523 8.61163 5.29486 8.46565 5.33944 8.3319C5.38402 8.19814 5.47991 8.08758 5.60602 8.02453L6.66852 7.49328C6.74954 7.45274 6.83959 7.43359 6.9301 7.43765C7.02061 7.44172 7.10857 7.46887 7.18563 7.51652C7.2627 7.56416 7.32629 7.63073 7.37037 7.70988C7.41446 7.78904 7.43756 7.87815 7.4375 7.96875ZM11.3661 9.99082L10.0938 11.6875H11.1562C11.2971 11.6875 11.4323 11.7435 11.5319 11.8431C11.6315 11.9427 11.6875 12.0779 11.6875 12.2188C11.6875 12.3596 11.6315 12.4948 11.5319 12.5944C11.4323 12.694 11.2971 12.75 11.1562 12.75H9.03125C8.93259 12.75 8.83588 12.7225 8.75196 12.6707C8.66803 12.6188 8.60021 12.5446 8.55609 12.4563C8.51196 12.3681 8.49329 12.2693 8.50215 12.171C8.51101 12.0728 8.54705 11.9789 8.60625 11.9L10.5174 9.35199C10.5609 9.29412 10.5921 9.22797 10.6091 9.15762C10.6261 9.08726 10.6285 9.01417 10.6162 8.94284C10.6039 8.87151 10.5772 8.80343 10.5377 8.7428C10.4982 8.68217 10.4467 8.63025 10.3863 8.59024C10.326 8.55022 10.2582 8.52296 10.1869 8.51011C10.1157 8.49726 10.0426 8.49911 9.97211 8.51553C9.90162 8.53196 9.83523 8.56261 9.77701 8.60562C9.71879 8.64862 9.66997 8.70307 9.63356 8.76562C9.5997 8.82797 9.5537 8.8829 9.49828 8.92718C9.44285 8.97146 9.37912 9.00419 9.31083 9.02344C9.24255 9.04268 9.17111 9.04806 9.10072 9.03925C9.03032 9.03044 8.96241 9.00762 8.90098 8.97214C8.83955 8.93665 8.78585 8.88923 8.74304 8.83265C8.70024 8.77608 8.6692 8.7115 8.65175 8.64274C8.63431 8.57398 8.63082 8.50241 8.64148 8.43228C8.65214 8.36214 8.67674 8.29485 8.71383 8.23438C8.88932 7.93069 9.16008 7.69338 9.48415 7.55922C9.80822 7.42507 10.1675 7.40156 10.5063 7.49235C10.8451 7.58313 11.1444 7.78314 11.358 8.06137C11.5716 8.3396 11.6874 8.68051 11.6875 9.03125C11.6886 9.37772 11.5757 9.71493 11.3661 9.99082Z" fill="#525252"/>
</svg>
