<svg width="24" height="24" viewBox="0 0 24 24" fill="none" xmlns="http://www.w3.org/2000/svg">
<path d="M20.0306 9.53058L12.5306 17.0306C12.4609 17.1003 12.3782 17.1556 12.2871 17.1934C12.1961 17.2311 12.0985 17.2505 11.9999 17.2505C11.9014 17.2505 11.8038 17.2311 11.7127 17.1934C11.6217 17.1556 11.539 17.1003 11.4693 17.0306L3.9693 9.53058C3.82857 9.38985 3.74951 9.19898 3.74951 8.99996C3.74951 8.80094 3.82857 8.61006 3.9693 8.46933C4.11003 8.3286 4.30091 8.24954 4.49993 8.24954C4.69895 8.24954 4.88982 8.3286 5.03055 8.46933L11.9999 15.4396L18.9693 8.46933C19.039 8.39965 19.1217 8.34438 19.2128 8.30666C19.3038 8.26895 19.4014 8.24954 19.4999 8.24954C19.5985 8.24954 19.6961 8.26895 19.7871 8.30666C19.8781 8.34438 19.9609 8.39965 20.0306 8.46933C20.1002 8.53902 20.1555 8.62174 20.1932 8.71279C20.2309 8.80383 20.2503 8.90141 20.2503 8.99996C20.2503 9.09851 20.2309 9.19609 20.1932 9.28713C20.1555 9.37818 20.1002 9.4609 20.0306 9.53058Z" fill="#3B3B3B"/>
</svg>
