<svg width="17" height="17" viewBox="0 0 17 17" fill="none" xmlns="http://www.w3.org/2000/svg">
<path d="M14.1887 6.75091L8.87615 12.0634C8.82682 12.1128 8.76823 12.152 8.70373 12.1787C8.63924 12.2055 8.57011 12.2192 8.5003 12.2192C8.43048 12.2192 8.36135 12.2055 8.29686 12.1787C8.23237 12.152 8.17377 12.1128 8.12444 12.0634L2.81194 6.75091C2.71225 6.65123 2.65625 6.51603 2.65625 6.37505C2.65625 6.23408 2.71225 6.09888 2.81194 5.99919C2.91162 5.89951 3.04682 5.84351 3.1878 5.84351C3.32877 5.84351 3.46397 5.89951 3.56365 5.99919L8.5003 10.9365L13.4369 5.99919C13.4863 5.94983 13.5449 5.91068 13.6094 5.88397C13.6739 5.85725 13.743 5.84351 13.8128 5.84351C13.8826 5.84351 13.9517 5.85725 14.0162 5.88397C14.0807 5.91068 14.1393 5.94983 14.1887 5.99919C14.238 6.04855 14.2772 6.10715 14.3039 6.17164C14.3306 6.23613 14.3443 6.30525 14.3443 6.37505C14.3443 6.44485 14.3306 6.51397 14.3039 6.57846C14.2772 6.64296 14.238 6.70155 14.1887 6.75091Z" fill="#525252"/>
</svg>
