<svg width="620" height="310" viewBox="0 0 620 310" fill="none" xmlns="http://www.w3.org/2000/svg">
<g opacity="0.6" clip-path="url(#clip0_80_2004)">
<g clip-path="url(#clip1_80_2004)">
<g clip-path="url(#clip2_80_2004)">
<mask id="mask0_80_2004" style="mask-type:alpha" maskUnits="userSpaceOnUse" x="0" y="-1" width="598" height="984">
<path d="M525.115 294.627V310.993H507.043V294.627H525.115Z" stroke="black" stroke-width="0.452174"/>
<path d="M525.115 278.255V294.621H507.043V278.255H525.115Z" stroke="black" stroke-width="0.452174"/>
<path d="M525.117 261.887V278.253H507.044V261.887H525.117Z" stroke="black" stroke-width="0.452174"/>
<path d="M525.115 245.524V261.89H507.043V245.524H525.115Z" stroke="black" stroke-width="0.452174"/>
<path d="M525.115 229.157V245.523H507.043V229.157H525.115Z" stroke="black" stroke-width="0.452174"/>
<path d="M525.115 212.794V229.16H507.043V212.794H525.115Z" stroke="black" stroke-width="0.452174"/>
<path d="M525.115 196.426V212.792H507.043V196.426H525.115Z" stroke="black" stroke-width="0.452174"/>
<path d="M525.115 180.058V196.424H507.043V180.058H525.115Z" stroke="black" stroke-width="0.452174"/>
<path d="M525.115 163.696V180.062H507.043V163.696H525.115Z" stroke="black" stroke-width="0.452174"/>
<path d="M525.115 147.328V163.694H507.043V147.328H525.115Z" stroke="black" stroke-width="0.452174"/>
<path d="M525.115 130.96V147.326H507.043V130.96H525.115Z" stroke="black" stroke-width="0.452174"/>
<path d="M525.115 114.588V130.954H507.043V114.588H525.115Z" stroke="black" stroke-width="0.452174"/>
<path d="M525.115 98.2248V114.591H507.043V98.2248H525.115Z" stroke="black" stroke-width="0.452174"/>
<path d="M525.115 81.8621V98.2281H507.043V81.8621H525.115Z" stroke="black" stroke-width="0.452174"/>
<path d="M525.117 65.4898V81.8558H507.044V65.4898H525.117Z" stroke="black" stroke-width="0.452174"/>
<path d="M525.115 49.122V65.488H507.043V49.122H525.115Z" stroke="black" stroke-width="0.452174"/>
<path d="M525.115 32.759V49.125H507.043V32.759H525.115Z" stroke="black" stroke-width="0.452174"/>
<path d="M525.115 16.3962V32.7622H507.043V16.3962H525.115Z" stroke="black" stroke-width="0.452174"/>
<path d="M525.115 0.0238805V16.3899H507.043V0.0238805H525.115Z" stroke="black" stroke-width="0.452174"/>
<path d="M507.039 294.627V310.993H488.967V294.627H507.039Z" stroke="black" stroke-width="0.452174"/>
<path d="M507.047 278.259V294.625H488.975V278.259H507.047Z" stroke="black" stroke-width="0.452174"/>
<path d="M507.047 261.892V278.258H488.975V261.892H507.047Z" stroke="black" stroke-width="0.452174"/>
<path d="M507.047 245.524V261.89H488.975V245.524H507.047Z" stroke="black" stroke-width="0.452174"/>
<path d="M507.047 229.157V245.523H488.975V229.157H507.047Z" stroke="black" stroke-width="0.452174"/>
<path d="M507.047 212.794V229.16H488.975V212.794H507.047Z" stroke="black" stroke-width="0.452174"/>
<path d="M507.047 196.421V212.787H488.975V196.421H507.047Z" stroke="black" stroke-width="0.452174"/>
<path d="M507.047 180.058V196.424H488.975V180.058H507.047Z" stroke="black" stroke-width="0.452174"/>
<path d="M507.047 163.691V180.057H488.975V163.691H507.047Z" stroke="black" stroke-width="0.452174"/>
<path d="M507.047 147.323V163.689H488.975V147.323H507.047Z" stroke="black" stroke-width="0.452174"/>
<path d="M507.047 130.955V147.321H488.975V130.955H507.047Z" stroke="black" stroke-width="0.452174"/>
<path d="M507.047 114.588V130.954H488.975V114.588H507.047Z" stroke="black" stroke-width="0.452174"/>
<path d="M507.047 98.22V114.586H488.975V98.22H507.047Z" stroke="black" stroke-width="0.452174"/>
<path d="M507.047 81.8621V98.2281H488.975V81.8621H507.047Z" stroke="black" stroke-width="0.452174"/>
<path d="M507.039 65.4943V81.8604H488.967V65.4943H507.039Z" stroke="black" stroke-width="0.452174"/>
<path d="M507.047 49.1268V65.4928H488.975V49.1268H507.047Z" stroke="black" stroke-width="0.452174"/>
<path d="M507.047 32.759V49.125H488.975V32.759H507.047Z" stroke="black" stroke-width="0.452174"/>
<path d="M507.047 16.3914V32.7574H488.975V16.3914H507.047Z" stroke="black" stroke-width="0.452174"/>
<path d="M507.047 0.0238805V16.3899H488.975V0.0238805H507.047Z" stroke="black" stroke-width="0.452174"/>
<path d="M488.969 294.627V310.993H470.897V294.627H488.969Z" stroke="black" stroke-width="0.452174"/>
<path d="M488.969 278.259V294.625H470.897V278.259H488.969Z" stroke="black" stroke-width="0.452174"/>
<path d="M488.969 261.887V278.253H470.897V261.887H488.969Z" stroke="black" stroke-width="0.452174"/>
<path d="M488.969 245.524V261.89H470.897V245.524H488.969Z" stroke="black" stroke-width="0.452174"/>
<path d="M488.969 229.161V245.527H470.897V229.161H488.969Z" stroke="black" stroke-width="0.452174"/>
<path d="M488.969 212.794V229.16H470.897V212.794H488.969Z" stroke="black" stroke-width="0.452174"/>
<path d="M488.969 196.426V212.792H470.897V196.426H488.969Z" stroke="black" stroke-width="0.452174"/>
<path d="M488.969 180.058V196.424H470.897V180.058H488.969Z" stroke="black" stroke-width="0.452174"/>
<path d="M488.969 163.696V180.062H470.897V163.696H488.969Z" stroke="black" stroke-width="0.452174"/>
<path d="M488.969 147.323V163.689H470.897V147.323H488.969Z" stroke="black" stroke-width="0.452174"/>
<path d="M488.969 130.955V147.321H470.897V130.955H488.969Z" stroke="black" stroke-width="0.452174"/>
<path d="M488.969 114.588V130.954H470.897V114.588H488.969Z" stroke="black" stroke-width="0.452174"/>
<path d="M488.969 98.2248V114.591H470.897V98.2248H488.969Z" stroke="black" stroke-width="0.452174"/>
<path d="M488.969 81.8621V98.2281H470.897V81.8621H488.969Z" stroke="black" stroke-width="0.452174"/>
<path d="M488.969 65.4943V81.8604H470.897V65.4943H488.969Z" stroke="black" stroke-width="0.452174"/>
<path d="M488.969 49.122V65.488H470.897V49.122H488.969Z" stroke="black" stroke-width="0.452174"/>
<path d="M488.969 32.759V49.125H470.897V32.759H488.969Z" stroke="black" stroke-width="0.452174"/>
<path d="M488.969 16.3914V32.7574H470.897V16.3914H488.969Z" stroke="black" stroke-width="0.452174"/>
<path d="M488.969 0.0238805V16.3899H470.897V0.0238805H488.969Z" stroke="black" stroke-width="0.452174"/>
<path d="M470.895 294.627V310.993H452.823V294.627H470.895Z" stroke="black" stroke-width="0.452174"/>
<path d="M470.895 278.255V294.621H452.823V278.255H470.895Z" stroke="black" stroke-width="0.452174"/>
<path d="M470.895 261.887V278.253H452.823V261.887H470.895Z" stroke="black" stroke-width="0.452174"/>
<path d="M470.895 245.524V261.89H452.823V245.524H470.895Z" stroke="black" stroke-width="0.452174"/>
<path d="M470.895 229.157V245.523H452.823V229.157H470.895Z" stroke="black" stroke-width="0.452174"/>
<path d="M470.895 212.789V229.155H452.823V212.789H470.895Z" stroke="black" stroke-width="0.452174"/>
<path d="M470.895 196.426V212.792H452.823V196.426H470.895Z" stroke="black" stroke-width="0.452174"/>
<path d="M470.895 180.058V196.424H452.823V180.058H470.895Z" stroke="black" stroke-width="0.452174"/>
<path d="M470.895 163.696V180.062H452.823V163.696H470.895Z" stroke="black" stroke-width="0.452174"/>
<path d="M470.895 147.323V163.689H452.823V147.323H470.895Z" stroke="black" stroke-width="0.452174"/>
<path d="M470.895 130.955V147.321H452.823V130.955H470.895Z" stroke="black" stroke-width="0.452174"/>
<path d="M470.895 114.588V130.954H452.823V114.588H470.895Z" stroke="black" stroke-width="0.452174"/>
<path d="M470.895 98.2248V114.591H452.823V98.2248H470.895Z" stroke="black" stroke-width="0.452174"/>
<path d="M470.895 81.8618V98.2278H452.823V81.8618H470.895Z" stroke="black" stroke-width="0.452174"/>
<path d="M470.895 65.4898V81.8558H452.823V65.4898H470.895Z" stroke="black" stroke-width="0.452174"/>
<path d="M470.895 49.122V65.488H452.823V49.122H470.895Z" stroke="black" stroke-width="0.452174"/>
<path d="M470.895 32.759V49.125H452.823V32.759H470.895Z" stroke="black" stroke-width="0.452174"/>
<path d="M470.895 16.3962V32.7622H452.823V16.3962H470.895Z" stroke="black" stroke-width="0.452174"/>
<path d="M470.895 0.0238805V16.3899H452.823V0.0238805H470.895Z" stroke="black" stroke-width="0.452174"/>
<path d="M452.827 294.627V310.993H434.755V294.627H452.827Z" stroke="black" stroke-width="0.452174"/>
<path d="M452.827 278.255V294.621H434.755V278.255H452.827Z" stroke="black" stroke-width="0.452174"/>
<path d="M452.821 261.887V278.253H434.749V261.887H452.821Z" stroke="black" stroke-width="0.452174"/>
<path d="M452.827 245.524V261.89H434.755V245.524H452.827Z" stroke="black" stroke-width="0.452174"/>
<path d="M452.827 229.161V245.527H434.755V229.161H452.827Z" stroke="black" stroke-width="0.452174"/>
<path d="M452.827 212.794V229.16H434.755V212.794H452.827Z" stroke="black" stroke-width="0.452174"/>
<path d="M452.827 196.421V212.787H434.755V196.421H452.827Z" stroke="black" stroke-width="0.452174"/>
<path d="M452.821 180.058V196.424H434.749V180.058H452.821Z" stroke="black" stroke-width="0.452174"/>
<path d="M452.827 163.696V180.062H434.755V163.696H452.827Z" stroke="black" stroke-width="0.452174"/>
<path d="M452.827 147.323V163.689H434.755V147.323H452.827Z" stroke="black" stroke-width="0.452174"/>
<path d="M452.827 130.955V147.321H434.755V130.955H452.827Z" stroke="black" stroke-width="0.452174"/>
<path d="M452.827 114.588V130.954H434.755V114.588H452.827Z" stroke="black" stroke-width="0.452174"/>
<path d="M452.827 98.2248V114.591H434.755V98.2248H452.827Z" stroke="black" stroke-width="0.452174"/>
<path d="M452.821 81.8618V98.2278H434.749V81.8618H452.821Z" stroke="black" stroke-width="0.452174"/>
<path d="M452.821 65.4898V81.8558H434.749V65.4898H452.821Z" stroke="black" stroke-width="0.452174"/>
<path d="M452.821 49.1268V65.4928H434.749V49.1268H452.821Z" stroke="black" stroke-width="0.452174"/>
<path d="M452.827 32.759V49.125H434.755V32.759H452.827Z" stroke="black" stroke-width="0.452174"/>
<path d="M452.827 16.3962V32.7622H434.755V16.3962H452.827Z" stroke="black" stroke-width="0.452174"/>
<path d="M452.827 0.0238805V16.3899H434.755V0.0238805H452.827Z" stroke="black" stroke-width="0.452174"/>
<path d="M434.748 294.627V310.993H416.676V294.627H434.748Z" stroke="black" stroke-width="0.452174"/>
<path d="M434.75 278.255V294.621H416.677V278.255H434.75Z" stroke="black" stroke-width="0.452174"/>
<path d="M434.75 261.892V278.258H416.677V261.892H434.75Z" stroke="black" stroke-width="0.452174"/>
<path d="M434.75 245.524V261.89H416.677V245.524H434.75Z" stroke="black" stroke-width="0.452174"/>
<path d="M434.748 229.157V245.523H416.676V229.157H434.748Z" stroke="black" stroke-width="0.452174"/>
<path d="M434.754 212.789V229.155H416.681V212.789H434.754Z" stroke="black" stroke-width="0.452174"/>
<path d="M434.75 196.426V212.792H416.677V196.426H434.75Z" stroke="black" stroke-width="0.452174"/>
<path d="M434.75 180.058V196.424H416.677V180.058H434.75Z" stroke="black" stroke-width="0.452174"/>
<path d="M434.75 163.696V180.062H416.677V163.696H434.75Z" stroke="black" stroke-width="0.452174"/>
<path d="M434.75 147.323V163.689H416.677V147.323H434.75Z" stroke="black" stroke-width="0.452174"/>
<path d="M434.75 130.955V147.321H416.677V130.955H434.75Z" stroke="black" stroke-width="0.452174"/>
<path d="M434.75 114.593V130.959H416.677V114.593H434.75Z" stroke="black" stroke-width="0.452174"/>
<path d="M434.75 98.22V114.586H416.677V98.22H434.75Z" stroke="black" stroke-width="0.452174"/>
<path d="M434.754 81.8621V98.2281H416.681V81.8621H434.754Z" stroke="black" stroke-width="0.452174"/>
<path d="M434.748 65.4898V81.8558H416.676V65.4898H434.748Z" stroke="black" stroke-width="0.452174"/>
<path d="M434.75 49.1268V65.4928H416.677V49.1268H434.75Z" stroke="black" stroke-width="0.452174"/>
<path d="M434.75 32.759V49.125H416.677V32.759H434.75Z" stroke="black" stroke-width="0.452174"/>
<path d="M434.75 16.3914V32.7574H416.677V16.3914H434.75Z" stroke="black" stroke-width="0.452174"/>
<path d="M434.75 0.0238805V16.3899H416.677V0.0238805H434.75Z" stroke="black" stroke-width="0.452174"/>
<path d="M416.676 294.627V310.993H398.604V294.627H416.676Z" stroke="black" stroke-width="0.452174"/>
<path d="M416.676 278.259V294.625H398.604V278.259H416.676Z" stroke="black" stroke-width="0.452174"/>
<path d="M416.676 261.892V278.258H398.604V261.892H416.676Z" stroke="black" stroke-width="0.452174"/>
<path d="M416.676 245.524V261.89H398.604V245.524H416.676Z" stroke="black" stroke-width="0.452174"/>
<path d="M416.676 229.157V245.523H398.604V229.157H416.676Z" stroke="black" stroke-width="0.452174"/>
<path d="M416.676 212.789V229.155H398.604V212.789H416.676Z" stroke="black" stroke-width="0.452174"/>
<path d="M416.676 196.426V212.792H398.604V196.426H416.676Z" stroke="black" stroke-width="0.452174"/>
<path d="M416.676 180.058V196.424H398.604V180.058H416.676Z" stroke="black" stroke-width="0.452174"/>
<path d="M416.676 163.696V180.062H398.604V163.696H416.676Z" stroke="black" stroke-width="0.452174"/>
<path d="M416.676 147.323V163.689H398.604V147.323H416.676Z" stroke="black" stroke-width="0.452174"/>
<path d="M416.676 130.955V147.321H398.604V130.955H416.676Z" stroke="black" stroke-width="0.452174"/>
<path d="M416.676 114.588V130.954H398.604V114.588H416.676Z" stroke="black" stroke-width="0.452174"/>
<path d="M416.676 98.2248V114.591H398.604V98.2248H416.676Z" stroke="black" stroke-width="0.452174"/>
<path d="M416.676 81.8621V98.2281H398.604V81.8621H416.676Z" stroke="black" stroke-width="0.452174"/>
<path d="M416.676 65.4943V81.8604H398.604V65.4943H416.676Z" stroke="black" stroke-width="0.452174"/>
<path d="M416.676 49.1268V65.4928H398.604V49.1268H416.676Z" stroke="black" stroke-width="0.452174"/>
<path d="M416.676 32.7545V49.1205H398.604V32.7545H416.676Z" stroke="black" stroke-width="0.452174"/>
<path d="M416.676 16.3962V32.7622H398.604V16.3962H416.676Z" stroke="black" stroke-width="0.452174"/>
<path d="M416.676 0.0238805V16.3899H398.604V0.0238805H416.676Z" stroke="black" stroke-width="0.452174"/>
<path d="M398.602 294.627V310.993H380.53V294.627H398.602Z" stroke="black" stroke-width="0.452174"/>
<path d="M398.602 278.255V294.621H380.53V278.255H398.602Z" stroke="black" stroke-width="0.452174"/>
<path d="M398.608 261.887V278.253H380.536V261.887H398.608Z" stroke="black" stroke-width="0.452174"/>
<path d="M398.602 245.524V261.89H380.53V245.524H398.602Z" stroke="black" stroke-width="0.452174"/>
<path d="M398.602 229.161V245.527H380.53V229.161H398.602Z" stroke="black" stroke-width="0.452174"/>
<path d="M398.608 212.794V229.16H380.536V212.794H398.608Z" stroke="black" stroke-width="0.452174"/>
<path d="M398.608 196.426V212.792H380.536V196.426H398.608Z" stroke="black" stroke-width="0.452174"/>
<path d="M398.602 180.058V196.424H380.53V180.058H398.602Z" stroke="black" stroke-width="0.452174"/>
<path d="M398.602 163.691V180.057H380.53V163.691H398.602Z" stroke="black" stroke-width="0.452174"/>
<path d="M398.602 147.328V163.694H380.53V147.328H398.602Z" stroke="black" stroke-width="0.452174"/>
<path d="M398.608 130.96V147.326H380.536V130.96H398.608Z" stroke="black" stroke-width="0.452174"/>
<path d="M398.602 114.593V130.959H380.53V114.593H398.602Z" stroke="black" stroke-width="0.452174"/>
<path d="M398.608 98.22V114.586H380.536V98.22H398.608Z" stroke="black" stroke-width="0.452174"/>
<path d="M398.602 81.8621V98.2281H380.53V81.8621H398.602Z" stroke="black" stroke-width="0.452174"/>
<path d="M398.602 65.4943V81.8604H380.53V65.4943H398.602Z" stroke="black" stroke-width="0.452174"/>
<path d="M398.602 49.122V65.488H380.53V49.122H398.602Z" stroke="black" stroke-width="0.452174"/>
<path d="M398.602 32.759V49.125H380.53V32.759H398.602Z" stroke="black" stroke-width="0.452174"/>
<path d="M398.602 16.3962V32.7622H380.53V16.3962H398.602Z" stroke="black" stroke-width="0.452174"/>
<path d="M398.602 0.0238805V16.3899H380.53V0.0238805H398.602Z" stroke="black" stroke-width="0.452174"/>
<path d="M380.534 294.627V310.993H362.462V294.627H380.534Z" stroke="black" stroke-width="0.452174"/>
<path d="M380.528 278.255V294.621H362.456V278.255H380.528Z" stroke="black" stroke-width="0.452174"/>
<path d="M380.528 261.887V278.253H362.456V261.887H380.528Z" stroke="black" stroke-width="0.452174"/>
<path d="M380.534 245.524V261.89H362.462V245.524H380.534Z" stroke="black" stroke-width="0.452174"/>
<path d="M380.53 229.161V245.527H362.458V229.161H380.53Z" stroke="black" stroke-width="0.452174"/>
<path d="M380.528 212.794V229.16H362.456V212.794H380.528Z" stroke="black" stroke-width="0.452174"/>
<path d="M380.534 196.426V212.792H362.462V196.426H380.534Z" stroke="black" stroke-width="0.452174"/>
<path d="M380.528 180.058V196.424H362.456V180.058H380.528Z" stroke="black" stroke-width="0.452174"/>
<path d="M380.528 163.691V180.057H362.456V163.691H380.528Z" stroke="black" stroke-width="0.452174"/>
<path d="M380.528 147.323V163.689H362.456V147.323H380.528Z" stroke="black" stroke-width="0.452174"/>
<path d="M380.534 130.96V147.326H362.462V130.96H380.534Z" stroke="black" stroke-width="0.452174"/>
<path d="M380.534 114.588V130.954H362.462V114.588H380.534Z" stroke="black" stroke-width="0.452174"/>
<path d="M380.534 98.22V114.586H362.462V98.22H380.534Z" stroke="black" stroke-width="0.452174"/>
<path d="M380.534 81.8574V98.2234H362.462V81.8574H380.534Z" stroke="black" stroke-width="0.452174"/>
<path d="M380.534 65.4943V81.8604H362.462V65.4943H380.534Z" stroke="black" stroke-width="0.452174"/>
<path d="M380.528 49.122V65.488H362.456V49.122H380.528Z" stroke="black" stroke-width="0.452174"/>
<path d="M380.528 32.7545V49.1205H362.456V32.7545H380.528Z" stroke="black" stroke-width="0.452174"/>
<path d="M380.534 16.3914V32.7574H362.462V16.3914H380.534Z" stroke="black" stroke-width="0.452174"/>
<path d="M380.534 0.0238805V16.3899H362.462V0.0238805H380.534Z" stroke="black" stroke-width="0.452174"/>
<path d="M362.458 294.627V310.993H344.386V294.627H362.458Z" stroke="black" stroke-width="0.452174"/>
<path d="M362.458 278.259V294.625H344.386V278.259H362.458Z" stroke="black" stroke-width="0.452174"/>
<path d="M362.458 261.887V278.253H344.386V261.887H362.458Z" stroke="black" stroke-width="0.452174"/>
<path d="M362.458 245.524V261.89H344.386V245.524H362.458Z" stroke="black" stroke-width="0.452174"/>
<path d="M362.462 229.161V245.527H344.39V229.161H362.462Z" stroke="black" stroke-width="0.452174"/>
<path d="M362.458 212.794V229.16H344.386V212.794H362.458Z" stroke="black" stroke-width="0.452174"/>
<path d="M362.458 196.426V212.792H344.386V196.426H362.458Z" stroke="black" stroke-width="0.452174"/>
<path d="M362.458 180.058V196.424H344.386V180.058H362.458Z" stroke="black" stroke-width="0.452174"/>
<path d="M362.458 163.696V180.062H344.386V163.696H362.458Z" stroke="black" stroke-width="0.452174"/>
<path d="M362.458 147.323V163.689H344.386V147.323H362.458Z" stroke="black" stroke-width="0.452174"/>
<path d="M362.458 130.955V147.321H344.386V130.955H362.458Z" stroke="black" stroke-width="0.452174"/>
<path d="M362.458 114.588V130.954H344.386V114.588H362.458Z" stroke="black" stroke-width="0.452174"/>
<path d="M362.458 98.2248V114.591H344.386V98.2248H362.458Z" stroke="black" stroke-width="0.452174"/>
<path d="M362.462 81.8621V98.2281H344.39V81.8621H362.462Z" stroke="black" stroke-width="0.452174"/>
<path d="M362.458 65.4943V81.8604H344.386V65.4943H362.458Z" stroke="black" stroke-width="0.452174"/>
<path d="M362.458 49.1268V65.4928H344.386V49.1268H362.458Z" stroke="black" stroke-width="0.452174"/>
<path d="M362.458 32.7637V49.1298H344.386V32.7637H362.458Z" stroke="black" stroke-width="0.452174"/>
<path d="M362.458 16.3914V32.7574H344.386V16.3914H362.458Z" stroke="black" stroke-width="0.452174"/>
<path d="M362.458 0.0238805V16.3899H344.386V0.0238805H362.458Z" stroke="black" stroke-width="0.452174"/>
<path d="M344.385 294.627V310.993H326.312V294.627H344.385Z" stroke="black" stroke-width="0.452174"/>
<path d="M344.385 278.255V294.621H326.312V278.255H344.385Z" stroke="black" stroke-width="0.452174"/>
<path d="M344.385 261.887V278.253H326.312V261.887H344.385Z" stroke="black" stroke-width="0.452174"/>
<path d="M344.385 245.524V261.89H326.312V245.524H344.385Z" stroke="black" stroke-width="0.452174"/>
<path d="M344.385 229.161V245.527H326.312V229.161H344.385Z" stroke="black" stroke-width="0.452174"/>
<path d="M344.385 212.794V229.16H326.312V212.794H344.385Z" stroke="black" stroke-width="0.452174"/>
<path d="M344.385 196.426V212.792H326.312V196.426H344.385Z" stroke="black" stroke-width="0.452174"/>
<path d="M344.385 180.063V196.429H326.312V180.063H344.385Z" stroke="black" stroke-width="0.452174"/>
<path d="M344.385 163.696V180.062H326.312V163.696H344.385Z" stroke="black" stroke-width="0.452174"/>
<path d="M344.385 147.323V163.689H326.312V147.323H344.385Z" stroke="black" stroke-width="0.452174"/>
<path d="M344.391 130.96V147.326H326.318V130.96H344.391Z" stroke="black" stroke-width="0.452174"/>
<path d="M344.385 114.588V130.954H326.312V114.588H344.385Z" stroke="black" stroke-width="0.452174"/>
<path d="M344.385 98.2248V114.591H326.312V98.2248H344.385Z" stroke="black" stroke-width="0.452174"/>
<path d="M344.385 81.8618V98.2278H326.312V81.8618H344.385Z" stroke="black" stroke-width="0.452174"/>
<path d="M344.385 65.4898V81.8558H326.312V65.4898H344.385Z" stroke="black" stroke-width="0.452174"/>
<path d="M344.385 49.122V65.488H326.312V49.122H344.385Z" stroke="black" stroke-width="0.452174"/>
<path d="M344.385 32.759V49.125H326.312V32.759H344.385Z" stroke="black" stroke-width="0.452174"/>
<path d="M344.385 16.3914V32.7574H326.312V16.3914H344.385Z" stroke="black" stroke-width="0.452174"/>
<path d="M344.385 0.0238805V16.3899H326.312V0.0238805H344.385Z" stroke="black" stroke-width="0.452174"/>
<path d="M326.317 294.627V310.993H308.244V294.627H326.317Z" stroke="black" stroke-width="0.452174"/>
<path d="M326.311 278.255V294.621H308.239V278.255H326.311Z" stroke="black" stroke-width="0.452174"/>
<path d="M326.317 261.887V278.253H308.244V261.887H326.317Z" stroke="black" stroke-width="0.452174"/>
<path d="M326.311 245.529V261.895H308.239V245.529H326.311Z" stroke="black" stroke-width="0.452174"/>
<path d="M326.311 229.161V245.527H308.239V229.161H326.311Z" stroke="black" stroke-width="0.452174"/>
<path d="M326.311 212.794V229.16H308.239V212.794H326.311Z" stroke="black" stroke-width="0.452174"/>
<path d="M326.311 196.421V212.787H308.239V196.421H326.311Z" stroke="black" stroke-width="0.452174"/>
<path d="M326.311 180.058V196.424H308.239V180.058H326.311Z" stroke="black" stroke-width="0.452174"/>
<path d="M326.311 163.696V180.062H308.239V163.696H326.311Z" stroke="black" stroke-width="0.452174"/>
<path d="M326.311 147.323V163.689H308.239V147.323H326.311Z" stroke="black" stroke-width="0.452174"/>
<path d="M326.311 130.955V147.321H308.239V130.955H326.311Z" stroke="black" stroke-width="0.452174"/>
<path d="M326.311 114.593V130.959H308.239V114.593H326.311Z" stroke="black" stroke-width="0.452174"/>
<path d="M326.317 98.2248V114.591H308.244V98.2248H326.317Z" stroke="black" stroke-width="0.452174"/>
<path d="M326.311 81.8574V98.2234H308.239V81.8574H326.311Z" stroke="black" stroke-width="0.452174"/>
<path d="M326.317 65.4898V81.8558H308.244V65.4898H326.317Z" stroke="black" stroke-width="0.452174"/>
<path d="M326.311 49.1315V65.4976H308.239V49.1315H326.311Z" stroke="black" stroke-width="0.452174"/>
<path d="M326.311 32.7637V49.1298H308.239V32.7637H326.311Z" stroke="black" stroke-width="0.452174"/>
<path d="M326.311 16.3914V32.7574H308.239V16.3914H326.311Z" stroke="black" stroke-width="0.452174"/>
<path d="M326.311 0.0238805V16.3899H308.239V0.0238805H326.311Z" stroke="black" stroke-width="0.452174"/>
<path d="M308.243 294.627V310.993H290.171V294.627H308.243Z" stroke="black" stroke-width="0.452174"/>
<path d="M308.243 278.255V294.621H290.171V278.255H308.243Z" stroke="black" stroke-width="0.452174"/>
<path d="M308.243 261.887V278.253H290.171V261.887H308.243Z" stroke="black" stroke-width="0.452174"/>
<path d="M308.243 245.524V261.89H290.171V245.524H308.243Z" stroke="black" stroke-width="0.452174"/>
<path d="M308.243 229.161V245.527H290.171V229.161H308.243Z" stroke="black" stroke-width="0.452174"/>
<path d="M308.243 212.789V229.155H290.171V212.789H308.243Z" stroke="black" stroke-width="0.452174"/>
<path d="M308.243 196.426V212.792H290.171V196.426H308.243Z" stroke="black" stroke-width="0.452174"/>
<path d="M308.243 180.063V196.429H290.171V180.063H308.243Z" stroke="black" stroke-width="0.452174"/>
<path d="M308.243 163.696V180.062H290.171V163.696H308.243Z" stroke="black" stroke-width="0.452174"/>
<path d="M308.243 147.323V163.689H290.171V147.323H308.243Z" stroke="black" stroke-width="0.452174"/>
<path d="M308.243 130.96V147.326H290.171V130.96H308.243Z" stroke="black" stroke-width="0.452174"/>
<path d="M308.243 114.588V130.954H290.171V114.588H308.243Z" stroke="black" stroke-width="0.452174"/>
<path d="M308.243 98.22V114.586H290.171V98.22H308.243Z" stroke="black" stroke-width="0.452174"/>
<path d="M308.243 81.8618V98.2278H290.171V81.8618H308.243Z" stroke="black" stroke-width="0.452174"/>
<path d="M308.243 65.4898V81.8558H290.171V65.4898H308.243Z" stroke="black" stroke-width="0.452174"/>
<path d="M308.243 49.1315V65.4976H290.171V49.1315H308.243Z" stroke="black" stroke-width="0.452174"/>
<path d="M308.243 32.759V49.125H290.171V32.759H308.243Z" stroke="black" stroke-width="0.452174"/>
<path d="M308.243 16.3914V32.7574H290.171V16.3914H308.243Z" stroke="black" stroke-width="0.452174"/>
<path d="M308.243 0.0238805V16.3899H290.171V0.0238805H308.243Z" stroke="black" stroke-width="0.452174"/>
<path d="M290.169 294.627V310.993H272.097V294.627H290.169Z" stroke="black" stroke-width="0.452174"/>
<path d="M290.169 278.259V294.625H272.097V278.259H290.169Z" stroke="black" stroke-width="0.452174"/>
<path d="M290.169 261.887V278.253H272.097V261.887H290.169Z" stroke="black" stroke-width="0.452174"/>
<path d="M290.169 245.524V261.89H272.097V245.524H290.169Z" stroke="black" stroke-width="0.452174"/>
<path d="M290.169 229.161V245.527H272.097V229.161H290.169Z" stroke="black" stroke-width="0.452174"/>
<path d="M290.169 212.789V229.155H272.097V212.789H290.169Z" stroke="black" stroke-width="0.452174"/>
<path d="M290.169 196.426V212.792H272.097V196.426H290.169Z" stroke="black" stroke-width="0.452174"/>
<path d="M290.169 180.058V196.424H272.097V180.058H290.169Z" stroke="black" stroke-width="0.452174"/>
<path d="M290.169 163.696V180.062H272.097V163.696H290.169Z" stroke="black" stroke-width="0.452174"/>
<path d="M290.169 147.323V163.689H272.097V147.323H290.169Z" stroke="black" stroke-width="0.452174"/>
<path d="M290.169 130.955V147.321H272.097V130.955H290.169Z" stroke="black" stroke-width="0.452174"/>
<path d="M290.169 114.593V130.959H272.097V114.593H290.169Z" stroke="black" stroke-width="0.452174"/>
<path d="M290.169 98.22V114.586H272.097V98.22H290.169Z" stroke="black" stroke-width="0.452174"/>
<path d="M290.169 81.8574V98.2234H272.097V81.8574H290.169Z" stroke="black" stroke-width="0.452174"/>
<path d="M290.169 65.4898V81.8558H272.097V65.4898H290.169Z" stroke="black" stroke-width="0.452174"/>
<path d="M290.169 49.1268V65.4928H272.097V49.1268H290.169Z" stroke="black" stroke-width="0.452174"/>
<path d="M290.169 32.759V49.125H272.097V32.759H290.169Z" stroke="black" stroke-width="0.452174"/>
<path d="M290.169 16.3914V32.7574H272.097V16.3914H290.169Z" stroke="black" stroke-width="0.452174"/>
<path d="M290.169 0.0238805V16.3899H272.097V0.0238805H290.169Z" stroke="black" stroke-width="0.452174"/>
<path d="M272.095 294.627V310.993H254.023V294.627H272.095Z" stroke="black" stroke-width="0.452174"/>
<path d="M272.095 278.255V294.621H254.023V278.255H272.095Z" stroke="black" stroke-width="0.452174"/>
<path d="M272.095 261.887V278.253H254.023V261.887H272.095Z" stroke="black" stroke-width="0.452174"/>
<path d="M272.095 245.524V261.89H254.023V245.524H272.095Z" stroke="black" stroke-width="0.452174"/>
<path d="M272.095 229.161V245.527H254.023V229.161H272.095Z" stroke="black" stroke-width="0.452174"/>
<path d="M272.095 212.794V229.16H254.023V212.794H272.095Z" stroke="black" stroke-width="0.452174"/>
<path d="M272.095 196.426V212.792H254.023V196.426H272.095Z" stroke="black" stroke-width="0.452174"/>
<path d="M272.095 180.058V196.424H254.023V180.058H272.095Z" stroke="black" stroke-width="0.452174"/>
<path d="M272.095 163.691V180.057H254.023V163.691H272.095Z" stroke="black" stroke-width="0.452174"/>
<path d="M272.095 147.328V163.694H254.023V147.328H272.095Z" stroke="black" stroke-width="0.452174"/>
<path d="M272.095 130.96V147.326H254.023V130.96H272.095Z" stroke="black" stroke-width="0.452174"/>
<path d="M272.095 114.593V130.959H254.023V114.593H272.095Z" stroke="black" stroke-width="0.452174"/>
<path d="M272.095 98.22V114.586H254.023V98.22H272.095Z" stroke="black" stroke-width="0.452174"/>
<path d="M272.095 81.8621V98.2281H254.023V81.8621H272.095Z" stroke="black" stroke-width="0.452174"/>
<path d="M272.095 65.4943V81.8604H254.023V65.4943H272.095Z" stroke="black" stroke-width="0.452174"/>
<path d="M272.095 49.122V65.488H254.023V49.122H272.095Z" stroke="black" stroke-width="0.452174"/>
<path d="M272.095 32.7637V49.1298H254.023V32.7637H272.095Z" stroke="black" stroke-width="0.452174"/>
<path d="M272.095 16.3962V32.7622H254.023V16.3962H272.095Z" stroke="black" stroke-width="0.452174"/>
<path d="M272.095 0.0238805V16.3899H254.023V0.0238805H272.095Z" stroke="black" stroke-width="0.452174"/>
<path d="M254.026 294.627V310.993H235.954V294.627H254.026Z" stroke="black" stroke-width="0.452174"/>
<path d="M254.026 278.255V294.621H235.954V278.255H254.026Z" stroke="black" stroke-width="0.452174"/>
<path d="M254.026 261.887V278.253H235.954V261.887H254.026Z" stroke="black" stroke-width="0.452174"/>
<path d="M254.026 245.524V261.89H235.954V245.524H254.026Z" stroke="black" stroke-width="0.452174"/>
<path d="M254.026 229.161V245.527H235.954V229.161H254.026Z" stroke="black" stroke-width="0.452174"/>
<path d="M254.026 212.794V229.16H235.954V212.794H254.026Z" stroke="black" stroke-width="0.452174"/>
<path d="M254.026 196.421V212.787H235.954V196.421H254.026Z" stroke="black" stroke-width="0.452174"/>
<path d="M254.026 180.058V196.424H235.954V180.058H254.026Z" stroke="black" stroke-width="0.452174"/>
<path d="M254.026 163.696V180.062H235.954V163.696H254.026Z" stroke="black" stroke-width="0.452174"/>
<path d="M254.02 147.328V163.694H235.947V147.328H254.02Z" stroke="black" stroke-width="0.452174"/>
<path d="M254.02 130.955V147.321H235.947V130.955H254.02Z" stroke="black" stroke-width="0.452174"/>
<path d="M254.026 114.588V130.954H235.954V114.588H254.026Z" stroke="black" stroke-width="0.452174"/>
<path d="M254.02 98.22V114.586H235.947V98.22H254.02Z" stroke="black" stroke-width="0.452174"/>
<path d="M254.026 81.8621V98.2281H235.954V81.8621H254.026Z" stroke="black" stroke-width="0.452174"/>
<path d="M254.026 65.4943V81.8604H235.954V65.4943H254.026Z" stroke="black" stroke-width="0.452174"/>
<path d="M254.026 49.1268V65.4928H235.954V49.1268H254.026Z" stroke="black" stroke-width="0.452174"/>
<path d="M254.026 32.759V49.125H235.954V32.759H254.026Z" stroke="black" stroke-width="0.452174"/>
<path d="M254.026 16.3914V32.7574H235.954V16.3914H254.026Z" stroke="black" stroke-width="0.452174"/>
<path d="M254.026 0.0238805V16.3899H235.954V0.0238805H254.026Z" stroke="black" stroke-width="0.452174"/>
<path d="M235.95 294.627V310.993H217.878V294.627H235.95Z" stroke="black" stroke-width="0.452174"/>
<path d="M235.95 278.255V294.621H217.878V278.255H235.95Z" stroke="black" stroke-width="0.452174"/>
<path d="M235.95 261.887V278.253H217.878V261.887H235.95Z" stroke="black" stroke-width="0.452174"/>
<path d="M235.95 245.524V261.89H217.878V245.524H235.95Z" stroke="black" stroke-width="0.452174"/>
<path d="M235.95 229.161V245.527H217.878V229.161H235.95Z" stroke="black" stroke-width="0.452174"/>
<path d="M235.95 212.789V229.155H217.878V212.789H235.95Z" stroke="black" stroke-width="0.452174"/>
<path d="M235.95 196.426V212.792H217.878V196.426H235.95Z" stroke="black" stroke-width="0.452174"/>
<path d="M235.95 180.058V196.424H217.878V180.058H235.95Z" stroke="black" stroke-width="0.452174"/>
<path d="M235.95 163.696V180.062H217.878V163.696H235.95Z" stroke="black" stroke-width="0.452174"/>
<path d="M235.95 147.328V163.694H217.878V147.328H235.95Z" stroke="black" stroke-width="0.452174"/>
<path d="M235.95 130.955V147.321H217.878V130.955H235.95Z" stroke="black" stroke-width="0.452174"/>
<path d="M235.95 114.588V130.954H217.878V114.588H235.95Z" stroke="black" stroke-width="0.452174"/>
<path d="M235.95 98.22V114.586H217.878V98.22H235.95Z" stroke="black" stroke-width="0.452174"/>
<path d="M235.95 81.8621V98.2281H217.878V81.8621H235.95Z" stroke="black" stroke-width="0.452174"/>
<path d="M235.95 65.4898V81.8558H217.878V65.4898H235.95Z" stroke="black" stroke-width="0.452174"/>
<path d="M235.95 49.1268V65.4928H217.878V49.1268H235.95Z" stroke="black" stroke-width="0.452174"/>
<path d="M235.95 32.759V49.125H217.878V32.759H235.95Z" stroke="black" stroke-width="0.452174"/>
<path d="M235.95 16.3914V32.7574H217.878V16.3914H235.95Z" stroke="black" stroke-width="0.452174"/>
<path d="M235.95 0.0238805V16.3899H217.878V0.0238805H235.95Z" stroke="black" stroke-width="0.452174"/>
<path d="M217.878 294.627V310.993H199.806V294.627H217.878Z" stroke="black" stroke-width="0.452174"/>
<path d="M217.878 278.255V294.621H199.806V278.255H217.878Z" stroke="black" stroke-width="0.452174"/>
<path d="M217.878 261.887V278.253H199.806V261.887H217.878Z" stroke="black" stroke-width="0.452174"/>
<path d="M217.878 245.524V261.89H199.806V245.524H217.878Z" stroke="black" stroke-width="0.452174"/>
<path d="M217.878 229.157V245.523H199.806V229.157H217.878Z" stroke="black" stroke-width="0.452174"/>
<path d="M217.878 212.794V229.16H199.806V212.794H217.878Z" stroke="black" stroke-width="0.452174"/>
<path d="M217.878 196.421V212.787H199.806V196.421H217.878Z" stroke="black" stroke-width="0.452174"/>
<path d="M217.878 180.058V196.424H199.806V180.058H217.878Z" stroke="black" stroke-width="0.452174"/>
<path d="M217.878 163.696V180.062H199.806V163.696H217.878Z" stroke="black" stroke-width="0.452174"/>
<path d="M217.878 147.323V163.689H199.806V147.323H217.878Z" stroke="black" stroke-width="0.452174"/>
<path d="M217.878 130.955V147.321H199.806V130.955H217.878Z" stroke="black" stroke-width="0.452174"/>
<path d="M217.878 114.593V130.959H199.806V114.593H217.878Z" stroke="black" stroke-width="0.452174"/>
<path d="M217.878 98.2248V114.591H199.806V98.2248H217.878Z" stroke="black" stroke-width="0.452174"/>
<path d="M217.878 81.8574V98.2234H199.806V81.8574H217.878Z" stroke="black" stroke-width="0.452174"/>
<path d="M217.878 65.4943V81.8604H199.806V65.4943H217.878Z" stroke="black" stroke-width="0.452174"/>
<path d="M217.878 49.122V65.488H199.806V49.122H217.878Z" stroke="black" stroke-width="0.452174"/>
<path d="M217.878 32.759V49.125H199.806V32.759H217.878Z" stroke="black" stroke-width="0.452174"/>
<path d="M217.878 16.3914V32.7574H199.806V16.3914H217.878Z" stroke="black" stroke-width="0.452174"/>
<path d="M217.878 0.0238805V16.3899H199.806V0.0238805H217.878Z" stroke="black" stroke-width="0.452174"/>
<path d="M199.804 294.627V310.993H181.732V294.627H199.804Z" stroke="black" stroke-width="0.452174"/>
<path d="M199.808 278.255V294.621H181.736V278.255H199.808Z" stroke="black" stroke-width="0.452174"/>
<path d="M199.808 261.887V278.253H181.736V261.887H199.808Z" stroke="black" stroke-width="0.452174"/>
<path d="M199.804 245.524V261.89H181.732V245.524H199.804Z" stroke="black" stroke-width="0.452174"/>
<path d="M199.804 229.161V245.527H181.732V229.161H199.804Z" stroke="black" stroke-width="0.452174"/>
<path d="M199.804 212.794V229.16H181.732V212.794H199.804Z" stroke="black" stroke-width="0.452174"/>
<path d="M199.808 196.421V212.787H181.736V196.421H199.808Z" stroke="black" stroke-width="0.452174"/>
<path d="M199.804 180.058V196.424H181.732V180.058H199.804Z" stroke="black" stroke-width="0.452174"/>
<path d="M199.808 163.691V180.057H181.736V163.691H199.808Z" stroke="black" stroke-width="0.452174"/>
<path d="M199.804 147.328V163.694H181.732V147.328H199.804Z" stroke="black" stroke-width="0.452174"/>
<path d="M199.804 130.955V147.321H181.732V130.955H199.804Z" stroke="black" stroke-width="0.452174"/>
<path d="M199.804 114.588V130.954H181.732V114.588H199.804Z" stroke="black" stroke-width="0.452174"/>
<path d="M199.808 98.22V114.586H181.736V98.22H199.808Z" stroke="black" stroke-width="0.452174"/>
<path d="M199.804 81.8574V98.2234H181.732V81.8574H199.804Z" stroke="black" stroke-width="0.452174"/>
<path d="M199.804 65.4943V81.8604H181.732V65.4943H199.804Z" stroke="black" stroke-width="0.452174"/>
<path d="M199.808 49.1268V65.4928H181.736V49.1268H199.808Z" stroke="black" stroke-width="0.452174"/>
<path d="M199.804 32.759V49.125H181.732V32.759H199.804Z" stroke="black" stroke-width="0.452174"/>
<path d="M199.804 16.3914V32.7574H181.732V16.3914H199.804Z" stroke="black" stroke-width="0.452174"/>
<path d="M199.808 0.0238805V16.3899H181.736V0.0238805H199.808Z" stroke="black" stroke-width="0.452174"/>
<path d="M181.727 294.622V310.988H163.654V294.622H181.727Z" stroke="black" stroke-width="0.452174"/>
<path d="M181.734 278.255V294.621H163.662V278.255H181.734Z" stroke="black" stroke-width="0.452174"/>
<path d="M181.734 261.896V278.262H163.662V261.896H181.734Z" stroke="black" stroke-width="0.452174"/>
<path d="M181.727 245.524V261.89H163.654V245.524H181.727Z" stroke="black" stroke-width="0.452174"/>
<path d="M181.734 229.161V245.527H163.662V229.161H181.734Z" stroke="black" stroke-width="0.452174"/>
<path d="M181.734 212.789V229.155H163.662V212.789H181.734Z" stroke="black" stroke-width="0.452174"/>
<path d="M181.734 196.426V212.792H163.662V196.426H181.734Z" stroke="black" stroke-width="0.452174"/>
<path d="M181.734 180.058V196.424H163.662V180.058H181.734Z" stroke="black" stroke-width="0.452174"/>
<path d="M181.734 163.696V180.062H163.662V163.696H181.734Z" stroke="black" stroke-width="0.452174"/>
<path d="M181.734 147.323V163.689H163.662V147.323H181.734Z" stroke="black" stroke-width="0.452174"/>
<path d="M181.734 130.96V147.326H163.662V130.96H181.734Z" stroke="black" stroke-width="0.452174"/>
<path d="M181.734 114.588V130.954H163.662V114.588H181.734Z" stroke="black" stroke-width="0.452174"/>
<path d="M181.734 98.22V114.586H163.662V98.22H181.734Z" stroke="black" stroke-width="0.452174"/>
<path d="M181.734 81.8621V98.2281H163.662V81.8621H181.734Z" stroke="black" stroke-width="0.452174"/>
<path d="M181.734 65.4991V81.8651H163.662V65.4991H181.734Z" stroke="black" stroke-width="0.452174"/>
<path d="M181.727 49.1315V65.4976H163.654V49.1315H181.727Z" stroke="black" stroke-width="0.452174"/>
<path d="M181.734 32.759V49.125H163.662V32.759H181.734Z" stroke="black" stroke-width="0.452174"/>
<path d="M181.727 16.3914V32.7574H163.654V16.3914H181.727Z" stroke="black" stroke-width="0.452174"/>
<path d="M181.734 0.0238805V16.3899H163.662V0.0238805H181.734Z" stroke="black" stroke-width="0.452174"/>
<path d="M163.658 294.627V310.993H145.586V294.627H163.658Z" stroke="black" stroke-width="0.452174"/>
<path d="M163.658 278.259V294.625H145.586V278.259H163.658Z" stroke="black" stroke-width="0.452174"/>
<path d="M163.658 261.892V278.258H145.586V261.892H163.658Z" stroke="black" stroke-width="0.452174"/>
<path d="M163.658 245.524V261.89H145.586V245.524H163.658Z" stroke="black" stroke-width="0.452174"/>
<path d="M163.658 229.157V245.523H145.586V229.157H163.658Z" stroke="black" stroke-width="0.452174"/>
<path d="M163.658 212.789V229.155H145.586V212.789H163.658Z" stroke="black" stroke-width="0.452174"/>
<path d="M163.658 196.426V212.792H145.586V196.426H163.658Z" stroke="black" stroke-width="0.452174"/>
<path d="M163.658 180.058V196.424H145.586V180.058H163.658Z" stroke="black" stroke-width="0.452174"/>
<path d="M163.658 163.696V180.062H145.586V163.696H163.658Z" stroke="black" stroke-width="0.452174"/>
<path d="M163.658 147.323V163.689H145.586V147.323H163.658Z" stroke="black" stroke-width="0.452174"/>
<path d="M163.658 130.955V147.321H145.586V130.955H163.658Z" stroke="black" stroke-width="0.452174"/>
<path d="M163.658 114.588V130.954H145.586V114.588H163.658Z" stroke="black" stroke-width="0.452174"/>
<path d="M163.658 98.2248V114.591H145.586V98.2248H163.658Z" stroke="black" stroke-width="0.452174"/>
<path d="M163.658 81.8574V98.2234H145.586V81.8574H163.658Z" stroke="black" stroke-width="0.452174"/>
<path d="M163.658 65.4943V81.8604H145.586V65.4943H163.658Z" stroke="black" stroke-width="0.452174"/>
<path d="M163.658 49.1268V65.4928H145.586V49.1268H163.658Z" stroke="black" stroke-width="0.452174"/>
<path d="M163.658 32.759V49.125H145.586V32.759H163.658Z" stroke="black" stroke-width="0.452174"/>
<path d="M163.658 16.3914V32.7574H145.586V16.3914H163.658Z" stroke="black" stroke-width="0.452174"/>
<path d="M163.658 0.0238805V16.3899H145.586V0.0238805H163.658Z" stroke="black" stroke-width="0.452174"/>
<path d="M145.581 294.627V310.993H127.509V294.627H145.581Z" stroke="black" stroke-width="0.452174"/>
<path d="M145.581 278.259V294.625H127.509V278.259H145.581Z" stroke="black" stroke-width="0.452174"/>
<path d="M145.581 261.887V278.253H127.509V261.887H145.581Z" stroke="black" stroke-width="0.452174"/>
<path d="M145.581 245.524V261.89H127.509V245.524H145.581Z" stroke="black" stroke-width="0.452174"/>
<path d="M145.585 229.161V245.527H127.513V229.161H145.585Z" stroke="black" stroke-width="0.452174"/>
<path d="M145.581 212.794V229.16H127.509V212.794H145.581Z" stroke="black" stroke-width="0.452174"/>
<path d="M145.581 196.426V212.792H127.509V196.426H145.581Z" stroke="black" stroke-width="0.452174"/>
<path d="M145.581 180.058V196.424H127.509V180.058H145.581Z" stroke="black" stroke-width="0.452174"/>
<path d="M145.581 163.696V180.062H127.509V163.696H145.581Z" stroke="black" stroke-width="0.452174"/>
<path d="M145.581 147.328V163.694H127.509V147.328H145.581Z" stroke="black" stroke-width="0.452174"/>
<path d="M145.581 130.96V147.326H127.509V130.96H145.581Z" stroke="black" stroke-width="0.452174"/>
<path d="M145.581 114.588V130.954H127.509V114.588H145.581Z" stroke="black" stroke-width="0.452174"/>
<path d="M145.581 98.22V114.586H127.509V98.22H145.581Z" stroke="black" stroke-width="0.452174"/>
<path d="M145.585 81.8621V98.2281H127.513V81.8621H145.585Z" stroke="black" stroke-width="0.452174"/>
<path d="M145.581 65.4943V81.8604H127.509V65.4943H145.581Z" stroke="black" stroke-width="0.452174"/>
<path d="M145.581 49.122V65.488H127.509V49.122H145.581Z" stroke="black" stroke-width="0.452174"/>
<path d="M145.581 32.759V49.125H127.509V32.759H145.581Z" stroke="black" stroke-width="0.452174"/>
<path d="M145.581 16.3914V32.7574H127.509V16.3914H145.581Z" stroke="black" stroke-width="0.452174"/>
<path d="M145.581 0.0238805V16.3899H127.509V0.0238805H145.581Z" stroke="black" stroke-width="0.452174"/>
<path d="M127.513 294.627V310.993H109.441V294.627H127.513Z" stroke="black" stroke-width="0.452174"/>
<path d="M127.507 278.255V294.621H109.435V278.255H127.507Z" stroke="black" stroke-width="0.452174"/>
<path d="M127.507 261.892V278.258H109.435V261.892H127.507Z" stroke="black" stroke-width="0.452174"/>
<path d="M127.513 245.524V261.89H109.441V245.524H127.513Z" stroke="black" stroke-width="0.452174"/>
<path d="M127.513 229.161V245.527H109.441V229.161H127.513Z" stroke="black" stroke-width="0.452174"/>
<path d="M127.507 212.794V229.16H109.435V212.794H127.507Z" stroke="black" stroke-width="0.452174"/>
<path d="M127.507 196.421V212.787H109.435V196.421H127.507Z" stroke="black" stroke-width="0.452174"/>
<path d="M127.507 180.058V196.424H109.435V180.058H127.507Z" stroke="black" stroke-width="0.452174"/>
<path d="M127.507 163.696V180.062H109.435V163.696H127.507Z" stroke="black" stroke-width="0.452174"/>
<path d="M127.513 147.323V163.689H109.441V147.323H127.513Z" stroke="black" stroke-width="0.452174"/>
<path d="M127.507 130.955V147.321H109.435V130.955H127.507Z" stroke="black" stroke-width="0.452174"/>
<path d="M127.507 114.588V130.954H109.435V114.588H127.507Z" stroke="black" stroke-width="0.452174"/>
<path d="M127.507 98.22V114.586H109.435V98.22H127.507Z" stroke="black" stroke-width="0.452174"/>
<path d="M127.507 81.8621V98.2281H109.435V81.8621H127.507Z" stroke="black" stroke-width="0.452174"/>
<path d="M127.513 65.4943V81.8604H109.441V65.4943H127.513Z" stroke="black" stroke-width="0.452174"/>
<path d="M127.507 49.1268V65.4928H109.435V49.1268H127.507Z" stroke="black" stroke-width="0.452174"/>
<path d="M127.513 32.759V49.125H109.441V32.759H127.513Z" stroke="black" stroke-width="0.452174"/>
<path d="M127.507 16.3914V32.7574H109.435V16.3914H127.507Z" stroke="black" stroke-width="0.452174"/>
<path d="M127.507 0.0238805V16.3899H109.435V0.0238805H127.507Z" stroke="black" stroke-width="0.452174"/>
<path d="M109.439 294.627V310.993H91.3667V294.627H109.439Z" stroke="black" stroke-width="0.452174"/>
<path d="M109.439 278.259V294.625H91.3667V278.259H109.439Z" stroke="black" stroke-width="0.452174"/>
<path d="M109.439 261.887V278.253H91.3667V261.887H109.439Z" stroke="black" stroke-width="0.452174"/>
<path d="M109.439 245.524V261.89H91.3667V245.524H109.439Z" stroke="black" stroke-width="0.452174"/>
<path d="M109.441 229.161V245.527H91.3689V229.161H109.441Z" stroke="black" stroke-width="0.452174"/>
<path d="M109.441 212.789V229.155H91.3689V212.789H109.441Z" stroke="black" stroke-width="0.452174"/>
<path d="M109.439 196.426V212.792H91.3667V196.426H109.439Z" stroke="black" stroke-width="0.452174"/>
<path d="M109.439 180.058V196.424H91.3667V180.058H109.439Z" stroke="black" stroke-width="0.452174"/>
<path d="M109.439 163.696V180.062H91.3667V163.696H109.439Z" stroke="black" stroke-width="0.452174"/>
<path d="M109.439 147.323V163.689H91.3667V147.323H109.439Z" stroke="black" stroke-width="0.452174"/>
<path d="M109.439 130.955V147.321H91.3667V130.955H109.439Z" stroke="black" stroke-width="0.452174"/>
<path d="M109.439 114.588V130.954H91.3667V114.588H109.439Z" stroke="black" stroke-width="0.452174"/>
<path d="M109.439 98.2248V114.591H91.3667V98.2248H109.439Z" stroke="black" stroke-width="0.452174"/>
<path d="M109.441 81.8621V98.2281H91.3689V81.8621H109.441Z" stroke="black" stroke-width="0.452174"/>
<path d="M109.439 65.4943V81.8604H91.3667V65.4943H109.439Z" stroke="black" stroke-width="0.452174"/>
<path d="M109.439 49.1268V65.4928H91.3667V49.1268H109.439Z" stroke="black" stroke-width="0.452174"/>
<path d="M109.439 32.759V49.125H91.3667V32.759H109.439Z" stroke="black" stroke-width="0.452174"/>
<path d="M109.439 16.3962V32.7622H91.3667V16.3962H109.439Z" stroke="black" stroke-width="0.452174"/>
<path d="M109.439 0.0238805V16.3899H91.3667V0.0238805H109.439Z" stroke="black" stroke-width="0.452174"/>
<path d="M91.3654 294.627V310.993H73.2932V294.627H91.3654Z" stroke="black" stroke-width="0.452174"/>
<path d="M91.3654 278.255V294.621H73.2932V278.255H91.3654Z" stroke="black" stroke-width="0.452174"/>
<path d="M91.3654 261.887V278.253H73.2932V261.887H91.3654Z" stroke="black" stroke-width="0.452174"/>
<path d="M91.3654 245.524V261.89H73.2932V245.524H91.3654Z" stroke="black" stroke-width="0.452174"/>
<path d="M91.3654 229.161V245.527H73.2932V229.161H91.3654Z" stroke="black" stroke-width="0.452174"/>
<path d="M91.3654 212.794V229.16H73.2932V212.794H91.3654Z" stroke="black" stroke-width="0.452174"/>
<path d="M91.3654 196.426V212.792H73.2932V196.426H91.3654Z" stroke="black" stroke-width="0.452174"/>
<path d="M91.3654 180.063V196.429H73.2932V180.063H91.3654Z" stroke="black" stroke-width="0.452174"/>
<path d="M91.3654 163.696V180.062H73.2932V163.696H91.3654Z" stroke="black" stroke-width="0.452174"/>
<path d="M91.3654 147.323V163.689H73.2932V147.323H91.3654Z" stroke="black" stroke-width="0.452174"/>
<path d="M91.3654 130.955V147.321H73.2932V130.955H91.3654Z" stroke="black" stroke-width="0.452174"/>
<path d="M91.3654 114.593V130.959H73.2932V114.593H91.3654Z" stroke="black" stroke-width="0.452174"/>
<path d="M91.3654 98.2248V114.591H73.2932V98.2248H91.3654Z" stroke="black" stroke-width="0.452174"/>
<path d="M91.3654 81.8621V98.2281H73.2932V81.8621H91.3654Z" stroke="black" stroke-width="0.452174"/>
<path d="M91.3654 65.4898V81.8558H73.2932V65.4898H91.3654Z" stroke="black" stroke-width="0.452174"/>
<path d="M91.3654 49.122V65.488H73.2932V49.122H91.3654Z" stroke="black" stroke-width="0.452174"/>
<path d="M91.3654 32.759V49.125H73.2932V32.759H91.3654Z" stroke="black" stroke-width="0.452174"/>
<path d="M91.3654 16.3914V32.7574H73.2932V16.3914H91.3654Z" stroke="black" stroke-width="0.452174"/>
<path d="M91.3654 0.0238805V16.3899H73.2932V0.0238805H91.3654Z" stroke="black" stroke-width="0.452174"/>
<path d="M73.2916 294.627V310.993H55.2194V294.627H73.2916Z" stroke="black" stroke-width="0.452174"/>
<path d="M73.2916 278.255V294.621H55.2194V278.255H73.2916Z" stroke="black" stroke-width="0.452174"/>
<path d="M73.2916 261.887V278.253H55.2194V261.887H73.2916Z" stroke="black" stroke-width="0.452174"/>
<path d="M73.2916 245.524V261.89H55.2194V245.524H73.2916Z" stroke="black" stroke-width="0.452174"/>
<path d="M73.2955 229.157V245.523H55.2233V229.157H73.2955Z" stroke="black" stroke-width="0.452174"/>
<path d="M73.2916 212.789V229.155H55.2194V212.789H73.2916Z" stroke="black" stroke-width="0.452174"/>
<path d="M73.2916 196.421V212.787H55.2194V196.421H73.2916Z" stroke="black" stroke-width="0.452174"/>
<path d="M73.2916 180.058V196.424H55.2194V180.058H73.2916Z" stroke="black" stroke-width="0.452174"/>
<path d="M73.2916 163.696V180.062H55.2194V163.696H73.2916Z" stroke="black" stroke-width="0.452174"/>
<path d="M73.2916 147.323V163.689H55.2194V147.323H73.2916Z" stroke="black" stroke-width="0.452174"/>
<path d="M73.2916 130.955V147.321H55.2194V130.955H73.2916Z" stroke="black" stroke-width="0.452174"/>
<path d="M73.2916 114.588V130.954H55.2194V114.588H73.2916Z" stroke="black" stroke-width="0.452174"/>
<path d="M73.2916 98.2248V114.591H55.2194V98.2248H73.2916Z" stroke="black" stroke-width="0.452174"/>
<path d="M73.2916 81.8621V98.2281H55.2194V81.8621H73.2916Z" stroke="black" stroke-width="0.452174"/>
<path d="M73.2916 65.4943V81.8604H55.2194V65.4943H73.2916Z" stroke="black" stroke-width="0.452174"/>
<path d="M73.2916 49.1268V65.4928H55.2194V49.1268H73.2916Z" stroke="black" stroke-width="0.452174"/>
<path d="M73.2916 32.759V49.125H55.2194V32.759H73.2916Z" stroke="black" stroke-width="0.452174"/>
<path d="M73.2916 16.3914V32.7574H55.2194V16.3914H73.2916Z" stroke="black" stroke-width="0.452174"/>
<path d="M73.2916 0.0238805V16.3899H55.2194V0.0238805H73.2916Z" stroke="black" stroke-width="0.452174"/>
<path d="M55.2218 294.627V310.993H37.1495V294.627H55.2218Z" stroke="black" stroke-width="0.452174"/>
<path d="M55.2218 278.255V294.621H37.1495V278.255H55.2218Z" stroke="black" stroke-width="0.452174"/>
<path d="M55.2218 261.892V278.258H37.1495V261.892H55.2218Z" stroke="black" stroke-width="0.452174"/>
<path d="M55.2218 245.524V261.89H37.1495V245.524H55.2218Z" stroke="black" stroke-width="0.452174"/>
<path d="M55.2218 229.161V245.527H37.1495V229.161H55.2218Z" stroke="black" stroke-width="0.452174"/>
<path d="M55.2218 212.789V229.155H37.1495V212.789H55.2218Z" stroke="black" stroke-width="0.452174"/>
<path d="M55.2218 196.426V212.792H37.1495V196.426H55.2218Z" stroke="black" stroke-width="0.452174"/>
<path d="M55.2178 180.063V196.429H37.1456V180.063H55.2178Z" stroke="black" stroke-width="0.452174"/>
<path d="M55.2218 163.696V180.062H37.1495V163.696H55.2218Z" stroke="black" stroke-width="0.452174"/>
<path d="M55.2218 147.323V163.689H37.1495V147.323H55.2218Z" stroke="black" stroke-width="0.452174"/>
<path d="M55.2218 130.955V147.321H37.1495V130.955H55.2218Z" stroke="black" stroke-width="0.452174"/>
<path d="M55.2218 114.588V130.954H37.1495V114.588H55.2218Z" stroke="black" stroke-width="0.452174"/>
<path d="M55.2218 98.22V114.586H37.1495V98.22H55.2218Z" stroke="black" stroke-width="0.452174"/>
<path d="M55.2218 81.8621V98.2281H37.1495V81.8621H55.2218Z" stroke="black" stroke-width="0.452174"/>
<path d="M55.2218 65.4943V81.8604H37.1495V65.4943H55.2218Z" stroke="black" stroke-width="0.452174"/>
<path d="M55.2218 49.1268V65.4928H37.1495V49.1268H55.2218Z" stroke="black" stroke-width="0.452174"/>
<path d="M55.2218 32.759V49.125H37.1495V32.759H55.2218Z" stroke="black" stroke-width="0.452174"/>
<path d="M55.2218 16.3914V32.7574H37.1495V16.3914H55.2218Z" stroke="black" stroke-width="0.452174"/>
<path d="M55.2218 0.0238805V16.3899H37.1495V0.0238805H55.2218Z" stroke="black" stroke-width="0.452174"/>
<path d="M37.1481 294.627V310.993H19.0759V294.627H37.1481Z" stroke="black" stroke-width="0.452174"/>
<path d="M37.1481 278.259V294.625H19.0759V278.259H37.1481Z" stroke="black" stroke-width="0.452174"/>
<path d="M37.1481 261.887V278.253H19.0759V261.887H37.1481Z" stroke="black" stroke-width="0.452174"/>
<path d="M37.1481 245.524V261.89H19.0759V245.524H37.1481Z" stroke="black" stroke-width="0.452174"/>
<path d="M37.1481 229.157V245.523H19.0759V229.157H37.1481Z" stroke="black" stroke-width="0.452174"/>
<path d="M37.1481 212.789V229.155H19.0759V212.789H37.1481Z" stroke="black" stroke-width="0.452174"/>
<path d="M37.1481 196.426V212.792H19.0759V196.426H37.1481Z" stroke="black" stroke-width="0.452174"/>
<path d="M37.1481 180.058V196.424H19.0759V180.058H37.1481Z" stroke="black" stroke-width="0.452174"/>
<path d="M37.1481 163.696V180.062H19.0759V163.696H37.1481Z" stroke="black" stroke-width="0.452174"/>
<path d="M37.1481 147.323V163.689H19.0759V147.323H37.1481Z" stroke="black" stroke-width="0.452174"/>
<path d="M37.1481 130.955V147.321H19.0759V130.955H37.1481Z" stroke="black" stroke-width="0.452174"/>
<path d="M37.1481 114.593V130.959H19.0759V114.593H37.1481Z" stroke="black" stroke-width="0.452174"/>
<path d="M37.1481 98.2248V114.591H19.0759V98.2248H37.1481Z" stroke="black" stroke-width="0.452174"/>
<path d="M37.1481 81.8574V98.2234H19.0759V81.8574H37.1481Z" stroke="black" stroke-width="0.452174"/>
<path d="M37.1481 65.4943V81.8604H19.0759V65.4943H37.1481Z" stroke="black" stroke-width="0.452174"/>
<path d="M37.1481 49.122V65.488H19.0759V49.122H37.1481Z" stroke="black" stroke-width="0.452174"/>
<path d="M37.1481 32.7545V49.1205H19.0759V32.7545H37.1481Z" stroke="black" stroke-width="0.452174"/>
<path d="M37.1481 16.3914V32.7574H19.0759V16.3914H37.1481Z" stroke="black" stroke-width="0.452174"/>
<path d="M37.1481 0.0238805V16.3899H19.0759V0.0238805H37.1481Z" stroke="black" stroke-width="0.452174"/>
<path d="M19.0742 294.627V310.993H1.00195L1.00195 294.627H19.0742Z" stroke="black" stroke-width="0.452174"/>
<path d="M19.0742 278.259V294.625H1.00195L1.00195 278.259H19.0742Z" stroke="black" stroke-width="0.452174"/>
<path d="M19.0742 261.887V278.253H1.00195L1.00195 261.887H19.0742Z" stroke="black" stroke-width="0.452174"/>
<path d="M19.0742 245.524V261.89H1.00195L1.00195 245.524H19.0742Z" stroke="black" stroke-width="0.452174"/>
<path d="M19.0742 229.161V245.527H1.00195L1.00195 229.161H19.0742Z" stroke="black" stroke-width="0.452174"/>
<path d="M19.0742 212.794V229.16H1.00195L1.00195 212.794H19.0742Z" stroke="black" stroke-width="0.452174"/>
<path d="M19.0742 196.426V212.792H1.00195L1.00195 196.426H19.0742Z" stroke="black" stroke-width="0.452174"/>
<path d="M19.0742 180.058V196.424H1.00195L1.00195 180.058H19.0742Z" stroke="black" stroke-width="0.452174"/>
<path d="M19.0742 163.691V180.057H1.00195L1.00195 163.691H19.0742Z" stroke="black" stroke-width="0.452174"/>
<path d="M19.0742 147.323V163.689H1.00195L1.00195 147.323H19.0742Z" stroke="black" stroke-width="0.452174"/>
<path d="M19.0742 130.955V147.321H1.00195L1.00195 130.955H19.0742Z" stroke="black" stroke-width="0.452174"/>
<path d="M19.0742 114.588V130.954H1.00195L1.00195 114.588H19.0742Z" stroke="black" stroke-width="0.452174"/>
<path d="M19.0742 98.2248V114.591H1.00195L1.00195 98.2248H19.0742Z" stroke="black" stroke-width="0.452174"/>
<path d="M19.0742 81.8618V98.2278H1.00195L1.00195 81.8618H19.0742Z" stroke="black" stroke-width="0.452174"/>
<path d="M19.0742 65.4943V81.8604H1.00195L1.00195 65.4943H19.0742Z" stroke="black" stroke-width="0.452174"/>
<path d="M19.0742 49.1268V65.4928H1.00195L1.00195 49.1268H19.0742Z" stroke="black" stroke-width="0.452174"/>
<path d="M19.0742 32.759V49.125H1.00195L1.00195 32.759H19.0742Z" stroke="black" stroke-width="0.452174"/>
<path d="M19.0742 16.3962V32.7622H1.00195L1.00195 16.3962H19.0742Z" stroke="black" stroke-width="0.452174"/>
<path d="M19.0742 0.0238805V16.3899H1.00195L1.00195 0.0238805H19.0742Z" stroke="black" stroke-width="0.452174"/>
</mask>
<g mask="url(#mask0_80_2004)">
<path opacity="0.5" d="M597.406 0.0250703V300.023L1.00195 300.023L1.00195 0.0250703L597.406 0.0250703Z" fill="url(#paint0_radial_80_2004)"/>
</g>
</g>
</g>
</g>
<defs>
<radialGradient id="paint0_radial_80_2004" cx="0" cy="0" r="1" gradientUnits="userSpaceOnUse" gradientTransform="translate(-16.1796 99.2119) rotate(3.75542) scale(449.432 197.447)">
<stop stop-color="#575757"/>
<stop offset="1" stop-color="#989898" stop-opacity="0"/>
</radialGradient>
<clipPath id="clip0_80_2004">
<rect width="620" height="310" fill="white"/>
</clipPath>
<clipPath id="clip1_80_2004">
<rect width="723" height="543" fill="white" transform="matrix(0 -1 1 0 0 723)"/>
</clipPath>
<clipPath id="clip2_80_2004">
<rect width="300" height="512" fill="white" transform="matrix(0 -1 1 0 1 300.023)"/>
</clipPath>
</defs>
</svg>
