<svg width="198" height="25" viewBox="0 0 198 25" fill="none" xmlns="http://www.w3.org/2000/svg">
<path d="M3 15.8132C5.86266 14.1636 8.50043 12.4316 11.6006 10.8812C17.2991 8.03159 23.4782 5.21311 29.9919 2.8119C33.5797 1.48927 28.2951 3.51435 32.2932 2.53175C33.4383 2.25035 34.6233 2 35.9174 2C37.6277 2 35.1075 3.64141 34.8085 3.91431C28.0428 10.0902 26.9595 12.3188 20.8503 18.6581C17.9567 21.6608 29.4248 19.7721 31.6687 19.2297C38.918 17.4777 45.4531 14.904 51.5205 12.317C54.0793 11.2259 57.5936 9.04888 60.8784 8.46176C62.2291 8.22033 61.6431 10.4266 61.6356 10.6154C61.4755 14.6564 59.5688 18.7056 57.741 22.633C57.683 22.7575 56.3719 25.3532 57.1731 24.9594C64.2634 21.4743 70.3055 17.4736 77.3764 13.9654C79.2684 13.0267 84.5264 9.78796 87.8702 9.93738C90.1745 10.0403 90.4248 13.62 90.8723 14.4174C91.6247 15.758 92.2196 17.6386 95.2267 18.1928C99.1667 18.919 103.162 17.4908 105.937 16.2785C108.281 15.2543 114.881 11.0083 118.135 13.2475C123.048 16.6288 128.246 16.6757 134.2 13.54C138.14 11.4651 141.859 9.08276 147.696 8.30224C154.109 7.44466 159.738 9.37742 164.735 11.1205C170.457 13.1165 178.618 17.6151 186.561 17.2756C189.005 17.1711 193.995 15.8248 196 16.8103" stroke="url(#paint0_linear_11_115577)" stroke-width="3" stroke-linecap="square"/>
<defs>
<linearGradient id="paint0_linear_11_115577" x1="15.2233" y1="9.0278" x2="189.565" y2="13.5624" gradientUnits="userSpaceOnUse">

<stop stop-color="#39B6D8"/>
<stop offset="0.5" stop-color="#F7D344"/>
<stop offset="1" stop-color="#E38330"/>
</linearGradient>
</defs>
</svg>
