<svg width="1440" height="308" viewBox="0 0 1440 308" fill="none" xmlns="http://www.w3.org/2000/svg">
<path opacity="0.05" d="M-23.0379 123.264C16.9675 105.274 57.0211 87.7965 98.388 72.0338C98.5572 71.9694 122.191 61.5323 119.78 67.1628C113.092 82.7864 98.6281 99.0342 89.22 113.354C46.9613 177.674 3.48476 241.483 -40.1516 305.173C-68.1794 346.082 -97.6111 386.323 -125.516 427.286C-134.838 440.969 -145.461 453.47 -120.831 437.532C16.4739 348.683 145.668 250.807 278.897 157.865C306.953 138.293 335.548 117.314 367.725 102.268C383.569 94.8596 372.298 110.781 368.948 115.873C357.17 133.776 343.75 150.968 330.442 168.111C324.165 176.197 296.308 206.659 328.201 188.268C388.911 153.258 442.931 110.823 504.024 76.233C520.083 67.1407 541.95 54.9394 561.885 50.8699C605.321 42.0025 558.479 103.785 556.791 106.635C519.988 168.774 478.171 228.856 441.477 291.064C440.501 292.72 423.172 322.669 421.919 326.673C415.23 348.043 451.167 339.251 462.054 336.919C516.927 325.169 564.053 299.308 611.8 275.275C615.673 273.325 663.022 246.178 650.305 267.548C639.573 285.585 623.189 301.515 609.355 317.939C607.703 319.9 577.425 355.979 594.278 347.501C657.563 315.666 712.334 268.509 768.472 229.084C816.71 195.206 864.872 160.887 916.179 130.151C919.117 128.391 943.144 111.412 938.183 126.791C930.845 149.538 911.722 169.218 901.103 190.955C890.319 213.029 894.602 224.989 926.366 225.221C976.073 225.583 1025.18 214.045 1073.87 207.416C1088.74 205.391 1118.36 199.204 1129.08 212.623C1141.32 227.946 1123.53 250.588 1119.91 265.869C1104.58 330.647 1414.07 227.196 1441 218.838" stroke="#FAFAFA" stroke-width="100" stroke-linecap="round"/>
</svg>
