<svg width="40" height="40" viewBox="0 0 40 40" fill="none" xmlns="http://www.w3.org/2000/svg">
<rect width="40" height="40" fill="#090909"/>
<circle cx="20" cy="20" r="19.6246" stroke="url(#paint0_linear_2427_6436)" stroke-width="0.750863"/>
<path d="M20 16.429V14.2861" stroke="white" stroke-width="1.3" stroke-linecap="round" stroke-linejoin="round"/>
<path d="M17.8594 22.144C17.8594 23.2154 18.8165 23.5725 20.0022 23.5725C21.1879 23.5725 22.1451 23.5725 22.1451 22.144C22.1451 20.0011 17.8594 20.0011 17.8594 17.8583C17.8594 16.4297 18.8165 16.4297 20.0022 16.4297C21.1879 16.4297 22.1451 16.9725 22.1451 17.8583" stroke="white" stroke-width="1.3" stroke-linecap="round" stroke-linejoin="round"/>
<path d="M20 23.5723V25.7151" stroke="white" stroke-width="1.3" stroke-linecap="round" stroke-linejoin="round"/>
<path d="M20.0045 29.2863C25.1328 29.2863 29.2902 25.1289 29.2902 20.0006C29.2902 14.8722 25.1328 10.7148 20.0045 10.7148C14.8761 10.7148 10.7188 14.8722 10.7188 20.0006C10.7188 25.1289 14.8761 29.2863 20.0045 29.2863Z" stroke="white" stroke-width="1.3" stroke-linecap="round" stroke-linejoin="round"/>
<defs>
<linearGradient id="paint0_linear_2427_6436" x1="20" y1="0" x2="20" y2="40" gradientUnits="userSpaceOnUse">
<stop stop-color="#39B6D8"/>
<stop offset="0.5" stop-color="#F7D344"/>
<stop offset="1" stop-color="#E38330"/>
</linearGradient>
</defs>
</svg>
