<svg width="40" height="41" viewBox="0 0 40 41" fill="none" xmlns="http://www.w3.org/2000/svg">
<rect width="40" height="40" transform="translate(0 0.174072)" fill="#090909"/>
<circle cx="20" cy="20.1741" r="19.6246" stroke="url(#paint0_linear_4119_4080)" stroke-width="0.750863"/>
<path fill-rule="evenodd" clip-rule="evenodd" d="M15.6184 11.0416C15.6346 11.0416 15.6507 11.0417 15.6667 11.0417H24.3334C24.3494 11.0417 24.3655 11.0416 24.3817 11.0416C24.5763 11.0412 24.7844 11.0408 24.9838 11.0977C25.1577 11.1474 25.3208 11.229 25.4649 11.3383C25.6301 11.4637 25.7546 11.6304 25.8711 11.7863C25.8808 11.7993 25.8904 11.8122 25.9 11.825L27.2147 13.5779C27.2237 13.5899 27.2327 13.6019 27.2417 13.6139L27.4667 13.9139C27.4765 13.927 27.4862 13.9399 27.4958 13.9527C27.6656 14.1788 27.7993 14.3569 27.8964 14.5578C27.9822 14.7351 28.0447 14.9227 28.0825 15.1159C28.1253 15.335 28.1252 15.5576 28.125 15.8403C28.125 15.8563 28.125 15.8725 28.125 15.8889V25.692C28.125 26.1372 28.125 26.5087 28.1002 26.8122C28.0744 27.1288 28.0185 27.426 27.8753 27.7071C27.6555 28.1383 27.305 28.4888 26.8738 28.7086C26.5927 28.8518 26.2955 28.9077 25.9789 28.9336C25.6754 28.9584 25.3039 28.9583 24.8587 28.9583L15.1413 28.9583C14.6962 28.9583 14.3247 28.9583 14.0211 28.9336C13.7046 28.9077 13.4074 28.8518 13.1263 28.7086C12.6951 28.4888 12.3445 28.1383 12.1248 27.7071C11.9816 27.426 11.9257 27.1288 11.8998 26.8122C11.875 26.5087 11.875 26.1372 11.875 25.692L11.875 15.8889C11.875 15.8725 11.875 15.8563 11.875 15.8403C11.8749 15.5576 11.8748 15.335 11.9176 15.1159C11.9554 14.9227 12.0179 14.7351 12.1036 14.5578C12.2008 14.3569 12.3345 14.1788 12.5042 13.9527C12.5138 13.9399 12.5235 13.927 12.5334 13.9139L12.7562 13.6167C12.7659 13.6038 12.7756 13.5909 12.7854 13.5779C12.7903 13.5714 12.7951 13.5649 12.8 13.5583L14.1 11.825C14.1096 11.8122 14.1193 11.7993 14.129 11.7863C14.2454 11.6304 14.3699 11.4637 14.5352 11.3383C14.6792 11.229 14.8423 11.1474 15.0162 11.0977C15.2157 11.0408 15.4238 11.0412 15.6184 11.0416ZM15.1 12.575L13.8 14.3083C13.7824 14.3318 13.7658 14.354 13.7501 14.375C13.7763 14.375 13.804 14.375 13.8334 14.375H26.1667C26.1961 14.375 26.2238 14.375 26.2499 14.375C26.2343 14.354 26.2177 14.3318 26.2 14.3083L24.9 12.575C24.8229 12.4721 24.7792 12.4143 24.7441 12.3723C24.7223 12.3463 24.712 12.3364 24.7092 12.3339M24.6407 12.2997C24.637 12.299 24.623 12.2966 24.5891 12.2948C24.5344 12.2919 24.462 12.2917 24.3334 12.2917H15.6667C15.5381 12.2917 15.4656 12.2919 15.4109 12.2948C15.3771 12.2966 15.363 12.299 15.3593 12.2997M15.2909 12.334C15.288 12.3365 15.2777 12.3463 15.256 12.3723C15.2208 12.4143 15.1772 12.4721 15.1 12.575M24.6418 12.3C24.6417 12.3 24.6413 12.2999 24.6407 12.2997L24.6418 12.3ZM26.8734 15.5909C26.8165 15.6015 26.7645 15.6073 26.7204 15.6113C26.5701 15.6251 26.3845 15.625 26.1911 15.625L13.8334 15.625C13.8252 15.625 13.8171 15.625 13.809 15.625C13.6156 15.625 13.43 15.6251 13.2797 15.6113C13.2356 15.6073 13.1835 15.6015 13.1267 15.5909C13.1254 15.6634 13.125 15.7585 13.125 15.8889L13.125 25.6667C13.125 26.1437 13.1255 26.4639 13.1457 26.7104C13.1652 26.9497 13.2001 27.0641 13.2386 27.1396C13.3384 27.3356 13.4978 27.4949 13.6938 27.5948C13.7693 27.6333 13.8837 27.6682 14.1229 27.6877C14.3695 27.7078 14.6897 27.7083 15.1667 27.7083L24.8334 27.7083C25.3104 27.7083 25.6306 27.7078 25.8771 27.6877C26.1164 27.6682 26.2308 27.6333 26.3063 27.5948C26.5023 27.4949 26.6616 27.3356 26.7615 27.1396C26.7999 27.0641 26.8349 26.9497 26.8544 26.7104C26.8745 26.4639 26.875 26.1437 26.875 25.6667V15.8889C26.875 15.7585 26.8747 15.6634 26.8734 15.5909ZM15.2917 12.3333C15.2917 12.3333 15.2914 12.3335 15.2909 12.334L15.2917 12.3333ZM16.6667 17.7083C17.0119 17.7083 17.2917 17.9882 17.2917 18.3333C17.2917 19.0516 17.577 19.7405 18.0849 20.2484C18.5929 20.7563 19.2817 21.0417 20 21.0417C20.7183 21.0417 21.4072 20.7563 21.9151 20.2484C22.423 19.7405 22.7084 19.0516 22.7084 18.3333C22.7084 17.9882 22.9882 17.7083 23.3334 17.7083C23.6785 17.7083 23.9584 17.9882 23.9584 18.3333C23.9584 19.3832 23.5413 20.39 22.799 21.1323C22.0567 21.8746 21.0498 22.2917 20 22.2917C18.9502 22.2917 17.9434 21.8746 17.2011 21.1323C16.4587 20.39 16.0417 19.3832 16.0417 18.3333C16.0417 17.9882 16.3215 17.7083 16.6667 17.7083Z" fill="white"/>
<defs>
<linearGradient id="paint0_linear_4119_4080" x1="9.9686e-08" y1="33.9241" x2="40.0137" y2="34.798" gradientUnits="userSpaceOnUse">
<stop stop-color="#39B5D7"/>
<stop offset="0.502211" stop-color="#F7D544"/>
<stop offset="1" stop-color="#E38330"/>
</linearGradient>
</defs>
</svg>
