<svg width="30" height="30" viewBox="0 0 30 30" fill="none" xmlns="http://www.w3.org/2000/svg">
<path d="M21.7294 19.6988C21.7508 19.6987 22.1607 19.4523 22.6402 19.151C23.1198 18.8497 23.5027 18.5854 23.4914 18.5636C23.4799 18.5419 23.2511 18.2323 22.9829 17.8757C22.4443 17.1597 21.9266 16.2123 21.6981 15.5247C20.9859 13.3815 21.3244 11.1523 22.6357 9.34955L22.9697 8.89047L22.339 8.25978L21.7082 7.62904L21.289 7.92852C18.5421 9.89063 15.2583 9.67684 12.354 7.3469C12.1644 7.19474 12.0022 7.07737 11.9936 7.086C11.9142 7.16541 10.9134 8.79617 10.9135 8.84601C10.9135 8.88204 11.0871 9.02886 11.2992 9.17217C13.6477 10.7592 16.3391 11.2702 18.4233 10.525L18.9233 10.3463L11.9575 17.3372L7.55281 21.7579L8.82923 23.0343L13.2612 18.6183L20.2358 11.669L20.023 12.313C19.4709 13.9838 19.6882 15.961 20.6428 17.952C20.9147 18.5193 21.6484 19.6986 21.7294 19.6988Z" fill="url(#paint0_linear_163_2838)"/>
<defs>
<linearGradient id="paint0_linear_163_2838" x1="11.3124" y1="23.7262" x2="24.047" y2="10.894" gradientUnits="userSpaceOnUse">
<stop stop-color="#39B6D8"/>
<stop offset="0.5" stop-color="#F7D344"/>
<stop offset="1" stop-color="#E38330"/>
</linearGradient>
</defs>
</svg>
