<svg width="24" height="24" viewBox="0 0 24 24" fill="none" xmlns="http://www.w3.org/2000/svg">
<path d="M16.4685 15.1035C16.4832 15.1032 16.7683 14.9288 17.1019 14.7159C17.4355 14.5029 17.7022 14.3165 17.6946 14.3016C17.687 14.2868 17.533 14.0763 17.3525 13.8339C16.9899 13.3471 16.6445 12.7009 16.4951 12.2301C16.0295 10.7628 16.2882 9.22424 17.2119 7.96797L17.447 7.64805L17.0201 7.22113L16.5932 6.79417L16.301 7.00519C14.3873 8.38771 12.129 8.27842 10.1564 6.70786C10.0276 6.60529 9.91729 6.52636 9.91126 6.53239C9.85567 6.58798 9.14786 7.72225 9.14733 7.75656C9.14695 7.78137 9.26477 7.88044 9.40914 7.97666C11.0077 9.04216 12.8547 9.36294 14.2982 8.82585L14.6445 8.69702L9.76813 13.5904L6.68467 16.6847L7.5487 17.5487L10.6509 14.4573L15.5328 9.59251L15.3789 10.0384C14.9795 11.195 15.1063 12.5537 15.7405 13.9134C15.9212 14.3008 16.4127 15.1043 16.4685 15.1035Z" fill="url(#paint0_linear_152_5197)"/>
<defs>
<linearGradient id="paint0_linear_152_5197" x1="9.2503" y1="17.9964" x2="18.1634" y2="9.01269" gradientUnits="userSpaceOnUse">
<stop stop-color="#39B6D8"/>
<stop offset="0.5" stop-color="#F7D344"/>
<stop offset="1" stop-color="#E38330"/>
</linearGradient>
</defs>
</svg>
