<svg width="1440" height="390" viewBox="0 0 1440 390" fill="none" xmlns="http://www.w3.org/2000/svg">
<path opacity="0.23" d="M-879.798 617.232C-896.748 646.433 -916.149 673.16 -870.806 638.815C-618.038 447.36 -380.594 236.984 -135.514 36.96C-83.9032 -5.16239 -31.33 -50.2772 28.0646 -82.9143C57.31 -98.9845 36.7974 -64.9973 30.711 -54.1339C9.31214 -15.9399 -15.1599 20.7891 -39.4241 57.4116C-50.8687 74.6852 -101.809 139.861 -43.035 100.147C68.8462 24.5477 168.086 -66.6148 280.69 -141.336C310.289 -160.977 350.6 -187.341 387.54 -196.44C468.032 -216.266 382.666 -84.3076 379.607 -78.2322C312.91 54.2384 236.836 182.472 170.343 315.086C168.573 318.616 137.188 382.454 134.969 390.962C123.123 436.375 189.679 416.889 209.852 411.689C311.522 385.482 398.405 329.583 486.492 277.54C493.639 273.317 580.9 214.688 557.852 260.249C538.399 298.701 508.383 332.829 483.122 367.941C480.105 372.134 424.819 449.264 455.912 430.904C572.665 361.963 673.173 260.785 776.433 175.945C865.163 103.042 953.738 29.208 1048.26 -37.1157C1053.67 -40.913 1097.86 -77.4457 1089.07 -44.7606C1076.05 3.58286 1041.05 45.7183 1021.91 92.0035C1002.47 139.005 1010.76 164.228 1069.81 163.952C1162.21 163.519 1253.18 137.9 1343.49 122.688C1371.08 118.041 1425.97 104.225 1446.26 132.381C1469.43 164.532 1436.98 212.906 1430.68 245.352C1403.97 382.893 1976.38 156.357 2026.2 138.009" stroke="white" stroke-width="51" stroke-linecap="round"/>
</svg>
