<svg width="1440" height="234" viewBox="0 0 1440 234" fill="none" xmlns="http://www.w3.org/2000/svg">
<path opacity="0.06" d="M-104.699 98.837C-92.4794 92.8522 -76.7664 89.5695 -63.4178 85.3471C1.40703 64.8418 64.0875 41.4067 126.325 17.2229C163.509 2.77446 200.737 -11.262 239.186 -23.9214C239.343 -23.9731 261.31 -32.3554 259.069 -27.8335C252.853 -15.2857 239.409 -2.23668 230.665 9.26387C191.387 60.9208 150.977 112.168 110.418 163.319M110.418 163.319C102.069 173.849 136.355 130.421 110.418 163.319ZM110.418 163.319C101.447 174.06 91.775 184.262 114.774 171.548C242.393 100.191 283.131 119.656 406.963 45.0122C433.04 29.2932 459.618 12.4442 489.525 0.360504C504.252 -5.58941 493.775 7.19784 490.662 11.2874C479.715 25.6655 467.241 39.4729 454.872 53.241C449.038 59.735 423.146 84.1995 452.789 69.429C509.217 41.3121 559.426 7.23125 616.21 -20.5489C631.136 -27.8511 651.461 -37.6504 669.99 -40.9187C710.362 -48.0403 666.824 1.57909 665.255 3.86789C631.048 53.7735 592.181 102.026 558.075 151.987C557.167 153.317 541.061 177.371 539.896 180.586C533.679 197.749 567.082 190.687 577.201 188.815C628.203 179.378 672.005 158.608 716.384 139.307C719.984 137.741 763.993 115.938 752.174 133.101C742.198 147.587 726.969 160.381 714.111 173.571C712.576 175.146 684.434 204.123 700.098 197.314C758.919 171.746 809.827 133.873 862.005 102.21C906.841 75.0012 951.605 47.4388 999.294 22.7538C1002.02 21.3405 1024.36 7.70464 1019.74 20.0558C1012.92 38.324 995.151 54.1298 985.281 71.5873C975.258 89.3151 979.239 98.9207 1008.76 99.1068C1054.96 99.3981 1100.61 90.1311 1145.86 84.8075C1159.68 83.1813 1187.22 78.2123 1197.18 88.9894C1208.56 101.296 1192.02 119.48 1188.66 131.752C1174.41 183.778 1462.07 100.693 1487.1 93.9806" stroke="url(#paint0_linear_564_23255)" stroke-width="88" stroke-linecap="round"/>
<defs>
<linearGradient id="paint0_linear_564_23255" x1="-3.88556" y1="31.7056" x2="1434.39" y2="61.2782" gradientUnits="userSpaceOnUse">
<stop stop-color="#39B6D8"/>
<stop offset="0.5" stop-color="#F7D344"/>
<stop offset="1" stop-color="#E38330"/>
</linearGradient>
</defs>
</svg>
