<svg width="1440" height="744" viewBox="0 0 1440 744" fill="none" xmlns="http://www.w3.org/2000/svg">
<path opacity="0.7" d="M-1356 441.959C-1329.6 420.528 -1295.65 408.773 -1266.81 393.653C-1126.76 320.224 -991.344 236.304 -856.883 149.704C-776.549 97.9645 -696.119 47.7008 -613.052 2.36819C-612.712 2.1828 -565.255 -27.8336 -570.095 -11.6408C-583.526 33.2919 -612.569 80.0199 -631.462 121.203C-716.32 306.183 -803.624 489.695 -891.248 672.865C-947.53 790.516 -1006.63 906.249 -1062.67 1024.06C-1081.39 1063.41 -1102.72 1099.36 -1053.26 1053.52C-777.541 797.998 -518.11 516.51 -250.578 249.215C-194.239 192.927 -136.818 132.591 -72.2048 89.3203C-40.3896 68.014 -63.0235 113.804 -69.7502 128.449C-93.4004 179.936 -120.349 229.38 -147.072 278.683C-159.677 301.937 -215.616 389.543 -151.573 336.651C-29.6622 235.966 78.8123 113.924 201.491 14.4449C233.739 -11.7041 277.65 -46.7946 317.679 -58.4983C404.902 -84.0005 310.841 93.684 307.452 101.88C233.549 280.589 149.578 453.379 75.8939 632.288C73.9325 637.05 39.1356 723.184 36.6191 734.698C23.1868 796.157 95.3514 770.87 117.214 764.165C227.402 730.371 322.034 655.997 417.912 586.879C425.691 581.272 520.769 503.197 495.234 564.658C473.683 616.531 440.782 662.345 413.003 709.578C409.685 715.219 348.885 818.981 382.728 794.598C509.808 703.041 619.792 567.422 732.519 454.036C829.385 356.605 926.097 257.905 1029.13 169.509C1035.02 164.448 1083.27 115.619 1073.31 159.848C1058.58 225.266 1020.18 281.865 998.852 344.38C977.197 407.862 985.798 442.259 1049.58 442.925C1149.4 443.968 1248.01 410.784 1345.78 391.72C1375.64 385.897 1435.13 368.103 1456.65 406.695C1481.23 450.764 1445.5 515.88 1438.24 559.828C1407.45 746.127 2028.93 448.606 2083 424.569" stroke="#171717" stroke-width="64" stroke-linecap="round"/>
</svg>
