<svg width="1440" height="727" viewBox="0 0 1440 727" fill="none" xmlns="http://www.w3.org/2000/svg">
<path opacity="0.7" d="M-164 387.212C-147.119 369.818 -125.412 360.277 -106.971 348.005C-17.4185 288.409 69.1719 220.298 155.151 150.011C206.518 108.019 257.948 67.2237 311.064 30.4309C311.281 30.2804 341.626 5.91849 338.531 19.0609C329.943 55.5292 311.372 93.4545 299.292 126.879C245.031 277.013 189.206 425.955 133.176 574.62C97.1881 670.107 59.3973 764.038 23.5664 859.652C11.5971 891.592 -2.04264 920.771 29.5832 883.568C205.884 676.18 371.772 447.719 542.84 230.777C578.865 185.092 615.581 136.123 656.897 101.003C677.241 83.7103 662.768 120.875 658.467 132.76C643.344 174.548 626.112 214.678 609.025 254.693C600.965 273.567 565.196 344.67 606.147 301.741C684.1 220.023 753.462 120.972 831.907 40.2325C852.527 19.0095 880.605 -9.47058 906.201 -18.9696C961.974 -39.6676 901.828 104.545 899.661 111.197C852.406 256.241 798.712 396.481 751.596 541.686C750.342 545.551 728.092 615.459 726.483 624.804C717.894 674.685 764.038 654.162 778.017 648.72C848.475 621.293 908.985 560.929 970.293 504.832C975.267 500.281 1036.06 436.913 1019.73 486.797C1005.95 528.898 984.916 566.081 967.153 604.417C965.032 608.995 926.155 693.21 947.795 673.42C1029.05 599.111 1099.38 489.039 1171.46 397.013C1233.4 317.936 1295.24 237.83 1361.12 166.086C1364.89 161.978 1395.74 122.348 1389.37 158.245C1379.95 211.339 1355.4 257.276 1341.76 308.014C1327.92 359.537 1333.42 387.455 1374.2 387.996C1438.03 388.842 1501.08 361.909 1563.6 346.437C1582.7 341.71 1620.73 327.269 1634.49 358.591C1650.21 394.357 1627.36 447.207 1622.72 482.876C1603.03 634.081 2000.42 392.607 2035 373.097" stroke="#171717" stroke-width="64" stroke-linecap="round"/>
</svg>
