<svg width="1440" height="476" viewBox="0 0 1440 476" fill="none" xmlns="http://www.w3.org/2000/svg">
<path opacity="0.03" d="M-164.283 132.49C-117.238 97.1928 -70.0702 62.8008 -21.075 31.3351C-20.8747 31.2064 6.94086 10.6926 4.66508 20.8763C-1.64987 49.1346 -17.4612 79.163 -27.2851 105.343C-71.4109 222.935 -117.099 339.726 -162.998 456.32C-192.48 531.208 -223.772 605.035 -253.096 680.009C-262.891 705.054 -274.434 728.114 -246.067 697.766C-87.9321 528.591 59.1077 344.109 211.722 168.028C243.86 130.948 276.489 91.3282 314.258 61.9175C332.854 47.436 320.933 76.6141 317.435 85.9238C305.134 118.656 290.723 150.268 276.445 181.785C269.71 196.65 239.155 253.011 276.162 217.695C346.609 150.47 407.904 70.6569 478.873 4.14228C497.528 -13.3417 522.953 -36.8313 546.996 -45.7451C599.387 -65.168 549.306 48.3193 547.578 53.5138C509.902 166.776 465.799 276.818 428.265 390.193C427.266 393.211 409.611 447.765 408.56 454.967C402.951 493.409 446.117 474.759 459.236 469.698C525.353 444.189 580.198 394.337 636.031 347.67C640.561 343.884 695.522 291.732 682.491 330.69C671.494 363.57 653.278 393.199 638.264 423.485C636.471 427.102 603.626 493.625 623.335 477.161C697.341 415.341 758.981 327.096 823.254 252.436C878.484 188.281 933.565 123.35 992.959 64.5009C996.36 61.1316 1023.86 28.9919 1019.64 56.669C1013.4 97.6053 992.273 134.114 981.869 173.542C971.304 213.58 978.048 234.41 1017.18 232.108C1078.43 228.507 1137.48 203.865 1196.61 187.962C1214.67 183.104 1250.38 169.61 1265.23 192.475C1282.18 218.584 1263.06 260.228 1260.48 287.617C1249.57 403.722 1617.91 193.967 1650.03 176.856" stroke="#FAFAFA" stroke-width="100" stroke-linecap="round"/>
</svg>
