<svg width="1440" height="367" viewBox="0 0 1440 367" fill="none" xmlns="http://www.w3.org/2000/svg">
<path opacity="0.85" d="M1504.27 1062.46C1487.01 1060.76 1467.71 1053.83 1450.37 1049.49C1366.16 1028.38 1282.36 1011.85 1198.56 996.428C1148.49 987.213 1098.65 977.524 1048.38 965.54C1048.17 965.491 1018.69 959.882 1024.11 956.507C1039.14 947.143 1062.38 942.053 1079.48 935.5C1156.27 906.064 1234.03 877.824 1311.89 849.785C1361.9 831.776 1412.98 815.212 1462.9 797.081C1479.57 791.024 1496.94 786.795 1463.55 785.323C1277.41 777.122 1094.74 781.744 910.577 779.603C871.795 779.152 831.724 779.584 791.151 772.67C771.173 769.265 791.005 762.481 797.089 760.153C818.479 751.97 841.161 745.417 863.703 738.838C874.335 735.734 918.661 726.649 876.61 722.802C796.564 715.48 719.387 718.719 639.174 710.797C618.089 708.714 589.472 705.724 567.107 696.901C518.373 677.676 598.478 653.27 601.694 651.852C671.804 620.924 745.915 594.879 815.952 563.823C817.816 562.997 851.192 547.836 854.576 545.152C872.635 530.821 831.546 516.173 819.273 511.449C757.419 487.636 695.978 480.815 634.872 472.031C629.914 471.318 567.568 465.472 591.74 454.872C612.142 445.925 637.164 442.299 659.86 436.667C662.57 435.994 712.314 423.552 690.747 420.447C609.765 408.788 529.334 415.642 451.597 414.968C384.797 414.388 317.843 414.238 249.588 409.042C245.68 408.745 212.354 408.547 225.499 398.325C244.942 383.206 274.72 378.033 296.959 365.818C319.542 353.414 321.507 340.424 289.413 320.561C239.189 289.475 183.291 269.047 130.413 244.636C114.26 237.18 80.9528 224.19 77.1609 205.956C72.8311 185.134 102.821 176.577 114.551 165.607C164.276 119.106 -204.203 16.9338 -235.925 7.48778" stroke="#F5F5F5" stroke-width="14" stroke-linecap="round"/>
</svg>
