<svg width="151" height="20" viewBox="0 0 151 20" fill="none" xmlns="http://www.w3.org/2000/svg">
<path d="M2 11.8104C5.20741 10.5193 8.16283 9.16383 11.6364 7.95053C18.0211 5.72037 24.9444 3.51461 32.2424 1.6354C36.2623 0.600299 30.3413 2.18514 34.8209 1.41615C36.1039 1.19592 37.4316 1 38.8815 1C40.7978 1 37.9741 2.28458 37.6391 2.49815C30.0587 7.3315 28.8449 9.07559 22 14.0368C18.7578 16.3867 31.607 14.9086 34.1212 14.4842C42.2435 13.113 49.5656 11.0988 56.3636 9.07415C59.2306 8.22028 63.1681 6.51651 66.8485 6.05703C68.3619 5.86808 67.7053 7.59477 67.697 7.74246C67.5175 10.905 65.3813 14.0739 63.3333 17.1475C63.2684 17.245 61.7994 19.2764 62.697 18.9682C70.6411 16.2408 77.4109 13.1098 85.3333 10.3642C87.4532 9.62959 93.3444 7.09493 97.0909 7.21186C99.6727 7.29244 99.9531 10.0939 100.455 10.718C101.298 11.7672 101.964 13.2389 105.333 13.6726C109.748 14.241 114.224 13.1233 117.333 12.1745C119.96 11.3729 127.354 8.04999 131 9.80242C136.505 12.4486 142.329 12.4853 149 10.0313" stroke="url(#paint0_linear_2174_1701)" stroke-width="2" stroke-linecap="square"/>
<defs>
<linearGradient id="paint0_linear_2174_1701" x1="7" y1="10" x2="148.755" y2="47.7964" gradientUnits="userSpaceOnUse">
<stop stop-color="#39B5D7"/>
<stop offset="0.502211" stop-color="#F7D544"/>
<stop offset="1" stop-color="#E38330"/>
</linearGradient>
</defs>
</svg>
