<svg width="1440" height="709" viewBox="0 0 1440 709" fill="none" xmlns="http://www.w3.org/2000/svg">
<path opacity="0.53" d="M-489.608 815.95C-503.875 857.892 -520.459 896.238 -480.633 847.2C-258.621 573.835 -51.2252 272.987 163.489 -12.8314C208.705 -73.0212 254.68 -137.518 307.317 -183.93C333.235 -206.782 315.918 -157.973 310.809 -142.366C292.848 -87.4963 272.044 -34.7759 251.424 17.7932C241.699 42.5884 197.965 136.055 249.771 79.4227C348.386 -28.3805 434.944 -158.789 534.248 -265.316C560.351 -293.318 595.915 -330.898 629.077 -343.601C701.336 -371.281 628.91 -181.84 626.366 -173.108C570.894 17.288 506.755 201.461 451.473 392.067C450.002 397.141 423.956 488.902 422.265 501.154C413.244 566.553 472.875 539.202 490.976 531.931C582.203 495.288 658.89 415.625 736.816 341.54C743.138 335.529 820.065 251.93 800.888 317.412C784.702 372.678 758.77 421.581 737.189 471.958C734.612 477.974 687.39 588.64 714.897 562.505C818.184 464.367 905.512 319.52 995.956 198.282C1073.67 94.1025 1151.22 -11.4234 1234.44 -106.042C1239.2 -111.459 1277.9 -163.668 1271.16 -116.602C1261.19 -46.9886 1231.04 13.412 1215.43 79.9846C1199.59 147.587 1208.06 184.082 1261.61 184.366C1345.41 184.811 1426.95 148.891 1508.29 127.984C1533.14 121.597 1582.4 102.293 1601.88 143.159C1624.11 189.825 1596.52 259.258 1592.03 306.007C1573.02 504.183 2083.64 183.89 2128.14 157.987" stroke="#171717" stroke-width="51" stroke-linecap="round"/>
</svg>
