<svg width="107" height="15" viewBox="0 0 107 15" fill="none" xmlns="http://www.w3.org/2000/svg">
<path d="M2 8.80748C4.24737 7.87506 6.31817 6.8961 8.75201 6.01983C13.2256 4.40916 18.0767 2.81611 23.1903 1.4589C26.0069 0.711327 21.8582 1.85593 24.997 1.30056C25.8959 1.1415 26.8262 1 27.8422 1C29.1848 1 27.2063 1.92775 26.9716 2.082C21.6602 5.57275 20.8097 6.83237 16.0136 10.4155C13.7419 12.1126 22.7451 11.0451 24.5067 10.7386C30.1978 9.74825 35.3283 8.29357 40.0915 6.83133C42.1004 6.21465 44.8593 4.98415 47.4381 4.6523C48.4985 4.51584 48.0384 5.76289 48.0326 5.86955C47.9068 8.15361 46.41 10.4423 44.975 12.6621C44.9295 12.7325 43.9002 14.1996 44.5292 13.977C50.0955 12.0072 54.8389 9.74593 60.39 7.76305C61.8754 7.23248 66.0032 5.40189 68.6283 5.48634C70.4373 5.54454 70.6338 7.56785 70.9851 8.01852C71.5758 8.77628 72.0429 9.83918 74.4036 10.1525C77.4967 10.5629 80.6334 9.75569 82.8118 9.07047C84.6522 8.49155 89.8331 6.09166 92.3878 7.3573C96.2452 9.26844 100.326 9.29495 105 7.52261" stroke="url(#paint0_linear_16627_1655)" stroke-width="2" stroke-linecap="square"/>
<defs>
<linearGradient id="paint0_linear_16627_1655" x1="8.52333" y1="4.97223" x2="101.573" y2="7.25739" gradientUnits="userSpaceOnUse">
<stop stop-color="#39B6D8"/>
<stop offset="0.5" stop-color="#F7D344"/>
<stop offset="1" stop-color="#E38330"/>
</linearGradient>
</defs>
</svg>
