<svg width="1440" height="735" viewBox="0 0 1440 735" fill="none" xmlns="http://www.w3.org/2000/svg">
<path opacity="0.1" d="M-1336.59 1251.89C-1321.16 1219.56 -1294.78 1194.88 -1274.5 1168.42C-1175.99 1039.95 -1086.1 901.915 -998.2 761.357C-945.684 677.381 -892.468 594.947 -834.781 516.844C-834.545 516.525 -803.293 467.502 -801.039 486.539C-794.785 539.365 -802.16 599.681 -802.487 650.447C-803.956 878.471 -808.285 1105.8 -813.052 1332.87C-816.113 1478.73 -822.565 1623.53 -825.335 1769.46C-826.261 1818.21 -831.001 1864.26 -804.462 1797.61C-656.52 1426.06 -534.329 1032.58 -398.798 651.37C-370.257 571.093 -342.397 486.104 -300.844 416.79C-280.384 382.66 -282.246 439.687 -282.371 457.742C-282.808 521.221 -287.129 583.693 -291.3 645.933C-293.268 675.29 -308.463 788.902 -271.423 709.506C-200.913 558.371 -151.622 389.199 -79.9049 239.079C-61.0534 199.618 -35.1688 146.436 -3.16761 119.641C66.5623 61.2531 53.5975 284.762 53.8735 294.733C59.8914 512.144 54.1869 726.82 60.4887 944.366C60.6565 950.157 64.314 1054.65 66.7685 1067.86C79.8698 1138.35 135.827 1085.57 153.175 1070.6C240.611 995.149 296.911 881.874 356.536 773.773C361.373 765.003 416.55 647.612 418.511 722.426C420.166 785.568 408.861 846.284 402.86 906.689C402.143 913.902 389.167 1046.52 410.219 1008.38C489.27 865.155 534.325 680.931 591.117 519.495C639.919 380.775 688.054 240.754 746.274 109.494C749.607 101.978 773.79 32.5631 782.946 83.3982C796.489 158.587 784.592 232.794 790.865 307.231C797.235 382.821 819.407 416.521 878.402 394.472C970.724 359.968 1047.76 289.302 1129.86 234.035C1154.95 217.152 1202.33 176.905 1238.14 210.478C1279.02 248.816 1273.12 331.173 1284.64 380.745C1333.5 590.883 1782.34 51.0595 1822.16 6.06693" stroke="#737373" stroke-width="64" stroke-linecap="round"/>
</svg>
