<svg width="943" height="652" viewBox="0 0 943 652" fill="none" xmlns="http://www.w3.org/2000/svg">
<path opacity="0.85" d="M935.265 1054.83C917.999 1053.14 898.696 1046.2 881.356 1041.86C797.148 1020.75 713.354 1004.23 629.553 988.801C579.486 979.586 529.641 969.897 479.368 957.913C479.162 957.864 449.686 952.255 455.101 948.88C470.127 939.516 493.369 934.426 510.466 927.873C587.261 898.437 665.022 870.197 742.882 842.158C792.891 824.149 843.973 807.585 893.887 789.454C910.561 783.397 927.93 779.168 894.54 777.696C708.404 769.495 525.73 774.117 341.568 771.976C302.786 771.526 262.715 771.957 222.142 765.043C202.164 761.638 221.996 754.854 228.08 752.526C249.47 744.343 272.152 737.79 294.694 731.211C305.327 728.107 349.652 719.022 307.601 715.176C227.555 707.853 150.378 711.092 70.1647 703.17C49.08 701.088 20.4634 698.097 -1.90193 689.274C-50.6355 670.049 29.4692 645.643 32.6846 644.225C102.795 613.297 176.906 587.252 246.943 556.196C248.807 555.37 282.184 540.209 285.567 537.525C303.626 523.194 262.537 508.546 250.265 503.822C188.41 480.009 126.969 473.188 65.8626 464.404C60.905 463.691 -1.4409 457.845 22.7315 447.245C43.1327 438.298 68.1551 434.672 90.8508 429.04C93.561 428.367 143.305 415.925 121.739 412.82C40.756 401.161 -39.6747 408.015 -117.412 407.341C-184.212 406.761 -251.166 406.611 -319.421 401.415C-323.328 401.118 -356.655 400.92 -343.51 390.698C-324.067 375.579 -294.289 370.406 -272.05 358.191C-249.467 345.787 -247.502 332.798 -279.596 312.934C-329.82 281.849 -385.718 261.42 -438.596 237.009C-454.748 229.553 -488.056 216.563 -491.848 198.329C-496.178 177.507 -466.188 168.95 -454.458 157.98C-404.732 111.479 -773.212 9.30681 -804.934 -0.139178" stroke="#171717" stroke-width="14" stroke-linecap="round"/>
</svg>
