<svg width="17" height="324" viewBox="0 0 17 324" fill="none" xmlns="http://www.w3.org/2000/svg">
<rect y="154" width="1" height="16" rx="0.5" transform="rotate(-90 0 154)" fill="#444444"/>
<rect y="324" width="1" height="16" rx="0.5" transform="rotate(-90 0 324)" fill="#444444"/>
<rect x="0.109619" y="137" width="1" height="16" rx="0.5" transform="rotate(-90 0.109619 137)" fill="#444444"/>
<rect x="0.109619" y="307" width="1" height="16" rx="0.5" transform="rotate(-90 0.109619 307)" fill="#444444"/>
<rect x="0.219238" y="120" width="1" height="16" rx="0.5" transform="rotate(-90 0.219238 120)" fill="#444444"/>
<rect x="0.219238" y="290" width="1" height="16" rx="0.5" transform="rotate(-90 0.219238 290)" fill="#444444"/>
<rect x="0.328857" y="103" width="1" height="16" rx="0.5" transform="rotate(-90 0.328857 103)" fill="#444444"/>
<rect x="0.328857" y="273" width="1" height="16" rx="0.5" transform="rotate(-90 0.328857 273)" fill="#444444"/>
<rect x="0.438477" y="86" width="1" height="16" rx="0.5" transform="rotate(-90 0.438477 86)" fill="#444444"/>
<rect x="0.438477" y="256" width="1" height="16" rx="0.5" transform="rotate(-90 0.438477 256)" fill="#444444"/>
<rect x="0.547852" y="69" width="1" height="16" rx="0.5" transform="rotate(-90 0.547852 69)" fill="#444444"/>
<rect x="0.547852" y="239" width="1" height="16" rx="0.5" transform="rotate(-90 0.547852 239)" fill="#444444"/>
<rect x="0.657471" y="52" width="1" height="16" rx="0.5" transform="rotate(-90 0.657471 52)" fill="#444444"/>
<rect x="0.657471" y="222" width="1" height="16" rx="0.5" transform="rotate(-90 0.657471 222)" fill="#444444"/>
<rect x="0.76709" y="35" width="1" height="16" rx="0.5" transform="rotate(-90 0.76709 35)" fill="#444444"/>
<rect x="0.76709" y="205" width="1" height="16" rx="0.5" transform="rotate(-90 0.76709 205)" fill="#444444"/>
<rect x="0.876709" y="18" width="1" height="16" rx="0.5" transform="rotate(-90 0.876709 18)" fill="#444444"/>
<rect x="0.876709" y="188" width="1" height="16" rx="0.5" transform="rotate(-90 0.876709 188)" fill="#444444"/>
<rect x="0.986328" y="1" width="1" height="16" rx="0.5" transform="rotate(-90 0.986328 1)" fill="#444444"/>
<rect x="0.986328" y="171" width="1" height="16" rx="0.5" transform="rotate(-90 0.986328 171)" fill="#444444"/>
</svg>
